<svg width="309" height="50" fill="none" xmlns="http://www.w3.org/2000/svg">
  <defs>
    <linearGradient id="a" x1="34.57" y1="30.79" x2="18.73" y2="48.91" gradientUnits="userSpaceOnUse">
      <stop stop-color="#4285F4"/>
      <stop offset="1" stop-color="#1B74E8"/>
    </linearGradient>
  </defs>
  <rect x=".5" y=".5" width="308" height="49" rx="24.5" fill="#1F1F1F"/>
  <path d="M51 22H21v-5c0-2.71 2.2-5 4.82-5h20.36A4.97 4.97 0 0 1 51 17v5Z" fill="#34A853"/>
  <path d="M51 26.05H21v-5c0-2.71 2.2-5 4.82-5h20.36a4.97 4.97 0 0 1 4.82 5v5Z" fill="#FBBC04"/>
  <path d="M51 30.25H21v-5c0-2.72 2.2-5 4.82-5h20.36a4.97 4.97 0 0 1 4.82 5v5Z" fill="#EA4335"/>
  <path d="m21 23.28 19.04 4.4c2.2.55 4.66 0 6.44-1.38L51 23v10.32c0 2.62-2.2 4.68-4.8 4.68H25.8c-2.6 0-4.8-2.06-4.8-4.68V23.28Z" fill="url(#a)"/>
  <path d="m77.72 32.1.18-1.64c.76 0 1.3-.07 1.6-.22a.9.9 0 0 0 .52-.76c.05-.37.07-.9.04-1.58l-.38-10.18h1.62l.4 10c.04.95-.03 1.75-.2 2.4a2.25 2.25 0 0 1-1.12 1.48c-.57.33-1.46.5-2.66.5Zm-14.12-.08c0-.48.07-1.01.2-1.6.13-.59.35-1.23.64-1.94l1.44.56a11.7 11.7 0 0 0-.48 1.54c-.1.47-.16.9-.16 1.3 0 .75.21 1.35.64 1.8.44.47 1.01.8 1.72 1.02a10.18 10.18 0 0 0 5.16-.04 5.58 5.58 0 0 0 2.04-.94c.5-.4.76-.84.76-1.32 0-.35-.27-.65-.8-.9s-1.28-.51-2.24-.78l.38-1.66c1.37.55 2.45.92 3.22 1.12a8.5 8.5 0 0 0 1.8.28c.28 0 .48.08.6.24.13.15.2.33.2.54 0 .21-.1.41-.28.6-.19.17-.43.26-.72.26h-.74l.04.28c.03.08.04.18.04.3 0 .65-.3 1.28-.9 1.88a6.53 6.53 0 0 1-2.6 1.5c-1.12.39-2.47.58-4.04.58a8.35 8.35 0 0 1-2.94-.5 4.84 4.84 0 0 1-2.16-1.54 3.99 3.99 0 0 1-.82-2.58ZM84.76 32l-.4-14.28h1.62l.4 14.28h-1.62Zm-.54 6.06-.24-1.08a7.88 7.88 0 0 0 .94-.22c-.25-.17-.47-.4-.66-.68a1.62 1.62 0 0 1-.28-.92c0-.6.2-1.05.62-1.36.43-.3.9-.46 1.44-.46.3 0 .62.05.94.16l-.16 1-.4-.08a1.75 1.75 0 0 0-.38-.04c-.65 0-.98.24-.98.72 0 .35.13.63.38.86.27.23.53.37.78.44.5-.15.96-.3 1.34-.44l.32 1.02a31.23 31.23 0 0 1-2.46.76c-.44.13-.84.24-1.2.32Zm17.86-5.96c-.87 0-1.62-.15-2.24-.44a2.54 2.54 0 0 1-1.3-1.62c-.72.17-1.42.25-2.08.22a5.7 5.7 0 0 1-1.78-.38 3.13 3.13 0 0 1-1.26-.92c-.31-.4-.46-.87-.46-1.42 0-.72.22-1.37.68-1.96.45-.6 1.06-1.1 1.84-1.52a8.4 8.4 0 0 1 2.56-.86l-.06-1.52h1.62l.32 6.6c.02.63.13 1.1.31 1.42.2.3.47.51.8.62.35.1.77.14 1.25.14.28 0 .47.08.6.24.13.15.2.33.2.54 0 .21-.1.41-.28.6-.2.17-.43.26-.72.26Zm-7.54-4.82c0 .3.12.56.36.76.25.2.57.35.96.44a6.95 6.95 0 0 0 2.44.04l-.18-3.66c-.76.08-1.41.25-1.94.52-.54.25-.94.55-1.22.9-.28.33-.42.67-.42 1Zm4.1-7.9c-.28 0-.52-.1-.72-.28a1 1 0 0 1-.28-.7 1 1 0 0 1 1-1c.26 0 .49.1.68.3a.96.96 0 0 1 0 1.4.93.93 0 0 1-.68.28Zm-2.74 0c-.28 0-.52-.1-.72-.28a1 1 0 0 1-.28-.7 1 1 0 0 1 1-1c.26 0 .49.1.68.3a.96.96 0 0 1 0 1.4.93.93 0 0 1-.68.28Zm6.18 12.72.2-1.64h1.5a32.2 32.2 0 0 0 1.66-.08c.53-.05.95-.13 1.26-.24.43-.15.77-.33 1.02-.56.27-.24.47-.55.6-.92a4.46 4.46 0 0 1-1.58.22c-1.02 0-1.81-.24-2.36-.72a2.32 2.32 0 0 1-.82-1.82 5.19 5.19 0 0 1 .92-2.94c.3-.43.65-.77 1.06-1.02.41-.27.88-.4 1.38-.4.72 0 1.31.24 1.78.72.48.47.83 1.07 1.06 1.82.24.75.36 1.54.36 2.38 0 1-.17 1.86-.52 2.58-.33.7-.9 1.3-1.68 1.76a5.3 5.3 0 0 1-1.56.56c-.61.12-1.28.2-2.02.24-.73.04-1.48.06-2.26.06Zm3.06-6.16c0 .41.14.75.4 1 .27.24.73.36 1.38.36.58 0 1.12-.08 1.64-.24v-.28c0-.55-.07-1.06-.22-1.54a3 3 0 0 0-.62-1.18c-.27-.3-.58-.44-.96-.44-.32 0-.6.12-.84.36-.24.23-.43.52-.58.88-.13.36-.2.72-.2 1.08Zm1.4-6.02c-.28 0-.52-.1-.72-.28a1 1 0 0 1-.28-.7 1 1 0 0 1 1-1c.27 0 .5.1.68.3a.96.96 0 0 1 0 1.4.93.93 0 0 1-.68.28Zm10.3 12.18c-1.07 0-1.9-.12-2.45-.36a2.08 2.08 0 0 1-1.16-1.12 5.6 5.6 0 0 1-.36-1.96l-.4-10.94h1.64l.4 10.3c.02.65.08 1.16.18 1.52.1.35.33.59.68.72.36.13.92.2 1.68.2.28 0 .48.08.6.24.13.15.2.33.2.54 0 .21-.1.41-.28.6-.19.17-.43.26-.72.26Zm9.69.26c-1.43 0-2.58-.07-3.46-.2a5.8 5.8 0 0 1-1.98-.56c-.46-.27-.77-.6-.94-1-.32.47-.66.8-1.02 1.02-.35.2-.72.33-1.1.38-.38.07-.77.1-1.18.1l.2-1.64c.62 0 1.1-.12 1.44-.36.33-.25.6-.67.78-1.24.2-.57.42-1.36.66-2.36l1.46.38c-.14.47-.24.9-.32 1.28-.07.37-.1.65-.1.82 0 .37.1.69.3.94.21.24.64.42 1.3.54a17.66 17.66 0 0 1 3.44-3.92 9.99 9.99 0 0 1 2.16-1.38 5.32 5.32 0 0 1 2.3-.54c.73 0 1.36.15 1.88.46.53.3.94.7 1.22 1.2a3.73 3.73 0 0 1-.26 3.9 4.8 4.8 0 0 1-2.34 1.58c-1.08.4-2.56.6-4.44.6Zm3.82-6.1c-.6 0-1.2.15-1.82.46-.6.3-1.18.67-1.72 1.14a18.33 18.33 0 0 0-2.58 2.8c.7.04 1.6.06 2.66.06 1.76 0 3.12-.21 4.1-.64.98-.44 1.48-1.08 1.48-1.92 0-.3-.08-.58-.22-.86-.15-.3-.38-.54-.7-.74-.3-.2-.7-.3-1.2-.3Zm-.46-3.7c-.28 0-.52-.1-.72-.28a1 1 0 0 1-.28-.7 1 1 0 0 1 1-1c.26 0 .5.1.68.3a.96.96 0 0 1 0 1.4.93.93 0 0 1-.68.28Zm12.88-1.28c0-.3-.02-.65-.06-1.06a40.18 40.18 0 0 0-.3-2.3l1.72-.2.12 1.06a40.53 40.53 0 0 1 .16 2.34c0 .84-.08 1.66-.24 2.46-.14.79-.39 1.55-.74 2.3a8.53 8.53 0 0 1 1.38 1.8c.3.55.44 1.09.44 1.62 0 .39-.09.8-.28 1.22-.18.41-.52.77-1.02 1.06-.49.28-1.2.42-2.14.42h-4.6v-1.62a15.2 15.2 0 0 0 4.28-4.26 40.4 40.4 0 0 0-2.64-2.14c-1-.76-2.04-1.53-3.14-2.32l.94-1.32c1.2.88 2.24 1.68 3.16 2.4.92.7 1.72 1.36 2.38 1.96.2-.53.35-1.08.44-1.64.1-.57.14-1.17.14-1.78Zm-3.18 9.08h2.52c.68 0 1.13-.12 1.34-.36.22-.25.32-.54.32-.86 0-.24-.1-.52-.3-.84a6.06 6.06 0 0 0-.8-1.04 12.88 12.88 0 0 1-3.08 3.1Zm-2.74 7.7-.24-1.08a7.93 7.93 0 0 0 .94-.22c-.25-.17-.47-.4-.66-.68a1.62 1.62 0 0 1-.28-.92c0-.6.21-1.05.62-1.36.43-.3.91-.46 1.44-.46.31 0 .62.05.94.16l-.16 1-.4-.08a1.75 1.75 0 0 0-.38-.04c-.65 0-.98.24-.98.72 0 .35.13.63.38.86.27.23.53.37.78.44.51-.15.96-.3 1.34-.44l.32 1.02a31.49 31.49 0 0 1-2.46.76c-.44.13-.84.24-1.2.32ZM148.4 32l-.4-14.28h1.62l.4 14.28h-1.63ZM165.4 32.32a7.54 7.54 0 0 1-5.28-2.12 7.6 7.6 0 0 1-1.64-2.38 7.6 7.6 0 0 1-.58-2.98 7.46 7.46 0 0 1 2.2-5.34 7.43 7.43 0 0 1 5.3-2.14c1.1 0 2.1.2 3.02.58.93.39 1.71.93 2.34 1.62l-1.52 1.5a4.74 4.74 0 0 0-1.68-1.2 5.34 5.34 0 0 0-2.16-.42 5.22 5.22 0 0 0-5.28 5.4c0 1.1.25 2.05.74 2.86.5.8 1.14 1.43 1.94 1.88a5.66 5.66 0 0 0 4.98.18 4.28 4.28 0 0 0 2.5-3.56h-4.9v-1.94h6.96c.08.36.12.74.12 1.14v.02c0 1.39-.3 2.6-.92 3.64a6.28 6.28 0 0 1-2.5 2.4 7.57 7.57 0 0 1-3.64.86Zm13.5 0a5.15 5.15 0 0 1-4.66-2.66 5.57 5.57 0 0 1-.68-2.76c0-1.01.23-1.93.68-2.74a5.1 5.1 0 0 1 4.66-2.68 5.1 5.1 0 0 1 4.64 2.68c.45.81.68 1.73.68 2.74 0 1.03-.23 1.95-.68 2.76a5.15 5.15 0 0 1-4.64 2.66Zm0-1.98c.56 0 1.08-.13 1.56-.4.48-.28.87-.67 1.16-1.18.3-.52.46-1.14.46-1.86 0-.72-.15-1.33-.46-1.84a3 3 0 0 0-1.16-1.18 3.15 3.15 0 0 0-4.32 1.18c-.3.5-.44 1.12-.44 1.84s.15 1.34.44 1.86c.3.5.7.9 1.18 1.18.5.27 1.02.4 1.58.4Zm12.1 1.98a5.15 5.15 0 0 1-4.66-2.66 5.57 5.57 0 0 1-.67-2.76c0-1.01.23-1.93.68-2.74a5.11 5.11 0 0 1 4.66-2.68 5.1 5.1 0 0 1 4.64 2.68c.45.81.68 1.73.68 2.74 0 1.03-.23 1.95-.68 2.76a5.15 5.15 0 0 1-4.64 2.66Zm0-1.98c.57 0 1.09-.13 1.57-.4.48-.28.87-.67 1.16-1.18.3-.52.46-1.14.46-1.86 0-.72-.15-1.33-.46-1.84a3 3 0 0 0-1.16-1.18 3.15 3.15 0 0 0-4.32 1.18c-.3.5-.44 1.12-.44 1.84s.15 1.34.44 1.86c.3.5.7.9 1.18 1.18.5.27 1.02.4 1.58.4Zm11.92 6.3c-.9 0-1.67-.15-2.32-.44a4.39 4.39 0 0 1-2.42-2.46l2-.84a2.88 2.88 0 0 0 2.74 1.82 2.9 2.9 0 0 0 2.2-.84c.54-.56.82-1.35.82-2.38v-.98h-.12c-.32.48-.77.87-1.34 1.16-.56.28-1.2.42-1.92.42-.87 0-1.66-.22-2.38-.66a4.92 4.92 0 0 1-1.74-1.84 5.72 5.72 0 0 1-.66-2.8c0-1.08.22-2.01.66-2.8a4.88 4.88 0 0 1 1.74-1.86 4.48 4.48 0 0 1 4.3-.22c.57.3 1.02.68 1.34 1.16h.12V21.8H208v9.66c0 1.1-.22 2.05-.66 2.82a4.27 4.27 0 0 1-1.78 1.76c-.76.4-1.64.6-2.64.6Zm.02-6.5c.53 0 1.03-.13 1.48-.38.45-.27.82-.65 1.1-1.14.28-.5.42-1.11.42-1.82 0-.73-.14-1.35-.42-1.84a2.84 2.84 0 0 0-2.58-1.52 2.97 2.97 0 0 0-2.6 1.52c-.28.5-.42 1.1-.42 1.84 0 .72.14 1.33.42 1.84a2.86 2.86 0 0 0 2.6 1.5Zm7.6 1.86V17.68h2.17V32h-2.16Zm9.28.32a5.04 5.04 0 0 1-4.54-2.62 5.75 5.75 0 0 1-.66-2.78c0-.97.2-1.87.63-2.7a5.1 5.1 0 0 1 1.78-1.98c.78-.5 1.66-.76 2.66-.76a5 5 0 0 1 2.69.68 4.41 4.41 0 0 1 1.7 1.86 5.96 5.96 0 0 1 .53 3.34h-7.88a3.3 3.3 0 0 0 1.06 2.28c.62.5 1.31.76 2.09.76a3 3 0 0 0 1.72-.46c.45-.32.8-.71 1.08-1.18l1.78.86a5.52 5.52 0 0 1-1.8 1.96c-.76.5-1.71.74-2.84.74Zm-.1-9a2.7 2.7 0 0 0-1.84.66c-.51.44-.85 1.03-1.03 1.76h5.66c-.02-.35-.13-.7-.33-1.08a2.73 2.73 0 0 0-2.46-1.34Zm20.07 8.78c-.87 0-1.62-.15-2.24-.44a2.55 2.55 0 0 1-1.3-1.62c-.72.17-1.42.25-2.08.22a5.71 5.71 0 0 1-1.78-.38 3.13 3.13 0 0 1-1.26-.92c-.31-.4-.46-.87-.46-1.42 0-.72.22-1.37.68-1.96.45-.6 1.06-1.1 1.84-1.52.77-.41 1.62-.7 2.56-.86l-.06-1.52h1.62l.32 6.6c.02.63.13 1.1.32 1.42.2.3.46.51.8.62.34.1.76.14 1.24.14.28 0 .48.08.6.24.13.15.2.33.2.54 0 .21-.1.41-.28.6-.19.17-.43.26-.72.26Zm-7.54-4.82c0 .3.12.56.36.76.25.2.57.35.96.44a6.95 6.95 0 0 0 2.44.04l-.18-3.66c-.76.08-1.41.25-1.94.52-.54.25-.94.55-1.22.9-.28.33-.42.67-.42 1Zm4.1-7.9c-.28 0-.52-.1-.72-.28a1 1 0 0 1-.28-.7 1 1 0 0 1 1-1c.26 0 .49.1.68.3a.96.96 0 0 1 0 1.4.92.92 0 0 1-.68.28Zm-2.74 0c-.28 0-.52-.1-.72-.28a1 1 0 0 1-.28-.7 1 1 0 0 1 1-1c.26 0 .49.1.68.3a.96.96 0 0 1 0 1.4.92.92 0 0 1-.68.28Zm6.18 12.72.2-1.64h1c.22-.33.44-.66.68-.98l-.38-11.76h1.62l.36 9.88c.82-.83 1.7-1.53 2.66-2.1a5.68 5.68 0 0 1 2.96-.88c.74 0 1.36.15 1.88.46.54.3.94.7 1.22 1.2a3.28 3.28 0 0 1-.24 3.62 4.5 4.5 0 0 1-2.34 1.48c-.85.28-1.88.47-3.08.58-1.2.1-2.68.14-4.44.14h-2.1Zm8.98-5.84c-.57 0-1.15.14-1.74.42-.57.28-1.12.64-1.66 1.08a15.88 15.88 0 0 0-2.56 2.7h1.36c2.32 0 4.02-.2 5.1-.6 1.08-.4 1.62-1.03 1.62-1.88 0-.23-.07-.47-.22-.74-.14-.27-.38-.5-.7-.68-.3-.2-.7-.3-1.2-.3ZM254 32.1a9.36 9.36 0 0 1-2.92-.5 4 4 0 0 1-1.36-.78l1.64-.82c.47.19.95.31 1.44.38.51.05.98.08 1.4.08.28 0 .48.08.6.24.14.15.2.33.2.54 0 .21-.09.41-.28.6-.18.17-.42.26-.72.26Zm-6.08-9.54c-.28 0-.52-.1-.72-.28a1 1 0 0 1-.28-.7 1 1 0 0 1 1-1c.27 0 .5.1.68.3a.96.96 0 0 1 0 1.4.93.93 0 0 1-.68.28ZM254 32.1l.2-1.64c.46 0 .92 0 1.4-.02.5-.01.97-.05 1.42-.1-.32-.3-.63-.67-.94-1.14a3.03 3.03 0 0 1-.46-1.7c0-.7.17-1.35.5-1.92.34-.59.76-1.05 1.28-1.38.54-.33 1.1-.5 1.72-.5.66 0 1.23.18 1.72.54.5.36.88.82 1.14 1.38.28.55.42 1.12.42 1.72 0 .63-.12 1.19-.38 1.68-.25.5-.6.93-1.02 1.3a60.56 60.56 0 0 0 3.1.14c.28 0 .48.08.6.24.14.15.2.33.2.54 0 .21-.1.41-.28.6-.18.17-.42.26-.72.26a18.81 18.81 0 0 1-4.86-.66l-.66.22c-.61.17-1.31.29-2.1.34-.78.07-1.54.1-2.28.1Zm3.26-4.56c0 .52.16.98.48 1.38.32.39.68.7 1.08.94.55-.24 1-.56 1.38-.96.38-.4.56-.88.56-1.44 0-.3-.07-.62-.22-.94a2.4 2.4 0 0 0-.6-.84 1.28 1.28 0 0 0-.88-.34c-.32 0-.62.11-.9.34a2.38 2.38 0 0 0-.9 1.86Zm1.68-5.9c-.28 0-.52-.1-.72-.28a1 1 0 0 1-.28-.7 1 1 0 0 1 1-1c.27 0 .5.1.68.3a.96.96 0 0 1 0 1.4.92.92 0 0 1-.68.28Zm4.96 10.46.19-1.64a13.08 13.08 0 0 0 7.54-2.34 6.1 6.1 0 0 0-1.93-1.1 7.02 7.02 0 0 0-3.36-.36 8.4 8.4 0 0 0-.91.16l-.32-1.52a7.3 7.3 0 0 1 2.11-.34c.7 0 1.33.09 1.89.26.55.16 1.06.36 1.51.6.47.24.9.48 1.3.72.42.24.82.45 1.2.62.4.16.8.24 1.2.24h.43l.13 1.44c-.4 0-.8.05-1.2.14.26.6.62 1 1.08 1.2.47.19 1.17.28 2.08.28.29 0 .49.08.6.24.14.15.2.33.2.54 0 .21-.09.41-.27.6-.2.17-.43.26-.73.26a9.5 9.5 0 0 1-1.94-.18 3.13 3.13 0 0 1-1.44-.76 3.5 3.5 0 0 1-.88-1.72c-.5.24-1.02.51-1.56.82-.51.3-1.1.58-1.74.86a12.1 12.1 0 0 1-5.18.98Zm12.74 0 .2-1.64c.37 0 .69-.08.94-.24.25-.16.5-.42.74-.78.24-.37.5-.88.78-1.52.39-.85.77-1.5 1.14-1.94.39-.44.77-.74 1.14-.9.39-.16.77-.24 1.14-.24.45 0 .87.12 1.26.36.39.23.73.53 1.02.92a4.55 4.55 0 0 1 .94 2.64c0 .8-.14 1.44-.42 1.92-.28.47-.64.8-1.08 1.02-.43.2-.87.3-1.34.3a7.1 7.1 0 0 1-1.48-.2 7.7 7.7 0 0 1-2.22-1.04c-.43.61-.85 1-1.28 1.14-.43.13-.92.2-1.48.2Zm3.74-3.12-.22.5a5.13 5.13 0 0 0 2.76.88c.57 0 .98-.13 1.22-.38s.36-.59.36-1a2.94 2.94 0 0 0-1-2.12 1.32 1.32 0 0 0-.9-.38c-.24 0-.47.07-.7.2-.23.13-.46.38-.7.74-.24.36-.51.88-.82 1.56Z" fill="#fff"/>
  <rect x=".5" y=".5" width="308" height="49" rx="24.5" stroke="#747775"/>
</svg>
