<svg width="372" height="50" fill="none" xmlns="http://www.w3.org/2000/svg">
  <defs>
    <linearGradient id="a" x1="34.57" y1="30.79" x2="18.73" y2="48.91" gradientUnits="userSpaceOnUse">
      <stop stop-color="#4285F4"/>
      <stop offset="1" stop-color="#1B74E8"/>
    </linearGradient>
  </defs>
  <rect x=".5" y=".5" width="371" height="49" rx="24.5" fill="#1F1F1F"/>
  <path d="M51 22H21v-5c0-2.71 2.2-5 4.82-5h20.36A4.97 4.97 0 0 1 51 17v5Z" fill="#34A853"/>
  <path d="M51 26.05H21v-5c0-2.71 2.2-5 4.82-5h20.36a4.97 4.97 0 0 1 4.82 5v5Z" fill="#FBBC04"/>
  <path d="M51 30.25H21v-5c0-2.72 2.2-5 4.82-5h20.36a4.97 4.97 0 0 1 4.82 5v5Z" fill="#EA4335"/>
  <path d="m21 23.28 19.04 4.4c2.2.55 4.66 0 6.44-1.38L51 23v10.32c0 2.62-2.2 4.68-4.8 4.68H25.8c-2.6 0-4.8-2.06-4.8-4.68V23.28Z" fill="url(#a)"/>
  <path d="m63.3 32 5.4-14.32h2.5L76.62 32H74.2l-1.32-3.68h-5.84L65.72 32H63.3Zm6.06-10.1-1.58 4.38h4.36l-1.58-4.38-.54-1.64h-.12l-.54 1.64Zm12.9 10.42c-.93 0-1.76-.23-2.5-.68a5.1 5.1 0 0 1-1.77-1.92 6.06 6.06 0 0 1-.64-2.82c0-1.05.22-1.99.64-2.8a5.1 5.1 0 0 1 1.76-1.92c.75-.47 1.58-.7 2.5-.7.79 0 1.46.17 2.02.52.58.35 1 .74 1.26 1.18h.12l-.12-1.42v-4.08h2.14V32h-2.02v-1.36h-.12c-.26.44-.68.83-1.26 1.18-.56.33-1.23.5-2.02.5Zm.31-1.98a3.03 3.03 0 0 0 2.64-1.6c.3-.52.44-1.13.44-1.84 0-.7-.14-1.31-.44-1.82a3 3 0 0 0-2.64-1.62c-.53 0-1.03.14-1.5.42a3.2 3.2 0 0 0-1.14 1.2c-.3.5-.44 1.11-.44 1.82 0 .7.15 1.32.44 1.84.3.5.68.9 1.14 1.18.47.28.97.42 1.5.42Zm8.89-10.04c-.4 0-.75-.14-1.04-.42-.28-.3-.42-.64-.42-1.04s.14-.74.42-1.02c.29-.28.64-.42 1.04-.42s.74.14 1.02.42a1.42 1.42 0 0 1 0 2.06c-.28.28-.62.42-1.02.42ZM90.38 32V21.8h2.16V32h-2.16Zm9.46.32a5.05 5.05 0 0 1-4.58-2.62 5.73 5.73 0 0 1-.68-2.8c0-1.04.23-1.97.68-2.78a5 5 0 0 1 4.58-2.64 5.1 5.1 0 0 1 2.86.76c.79.5 1.35 1.2 1.68 2.06l-1.96.8c-.47-1.1-1.34-1.64-2.62-1.64a3.05 3.05 0 0 0-2.66 1.64c-.28.5-.42 1.1-.42 1.8s.14 1.3.42 1.82a2.94 2.94 0 0 0 2.66 1.62c.65 0 1.2-.15 1.66-.44.45-.3.8-.72 1.06-1.24l1.92.84a4.72 4.72 0 0 1-1.72 2.02 5 5 0 0 1-2.88.8Zm7.7-12.02c-.4 0-.76-.14-1.05-.42-.28-.3-.42-.64-.42-1.04s.14-.74.42-1.02c.3-.28.64-.42 1.04-.42s.74.14 1.02.42c.3.28.44.62.44 1.02s-.14.75-.44 1.04c-.28.28-.62.42-1.02.42ZM106.44 32V21.8h2.16V32h-2.16Zm9.54.32a5.15 5.15 0 0 1-4.66-2.66 5.56 5.56 0 0 1-.68-2.76c0-1.01.23-1.93.68-2.74a5.1 5.1 0 0 1 4.66-2.68 5.11 5.11 0 0 1 4.64 2.68c.46.81.68 1.73.68 2.74 0 1.03-.22 1.95-.68 2.76a5.15 5.15 0 0 1-4.64 2.66Zm0-1.98c.56 0 1.08-.13 1.56-.4.48-.28.87-.67 1.16-1.18.31-.52.46-1.14.46-1.86a3.5 3.5 0 0 0-.46-1.84 3 3 0 0 0-1.16-1.18 3.15 3.15 0 0 0-4.32 1.18 3.6 3.6 0 0 0-.44 1.84c0 .72.15 1.34.44 1.86.31.5.7.9 1.18 1.18.5.27 1.02.4 1.58.4Zm7.12 1.66V21.8h2.04v1.4h.12a3.82 3.82 0 0 1 3.22-1.72c1.25 0 2.2.37 2.82 1.12.62.75.94 1.73.94 2.96V32h-2.14v-6.16c0-.83-.2-1.43-.62-1.8a2.28 2.28 0 0 0-1.62-.58c-.52 0-.98.15-1.36.44-.39.28-.7.65-.92 1.12-.22.47-.32.97-.32 1.5V32h-2.16Zm14.7.32a4.4 4.4 0 0 1-1.96-.42 3.3 3.3 0 0 1-1.82-3c0-.72.19-1.33.56-1.84.39-.52.9-.91 1.54-1.18.64-.27 1.35-.4 2.12-.4a6.97 6.97 0 0 1 2.8.56v-.54c0-.67-.24-1.2-.72-1.6a2.8 2.8 0 0 0-1.86-.6c-.52 0-1.01.12-1.48.36-.47.23-.84.54-1.12.94l-1.48-1.14a4.5 4.5 0 0 1 1.74-1.44 5.37 5.37 0 0 1 2.4-.54c1.48 0 2.62.37 3.42 1.1.8.72 1.2 1.73 1.2 3.04V32h-2.1v-1.26h-.12a3.67 3.67 0 0 1-3.12 1.58Zm.38-1.76c.56 0 1.06-.13 1.48-.4a2.88 2.88 0 0 0 1.38-2.46c-.3-.17-.67-.31-1.08-.42a4.72 4.72 0 0 0-1.32-.18c-.88 0-1.5.18-1.88.54-.37.35-.56.77-.56 1.28 0 .48.18.87.54 1.18.36.3.84.46 1.44.46Zm7.34 1.44V21.8h2.04v1.5h.12a2.8 2.8 0 0 1 1.16-1.28 3.36 3.36 0 0 1 2.5-.46c.2.04.38.09.54.14v2.24a5.4 5.4 0 0 0-.78-.26c-.25-.07-.52-.1-.8-.1-.5 0-.96.14-1.36.42-.39.27-.7.63-.92 1.1a3.3 3.3 0 0 0-.34 1.5V32h-2.16Zm15.9.32c-.74 0-1.4-.14-1.97-.42a3.3 3.3 0 0 1-1.81-3c0-.72.18-1.33.56-1.84.38-.52.9-.91 1.53-1.18.64-.27 1.35-.4 2.13-.4a6.97 6.97 0 0 1 2.8.56v-.54c0-.67-.24-1.2-.72-1.6a2.8 2.8 0 0 0-1.86-.6 3.2 3.2 0 0 0-1.49.36c-.46.23-.84.54-1.11.94L158 23.46a4.5 4.5 0 0 1 1.75-1.44 5.37 5.37 0 0 1 2.4-.54c1.47 0 2.61.37 3.41 1.1.8.72 1.2 1.73 1.2 3.04V32h-2.1v-1.26h-.12a3.66 3.66 0 0 1-3.12 1.58Zm.38-1.76c.56 0 1.05-.13 1.47-.4a2.87 2.87 0 0 0 1.38-2.46c-.3-.17-.66-.31-1.07-.42a4.71 4.71 0 0 0-1.33-.18c-.88 0-1.5.18-1.88.54-.37.35-.56.77-.56 1.28 0 .48.19.87.55 1.18.35.3.84.46 1.44.46ZM181.36 32.32a7.65 7.65 0 0 1-2.94-.56 7.48 7.48 0 0 1-3.96-3.98 7.65 7.65 0 0 1-.56-2.94c0-1.05.19-2.03.56-2.94a7.21 7.21 0 0 1 3.96-3.96c.9-.39 1.89-.58 2.94-.58a6.72 6.72 0 0 1 5.3 2.34l-1.54 1.5c-.48-.57-1.03-1-1.64-1.3a5.26 5.26 0 0 0-6.66 2.1c-.47.8-.7 1.75-.7 2.84 0 1.1.23 2.05.7 2.86a5.2 5.2 0 0 0 4.56 2.54c.87 0 1.63-.18 2.3-.54a5.94 5.94 0 0 0 1.8-1.48l1.58 1.52a7.34 7.34 0 0 1-5.7 2.58Zm10.61 0a4.4 4.4 0 0 1-1.96-.42 3.3 3.3 0 0 1-1.82-3c0-.72.19-1.33.56-1.84.39-.52.9-.91 1.54-1.18.64-.27 1.35-.4 2.12-.4a6.97 6.97 0 0 1 2.8.56v-.54c0-.67-.24-1.2-.72-1.6a2.8 2.8 0 0 0-1.86-.6c-.52 0-1.01.12-1.48.36-.47.23-.84.54-1.12.94l-1.48-1.14a4.5 4.5 0 0 1 1.74-1.44 5.37 5.37 0 0 1 2.4-.54c1.48 0 2.62.37 3.42 1.1.8.72 1.2 1.73 1.2 3.04V32h-2.1v-1.26h-.12a3.67 3.67 0 0 1-3.12 1.58Zm.38-1.76c.56 0 1.06-.13 1.48-.4a2.88 2.88 0 0 0 1.38-2.46c-.3-.17-.67-.31-1.08-.42a4.72 4.72 0 0 0-1.32-.18c-.88 0-1.5.18-1.88.54-.37.35-.56.77-.56 1.28 0 .48.18.87.54 1.18.36.3.84.46 1.44.46Zm16.52-1.52v-5.36h-1.78V21.8h1.78v-2.88h2.16v2.88h2.5v1.88h-2.5v4.9c0 .5.1.9.3 1.16.21.27.57.4 1.06.4.25 0 .47-.03.64-.1.19-.07.37-.16.56-.28v2.1a4.13 4.13 0 0 1-1.6.3c-.96 0-1.72-.27-2.28-.82a3.1 3.1 0 0 1-.84-2.3ZM199.69 32V21.8h2.04v1.5h.12c.27-.56.68-1 1.24-1.3a3.6 3.6 0 0 1 1.82-.48c.37 0 .65.03.84.08v2.16a3.6 3.6 0 0 0-1.08-.14c-.85 0-1.54.27-2.06.82-.5.55-.76 1.29-.76 2.22V32h-2.16Zm20.2.32a5.04 5.04 0 0 1-4.54-2.62 5.75 5.75 0 0 1-.65-2.78c0-.97.21-1.87.64-2.7a5.1 5.1 0 0 1 1.78-1.98c.77-.5 1.66-.76 2.66-.76a5 5 0 0 1 2.68.68 4.41 4.41 0 0 1 1.7 1.86 5.96 5.96 0 0 1 .54 3.34h-7.88a3.3 3.3 0 0 0 1.06 2.28c.61.5 1.3.76 2.08.76a3 3 0 0 0 1.72-.46c.45-.32.81-.71 1.08-1.18l1.78.86a5.52 5.52 0 0 1-1.8 1.96c-.76.5-1.71.74-2.84.74Zm-.1-9a2.7 2.7 0 0 0-1.83.66c-.51.44-.85 1.03-1.02 1.76h5.66c-.03-.35-.14-.7-.34-1.08a2.73 2.73 0 0 0-2.46-1.34Zm8.19-3.02c-.4 0-.75-.14-1.04-.42-.28-.3-.42-.64-.42-1.04s.14-.74.42-1.02c.3-.28.64-.42 1.04-.42s.74.14 1.02.42c.3.28.44.62.44 1.02s-.15.75-.44 1.04c-.28.28-.62.42-1.02.42ZM226.9 32V21.8h2.16V32h-2.16Zm4.84 0V21.8h2.04v1.5h.12c.23-.52.61-.95 1.16-1.28a3.36 3.36 0 0 1 2.5-.46c.2.04.38.09.54.14v2.24c-.25-.1-.51-.2-.78-.26-.25-.07-.52-.1-.8-.1-.5 0-.96.14-1.36.42-.39.27-.7.63-.92 1.1-.23.45-.34.95-.34 1.5V32h-2.16Zm10.88.32c-.74 0-1.39-.14-1.96-.42a3.3 3.3 0 0 1-1.82-3c0-.72.18-1.33.56-1.84.38-.52.9-.91 1.54-1.18.64-.27 1.34-.4 2.12-.4a6.97 6.97 0 0 1 2.8.56v-.54c0-.67-.24-1.2-.72-1.6a2.8 2.8 0 0 0-1.86-.6 3.2 3.2 0 0 0-1.48.36c-.47.23-.84.54-1.12.94l-1.48-1.14a4.5 4.5 0 0 1 1.74-1.44 5.38 5.38 0 0 1 2.4-.54c1.48 0 2.62.37 3.42 1.1.8.72 1.2 1.73 1.2 3.04V32h-2.1v-1.26h-.12a3.66 3.66 0 0 1-3.12 1.58Zm.38-1.76c.56 0 1.05-.13 1.48-.4a2.87 2.87 0 0 0 1.38-2.46c-.31-.17-.67-.31-1.08-.42a4.71 4.71 0 0 0-1.32-.18c-.88 0-1.51.18-1.88.54-.38.35-.56.77-.56 1.28 0 .48.18.87.54 1.18.36.3.84.46 1.44.46Zm16.36 1.76c-.92 0-1.75-.23-2.5-.68a5.1 5.1 0 0 1-1.76-1.92 6.07 6.07 0 0 1-.64-2.82c0-1.05.22-1.99.64-2.8a5.1 5.1 0 0 1 1.76-1.92c.75-.47 1.58-.7 2.5-.7.79 0 1.46.17 2.02.52.58.35 1 .74 1.26 1.18h.12l-.12-1.42v-4.08h2.14V32h-2.02v-1.36h-.12a3.6 3.6 0 0 1-1.26 1.18c-.56.33-1.23.5-2.02.5Zm.32-1.98a3.03 3.03 0 0 0 2.64-1.6c.3-.52.44-1.13.44-1.84 0-.7-.14-1.31-.44-1.82a3 3 0 0 0-2.64-1.62c-.53 0-1.03.14-1.5.42a3.2 3.2 0 0 0-1.14 1.2c-.3.5-.44 1.11-.44 1.82 0 .7.15 1.32.44 1.84.3.5.68.9 1.14 1.18.47.28.97.42 1.5.42Zm12.35 1.98a5.15 5.15 0 0 1-4.66-2.66 5.56 5.56 0 0 1-.68-2.76c0-1.01.23-1.93.68-2.74a5.1 5.1 0 0 1 4.66-2.68 5.11 5.11 0 0 1 4.64 2.68c.45.81.68 1.73.68 2.74 0 1.03-.23 1.95-.68 2.76a5.15 5.15 0 0 1-4.64 2.66Zm0-1.98c.56 0 1.08-.13 1.56-.4.48-.28.87-.67 1.16-1.18.3-.52.46-1.14.46-1.86a3.5 3.5 0 0 0-.46-1.84 3 3 0 0 0-1.16-1.18 3.15 3.15 0 0 0-4.32 1.18 3.6 3.6 0 0 0-.44 1.84c0 .72.15 1.34.44 1.86.3.5.7.9 1.18 1.18.5.27 1.02.4 1.58.4Zm18.73 1.98a7.55 7.55 0 0 1-5.28-2.12 7.6 7.6 0 0 1-1.65-2.38 7.62 7.62 0 0 1-.57-2.98 7.48 7.48 0 0 1 2.2-5.34 7.45 7.45 0 0 1 5.3-2.14c1.09 0 2.1.2 3.01.58a6.4 6.4 0 0 1 2.35 1.62l-1.52 1.5a4.72 4.72 0 0 0-1.69-1.2 5.34 5.34 0 0 0-2.16-.42 5.23 5.23 0 0 0-5.27 5.4c0 1.1.24 2.05.73 2.86.5.8 1.15 1.43 1.94 1.88.8.44 1.68.66 2.63.66.86 0 1.65-.16 2.36-.48a4.28 4.28 0 0 0 2.5-3.56h-4.9v-1.94h6.95c.08.36.13.74.13 1.14v.02c0 1.39-.31 2.6-.93 3.64a6.28 6.28 0 0 1-2.5 2.4 7.56 7.56 0 0 1-3.63.86Zm13.5 0a5.15 5.15 0 0 1-4.66-2.66 5.57 5.57 0 0 1-.69-2.76c0-1.01.23-1.93.69-2.74a5.11 5.11 0 0 1 4.65-2.68 5.1 5.1 0 0 1 4.64 2.68c.46.81.69 1.73.69 2.74 0 1.03-.23 1.95-.69 2.76a5.15 5.15 0 0 1-4.63 2.66Zm0-1.98c.56 0 1.07-.13 1.56-.4.48-.28.86-.67 1.16-1.18.3-.52.45-1.14.45-1.86 0-.72-.15-1.33-.45-1.84a3 3 0 0 0-1.17-1.18 3.15 3.15 0 0 0-4.32 1.18c-.29.5-.44 1.12-.44 1.84s.15 1.34.44 1.86c.31.5.7.9 1.19 1.18.49.27 1.01.4 1.57.4Zm12.1 1.98a5.15 5.15 0 0 1-4.66-2.66 5.56 5.56 0 0 1-.68-2.76c0-1.01.23-1.93.69-2.74a5.1 5.1 0 0 1 4.66-2.68 5.11 5.11 0 0 1 4.64 2.68c.45.81.68 1.73.68 2.74 0 1.03-.23 1.95-.69 2.76a5.15 5.15 0 0 1-4.63 2.66Zm0-1.98c.56 0 1.08-.13 1.56-.4.48-.28.87-.67 1.16-1.18.31-.52.47-1.14.47-1.86a3.5 3.5 0 0 0-.47-1.84 3 3 0 0 0-1.15-1.18 3.15 3.15 0 0 0-4.32 1.18 3.6 3.6 0 0 0-.44 1.84c0 .72.14 1.34.44 1.86.3.5.7.9 1.18 1.18.49.27 1.01.4 1.57.4Zm11.91 6.3c-.89 0-1.66-.15-2.32-.44a4.39 4.39 0 0 1-2.42-2.46l2-.84a2.88 2.88 0 0 0 2.74 1.82 2.9 2.9 0 0 0 2.2-.84c.55-.56.82-1.35.82-2.38v-.98h-.12c-.32.48-.76.87-1.34 1.16-.56.28-1.2.42-1.92.42-.86 0-1.66-.22-2.38-.66a4.92 4.92 0 0 1-1.74-1.84 5.72 5.72 0 0 1-.66-2.8c0-1.08.22-2.01.66-2.8a4.88 4.88 0 0 1 1.74-1.86 4.48 4.48 0 0 1 4.3-.22c.58.3 1.02.68 1.34 1.16h.12V21.8h2.06v9.66c0 1.1-.22 2.05-.66 2.82a4.27 4.27 0 0 1-1.78 1.76c-.76.4-1.64.6-2.64.6Zm.02-6.5c.54 0 1.03-.13 1.48-.38.46-.27.82-.65 1.1-1.14.28-.5.42-1.11.42-1.82 0-.73-.14-1.35-.42-1.84a2.84 2.84 0 0 0-2.58-1.52 2.98 2.98 0 0 0-2.6 1.52c-.28.5-.42 1.1-.42 1.84 0 .72.14 1.33.42 1.84a2.87 2.87 0 0 0 2.6 1.5ZM335.9 32V17.68h2.16V32h-2.16Zm9.27.32a5.04 5.04 0 0 1-4.54-2.62 5.75 5.75 0 0 1-.66-2.78c0-.97.21-1.87.64-2.7a5.11 5.11 0 0 1 1.78-1.98c.77-.5 1.66-.76 2.66-.76a5 5 0 0 1 2.68.68 4.4 4.4 0 0 1 1.7 1.86 5.95 5.95 0 0 1 .54 3.34h-7.88a3.3 3.3 0 0 0 1.06 2.28c.61.5 1.3.76 2.08.76a3 3 0 0 0 1.72-.46c.45-.32.81-.71 1.08-1.18l1.78.86a5.52 5.52 0 0 1-1.8 1.96c-.76.5-1.7.74-2.84.74Zm-.1-9c-.72 0-1.33.22-1.84.66-.5.44-.85 1.03-1.02 1.76h5.66c-.03-.35-.14-.7-.34-1.08a2.72 2.72 0 0 0-2.46-1.34Z" fill="#fff"/>
  <rect x=".5" y=".5" width="371" height="49" rx="24.5" stroke="#747775"/>
</svg>
