<svg width="404" height="50" fill="none" xmlns="http://www.w3.org/2000/svg">
  <defs>
    <linearGradient id="a" x1="34.57" y1="30.79" x2="18.73" y2="48.91" gradientUnits="userSpaceOnUse">
      <stop stop-color="#4285F4"/>
      <stop offset="1" stop-color="#1B74E8"/>
    </linearGradient>
  </defs>
  <rect x=".5" y=".5" width="403" height="49" rx="24.5" fill="#1F1F1F"/>
  <path d="M51 22H21v-5c0-2.71 2.2-5 4.82-5h20.36A4.97 4.97 0 0 1 51 17v5Z" fill="#34A853"/>
  <path d="M51 26.05H21v-5c0-2.71 2.2-5 4.82-5h20.36a4.97 4.97 0 0 1 4.82 5v5Z" fill="#FBBC04"/>
  <path d="M51 30.25H21v-5c0-2.72 2.2-5 4.82-5h20.36a4.97 4.97 0 0 1 4.82 5v5Z" fill="#EA4335"/>
  <path d="m21 23.28 19.04 4.4c2.2.55 4.66 0 6.44-1.38L51 23v10.32c0 2.62-2.2 4.68-4.8 4.68H25.8c-2.6 0-4.8-2.06-4.8-4.68V23.28Z" fill="url(#a)"/>
  <path d="M64.62 32V17.68h10.8V32h-2.2V19.76h-6.4V32h-2.2Zm13.4 4.32v-9.26c0-1.13.23-2.11.67-2.94a4.87 4.87 0 0 1 1.84-1.94c.78-.47 1.67-.7 2.66-.7 1.12 0 2.06.25 2.82.76.77.5 1.36 1.16 1.76 2 .4.83.6 1.72.6 2.68a5.8 5.8 0 0 1-.66 2.8 4.55 4.55 0 0 1-4.18 2.6 3.8 3.8 0 0 1-3.34-1.68h-.12l.12 1.4v4.28h-2.16Zm5.1-5.98a2.9 2.9 0 0 0 1.53-.42 3.4 3.4 0 0 0 1.58-2.98c0-.73-.16-1.36-.46-1.88a3.04 3.04 0 0 0-2.64-1.6c-.5 0-.98.13-1.44.4-.47.27-.86.66-1.16 1.18-.3.52-.46 1.17-.46 1.94 0 .64.14 1.22.42 1.74.28.5.65.9 1.12 1.2.46.28.97.42 1.52.42Zm12.03 1.98a5.15 5.15 0 0 1-4.66-2.66 5.57 5.57 0 0 1-.68-2.76c0-1.01.23-1.93.68-2.74a5.1 5.1 0 0 1 4.66-2.68 5.1 5.1 0 0 1 4.64 2.68c.46.81.68 1.73.68 2.74 0 1.03-.22 1.95-.68 2.76a5.15 5.15 0 0 1-4.64 2.66Zm0-1.98c.56 0 1.08-.13 1.56-.4.48-.28.87-.67 1.16-1.18.31-.52.46-1.14.46-1.86 0-.72-.15-1.33-.46-1.84a3 3 0 0 0-1.16-1.18 3.15 3.15 0 0 0-4.32 1.18c-.29.5-.44 1.12-.44 1.84s.15 1.34.44 1.86c.31.5.7.9 1.18 1.18.5.27 1.02.4 1.58.4Zm11.97 1.98a4.98 4.98 0 0 1-5.2-5.26c0-1.01.22-1.91.66-2.7a4.76 4.76 0 0 1 1.88-1.86c.83-.47 1.8-.7 2.92-.7h6.22v1.88h-1.18l-1.58-.14v.12c.47.36.84.82 1.12 1.38.28.56.42 1.21.42 1.96 0 1-.22 1.9-.66 2.7a5.04 5.04 0 0 1-4.6 2.62Zm.02-1.98c.55 0 1.06-.13 1.52-.38.47-.27.85-.65 1.14-1.14.3-.5.44-1.09.44-1.78a3.5 3.5 0 0 0-.44-1.82 3.07 3.07 0 0 0-2.66-1.56 3.07 3.07 0 0 0-2.66 1.56c-.28.5-.42 1.1-.42 1.82a3.11 3.11 0 0 0 1.56 2.92c.48.25.99.38 1.52.38Zm13.07 1.98a4.77 4.77 0 0 1-2.74-.8 5.36 5.36 0 0 1-1.82-2.46c-.43-1.1-.64-2.5-.64-4.16 0-1.65.21-3.03.64-4.12a5.23 5.23 0 0 1 1.82-2.44c.79-.55 1.7-.82 2.74-.82 1.04 0 1.95.27 2.72.82.79.53 1.4 1.35 1.84 2.44.44 1.1.66 2.47.66 4.12 0 1.67-.22 3.05-.66 4.16a5.3 5.3 0 0 1-1.84 2.46c-.77.53-1.68.8-2.72.8Zm0-12.82c-.5 0-.98.13-1.42.38-.43.25-.79.7-1.08 1.34-.3.64-.47 1.54-.54 2.7h6.08a7.47 7.47 0 0 0-.52-2.7 2.84 2.84 0 0 0-1.1-1.34 2.8 2.8 0 0 0-1.42-.38Zm0 10.84c.5 0 .98-.14 1.4-.42.44-.28.8-.75 1.08-1.4.3-.67.48-1.57.56-2.72h-6.06c.07 1.15.24 2.05.52 2.72.3.67.66 1.14 1.08 1.42.44.27.91.4 1.42.4Zm7.3 1.66V21.8h2.03v1.4h.12a3.82 3.82 0 0 1 3.22-1.72c1.26 0 2.2.37 2.82 1.12.63.75.94 1.73.94 2.96v10.76h-2.14V25.84c0-.83-.2-1.43-.62-1.8a2.27 2.27 0 0 0-1.62-.58c-.52 0-.97.15-1.36.44-.38.28-.7.65-.92 1.12-.21.47-.32.97-.32 1.5V32h-2.16Zm3.37-12.16.74-3.12h2.56l-1.48 3.12h-1.82ZM139.1 32V21.8h2.16v4.34l4.32-4.34h2.68v.12l-3.94 3.9 4.08 6.06V32h-2.56l-3.02-4.68-1.56 1.52V32h-2.16Zm10.65 0V21.8h2.04v1.4h.12a3.82 3.82 0 0 1 3.22-1.72c1.25 0 2.2.37 2.82 1.12.63.75.94 1.73.94 2.96v10.76h-2.14V25.84c0-.83-.2-1.43-.62-1.8a2.27 2.27 0 0 0-1.62-.58c-.52 0-.97.15-1.36.44-.39.28-.7.65-.92 1.12-.22.47-.32.97-.32 1.5V32h-2.16Zm20.93.32a4.98 4.98 0 0 1-5.2-5.26c0-1.01.22-1.91.66-2.7a4.76 4.76 0 0 1 1.88-1.86c.82-.47 1.8-.7 2.92-.7h6.22v1.88h-1.18l-1.58-.14v.12c.46.36.84.82 1.12 1.38.28.56.42 1.21.42 1.96 0 1-.22 1.9-.66 2.7a5.04 5.04 0 0 1-4.6 2.62Zm.02-1.98c.54 0 1.05-.13 1.52-.38.46-.27.84-.65 1.14-1.14.3-.5.44-1.09.44-1.78a3.5 3.5 0 0 0-.44-1.82 3.01 3.01 0 0 0-2.66-1.56 3.07 3.07 0 0 0-2.66 1.56c-.28.5-.42 1.1-.42 1.82a3.11 3.11 0 0 0 1.56 2.92c.48.25.98.38 1.52.38Zm13.99 1.82c-.94 0-1.7-.27-2.26-.8-.58-.53-.86-1.3-.86-2.3v-5.38h-3.26V21.8h9.24v1.88h-3.84v4.92c0 .52.1.9.32 1.16.22.25.58.38 1.06.38.25 0 .46-.03.64-.1.18-.08.36-.17.54-.28v2.1c-.48.2-1.01.3-1.58.3Zm9.5.16a5.15 5.15 0 0 1-4.66-2.66 5.56 5.56 0 0 1-.67-2.76c0-1.01.22-1.93.68-2.74a5.1 5.1 0 0 1 4.66-2.68 5.11 5.11 0 0 1 4.64 2.68c.45.81.68 1.73.68 2.74 0 1.03-.23 1.95-.68 2.76a5.15 5.15 0 0 1-4.64 2.66Zm0-1.98c.57 0 1.09-.13 1.57-.4.48-.28.86-.67 1.16-1.18.3-.52.46-1.14.46-1.86a3.5 3.5 0 0 0-.46-1.84 3 3 0 0 0-1.16-1.18 3.15 3.15 0 0 0-4.32 1.18 3.6 3.6 0 0 0-.44 1.84c0 .72.14 1.34.44 1.86.3.5.7.9 1.18 1.18.49.27 1.02.4 1.58.4ZM207.62 32V17.68h10.8V32h-2.2V19.76h-6.4V32h-2.2Zm18.29.32a5.15 5.15 0 0 1-4.66-2.66 5.56 5.56 0 0 1-.68-2.76c0-1.01.22-1.93.68-2.74a5.1 5.1 0 0 1 4.66-2.68 5.11 5.11 0 0 1 4.64 2.68c.45.81.68 1.73.68 2.74 0 1.03-.23 1.95-.68 2.76a5.15 5.15 0 0 1-4.64 2.66Zm0-1.98c.56 0 1.08-.13 1.56-.4.48-.28.86-.67 1.16-1.18.3-.52.46-1.14.46-1.86a3.5 3.5 0 0 0-.46-1.84 3 3 0 0 0-1.16-1.18 3.15 3.15 0 0 0-4.32 1.18 3.6 3.6 0 0 0-.44 1.84c0 .72.14 1.34.44 1.86.3.5.7.9 1.18 1.18.5.27 1.02.4 1.58.4Zm7.03 5.98v-9.26c0-1.13.22-2.11.66-2.94a4.87 4.87 0 0 1 1.84-1.94c.79-.47 1.68-.7 2.66-.7 1.12 0 2.06.25 2.82.76.78.5 1.36 1.16 1.76 2 .4.83.6 1.72.6 2.68a5.8 5.8 0 0 1-.66 2.8 4.55 4.55 0 0 1-4.18 2.6 3.8 3.8 0 0 1-3.34-1.68h-.12l.12 1.4v4.28h-2.16Zm5.1-5.98a2.9 2.9 0 0 0 1.52-.42 3.41 3.41 0 0 0 1.58-2.98c0-.73-.15-1.36-.46-1.88a3.05 3.05 0 0 0-2.64-1.6c-.5 0-.97.13-1.44.4s-.85.66-1.16 1.18c-.3.52-.46 1.17-.46 1.94 0 .64.14 1.22.42 1.74.28.5.66.9 1.12 1.2.47.28.97.42 1.52.42Zm12.71 1.82c-.93 0-1.68-.27-2.26-.8-.57-.53-.86-1.3-.86-2.3v-5.38h-3.26V21.8h9.24v1.88h-3.84v4.92c0 .52.1.9.32 1.16.23.25.58.38 1.06.38.26 0 .47-.03.64-.1.19-.08.37-.17.54-.28v2.1c-.48.2-1 .3-1.58.3Zm9.51.16a5.15 5.15 0 0 1-4.66-2.66 5.57 5.57 0 0 1-.68-2.76c0-1.01.23-1.93.68-2.74a5.1 5.1 0 0 1 4.66-2.68 5.1 5.1 0 0 1 4.64 2.68c.46.81.68 1.73.68 2.74 0 1.03-.22 1.95-.68 2.76a5.15 5.15 0 0 1-4.64 2.66Zm0-1.98c.56 0 1.08-.13 1.56-.4.48-.28.87-.67 1.16-1.18.31-.52.46-1.14.46-1.86 0-.72-.15-1.33-.46-1.84a3 3 0 0 0-1.16-1.18 3.15 3.15 0 0 0-4.32 1.18c-.29.5-.44 1.12-.44 1.84s.15 1.34.44 1.86c.31.5.7.9 1.18 1.18.5.27 1.02.4 1.58.4Zm6.77-3.44c0-.96.2-1.83.58-2.62a4.7 4.7 0 0 1 1.84-1.92c.83-.5 1.89-.82 3.18-.94v-2.5h2.16v2.5a7.2 7.2 0 0 1 3.16.94c.83.5 1.44 1.13 1.82 1.92.4.79.6 1.66.6 2.62 0 .92-.2 1.77-.6 2.56-.38.79-1 1.44-1.82 1.96-.82.52-1.88.84-3.16.96v3.94h-2.16v-3.94a7.16 7.16 0 0 1-3.18-.96 4.97 4.97 0 0 1-1.84-1.96 5.72 5.72 0 0 1-.58-2.56Zm11.2 0c0-1.01-.27-1.83-.82-2.46-.53-.64-1.4-1.03-2.62-1.16v7.24c1.2-.15 2.08-.55 2.62-1.2a3.7 3.7 0 0 0 .82-2.42Zm-9.04 0c0 .93.27 1.73.8 2.4.54.65 1.42 1.06 2.64 1.22v-7.24c-1.21.15-2.1.54-2.64 1.18-.53.63-.8 1.44-.8 2.44Zm17.97 5.42a5.15 5.15 0 0 1-4.66-2.66 5.56 5.56 0 0 1-.68-2.76c0-1.01.22-1.93.68-2.74a5.1 5.1 0 0 1 4.66-2.68 5.11 5.11 0 0 1 4.64 2.68c.45.81.68 1.73.68 2.74 0 1.03-.23 1.95-.68 2.76a5.15 5.15 0 0 1-4.64 2.66Zm0-1.98c.56 0 1.08-.13 1.56-.4.48-.28.86-.67 1.16-1.18.3-.52.46-1.14.46-1.86a3.5 3.5 0 0 0-.46-1.84 3 3 0 0 0-1.16-1.18 3.15 3.15 0 0 0-4.32 1.18 3.6 3.6 0 0 0-.44 1.84c0 .72.14 1.34.44 1.86.3.5.7.9 1.18 1.18.5.27 1.02.4 1.58.4Zm-.92-10.5.74-3.12h2.56l-1.48 3.12h-1.82ZM292.98 32l4.24-9.56-.74-1.58a2.81 2.81 0 0 0-.7-1.04 1.3 1.3 0 0 0-.86-.28c-.32 0-.63.09-.92.26v-2.1a4 4 0 0 1 .6-.12 4.06 4.06 0 0 1 2.08.18c.36.16.66.43.92.82.26.37.53.87.8 1.5L303.58 32h-2.36l-2.82-6.96h-.1L295.38 32h-2.4Zm14.86.16c-.96 0-1.72-.27-2.28-.82a3.1 3.1 0 0 1-.84-2.3V21.8h2.16v6.78c0 .5.1.9.32 1.16.21.27.56.4 1.04.4.25 0 .47-.03.64-.1.19-.07.37-.16.56-.28v2.1a4.13 4.13 0 0 1-1.6.3Zm14.86.16a7.54 7.54 0 0 1-6.92-4.5 7.6 7.6 0 0 1-.58-2.98 7.46 7.46 0 0 1 2.2-5.34 7.43 7.43 0 0 1 5.3-2.14c1.1 0 2.1.2 3.02.58.93.39 1.71.93 2.34 1.62l-1.52 1.5a4.74 4.74 0 0 0-1.68-1.2 5.34 5.34 0 0 0-2.16-.42 5.22 5.22 0 0 0-5.28 5.4c0 1.1.25 2.05.74 2.86.5.8 1.14 1.43 1.94 1.88a5.66 5.66 0 0 0 4.98.18 4.29 4.29 0 0 0 2.5-3.56h-4.9v-1.94h6.96c.08.36.12.74.12 1.14v.02c0 1.39-.3 2.6-.92 3.64a6.28 6.28 0 0 1-2.5 2.4 7.57 7.57 0 0 1-3.64.86Zm13.5 0a5.15 5.15 0 0 1-4.66-2.66 5.56 5.56 0 0 1-.68-2.76c0-1.01.23-1.93.68-2.74a5.1 5.1 0 0 1 4.66-2.68 5.11 5.11 0 0 1 4.64 2.68c.45.81.68 1.73.68 2.74 0 1.03-.23 1.95-.68 2.76a5.15 5.15 0 0 1-4.64 2.66Zm0-1.98c.56 0 1.08-.13 1.56-.4.48-.28.87-.67 1.16-1.18.3-.52.46-1.14.46-1.86a3.5 3.5 0 0 0-.46-1.84 3 3 0 0 0-1.16-1.18 3.15 3.15 0 0 0-4.32 1.18 3.6 3.6 0 0 0-.44 1.84c0 .72.15 1.34.44 1.86.3.5.7.9 1.18 1.18.5.27 1.02.4 1.58.4Zm12.11 1.98a5.15 5.15 0 0 1-4.66-2.66 5.57 5.57 0 0 1-.68-2.76c0-1.01.23-1.93.68-2.74a5.1 5.1 0 0 1 4.66-2.68 5.1 5.1 0 0 1 4.64 2.68c.45.81.68 1.73.68 2.74 0 1.03-.23 1.95-.68 2.76a5.15 5.15 0 0 1-4.64 2.66Zm0-1.98c.56 0 1.08-.13 1.56-.4.48-.28.87-.67 1.16-1.18.3-.52.46-1.14.46-1.86 0-.72-.15-1.33-.46-1.84a3 3 0 0 0-1.16-1.18 3.15 3.15 0 0 0-4.32 1.18c-.3.5-.44 1.12-.44 1.84s.15 1.34.44 1.86c.3.5.7.9 1.18 1.18.5.27 1.02.4 1.58.4Zm11.9 6.3c-.88 0-1.66-.15-2.31-.44a4.39 4.39 0 0 1-2.42-2.46l2-.84a2.89 2.89 0 0 0 2.74 1.82 2.9 2.9 0 0 0 2.2-.84c.55-.56.82-1.35.82-2.38v-.98h-.12c-.32.48-.77.87-1.34 1.16-.56.28-1.2.42-1.92.42-.87 0-1.66-.22-2.38-.66a4.92 4.92 0 0 1-1.74-1.84 5.72 5.72 0 0 1-.66-2.8c0-1.08.22-2.01.66-2.8a4.88 4.88 0 0 1 1.74-1.86 4.48 4.48 0 0 1 4.3-.22c.57.3 1.02.68 1.34 1.16h.12V21.8h2.06v9.66c0 1.1-.22 2.05-.66 2.82a4.27 4.27 0 0 1-1.78 1.76c-.76.4-1.64.6-2.64.6Zm.03-6.5c.53 0 1.03-.13 1.48-.38.45-.27.82-.65 1.1-1.14.28-.5.42-1.11.42-1.82 0-.73-.14-1.35-.42-1.84a2.83 2.83 0 0 0-2.58-1.52 2.98 2.98 0 0 0-2.6 1.52c-.28.5-.42 1.1-.42 1.84 0 .72.14 1.33.42 1.84a2.87 2.87 0 0 0 2.6 1.5Zm7.6 1.86V17.68h2.17V32h-2.16Zm9.28.32a5.06 5.06 0 0 1-4.54-2.62 5.75 5.75 0 0 1-.66-2.78c0-.97.2-1.87.63-2.7a5.11 5.11 0 0 1 1.78-1.98c.78-.5 1.67-.76 2.67-.76a5 5 0 0 1 2.68.68 4.4 4.4 0 0 1 1.7 1.86 5.95 5.95 0 0 1 .54 3.34h-7.88a3.3 3.3 0 0 0 1.06 2.28c.6.5 1.3.76 2.07.76a3 3 0 0 0 1.72-.46c.46-.32.82-.71 1.09-1.18l1.77.86a5.52 5.52 0 0 1-1.8 1.96c-.75.5-1.7.74-2.83.74Zm-.1-9c-.72 0-1.34.22-1.84.66-.51.44-.85 1.03-1.03 1.76h5.67c-.03-.35-.14-.7-.34-1.08a2.72 2.72 0 0 0-2.46-1.34Z" fill="#fff"/>
  <rect x=".5" y=".5" width="403" height="49" rx="24.5" stroke="#747775"/>
</svg>
