<svg width="321" height="50" fill="none" xmlns="http://www.w3.org/2000/svg">
  <defs>
    <linearGradient id="a" x1="34.57" y1="30.79" x2="18.73" y2="48.91" gradientUnits="userSpaceOnUse">
      <stop stop-color="#4285F4"/>
      <stop offset="1" stop-color="#1B74E8"/>
    </linearGradient>
  </defs>
  <rect x=".5" y=".5" width="320" height="49" rx="24.5" fill="#1F1F1F"/>
  <path d="M51 22H21v-5c0-2.71 2.2-5 4.82-5h20.36A4.97 4.97 0 0 1 51 17v5Z" fill="#34A853"/>
  <path d="M51 26.05H21v-5c0-2.71 2.2-5 4.82-5h20.36a4.97 4.97 0 0 1 4.82 5v5Z" fill="#FBBC04"/>
  <path d="M51 30.25H21v-5c0-2.72 2.2-5 4.82-5h20.36a4.97 4.97 0 0 1 4.82 5v5Z" fill="#EA4335"/>
  <path d="m21 23.28 19.04 4.4c2.2.55 4.66 0 6.44-1.38L51 23v10.32c0 2.62-2.2 4.68-4.8 4.68H25.8c-2.6 0-4.8-2.06-4.8-4.68V23.28Z" fill="url(#a)"/>
  <path d="M69.74 32.32a5 5 0 0 1-4.7-2.74 6.56 6.56 0 0 1-.68-3.08v-8.82h2.18v8.94c0 1.04.27 1.9.82 2.6.55.68 1.35 1.02 2.42 1.02 1 0 1.79-.31 2.36-.94.57-.63.86-1.52.86-2.68v-8.94h2.18l.02 8.76c0 .95-.16 1.8-.48 2.58l2.46 1.58-1.08 1.68-2.44-1.56c-.48.5-1.05.9-1.72 1.18-.67.28-1.4.42-2.2.42Zm15.4 4.42v-4.68l.12-1.38h-.12c-.3.47-.72.86-1.28 1.18-.56.3-1.17.46-1.84.46-1.21 0-2.13-.37-2.74-1.1a4.58 4.58 0 0 1-.92-3v-6.1h2.16v5.8c0 .83.2 1.44.58 1.84.39.39.87.58 1.44.58.53 0 1-.13 1.38-.4.39-.28.69-.64.9-1.08.21-.45.32-.95.32-1.48v-9.7h2.14v17.18h3.3v1.88h-5.44Zm8.28-4.42c-1.17 0-2.06-.37-2.68-1.1-.6-.75-.9-1.75-.9-3V17.68H92v4.44h6.62V24H92v3.92c0 .83.2 1.44.56 1.84.38.39.84.58 1.38.58.52 0 .97-.13 1.34-.4.38-.28.66-.64.86-1.08.22-.45.32-.95.32-1.48v-1.12h2.14V32h-2.02v-1.32h-.12c-.28.47-.69.86-1.24 1.18-.54.3-1.14.46-1.8.46Zm7.72 4.42V22.12h2.16v12.74h4.2v1.88h-6.36Zm8.03-4.42c-1.2 0-2.1-.36-2.68-1.08a4.5 4.5 0 0 1-.88-2.9v-6.22h2.14v5.86c0 .81.17 1.41.52 1.8.36.37.85.56 1.48.56.49 0 .92-.13 1.3-.4.37-.28.66-.65.86-1.12.2-.47.32-.99.32-1.56v-5.14h2.16v5.86c0 .81.17 1.41.52 1.8.36.37.86.56 1.52.56a2 2 0 0 0 1.26-.42c.37-.28.66-.65.86-1.12.2-.47.3-.99.3-1.56v-5.12H121V32h-2.04v-1.4h-.12a3.58 3.58 0 0 1-3.14 1.72c-.76 0-1.41-.18-1.94-.54a3.01 3.01 0 0 1-1.14-1.36 3.88 3.88 0 0 1-3.46 1.9Zm18.71 4.74a5.6 5.6 0 0 1-2.26-.42 4.56 4.56 0 0 1-1.54-1.08 3.92 3.92 0 0 1-.82-1.32l2-.84a2.75 2.75 0 0 0 2.62 1.76c.88 0 1.58-.27 2.1-.82.53-.53.8-1.3.8-2.28v-1.3h-.12c-.32.47-.75.84-1.3 1.12a4.37 4.37 0 0 1-4.14-.22 4.83 4.83 0 0 1-1.7-1.84 5.7 5.7 0 0 1-.64-2.76c0-1.05.21-1.97.64-2.76.43-.8 1-1.41 1.7-1.84a4.27 4.27 0 0 1 4.14-.22c.55.3.97.67 1.28 1.14h.12V22.1h2.06v9.92c0 1.07-.2 1.97-.62 2.72-.41.76-1 1.33-1.74 1.72-.75.4-1.6.6-2.58.6Zm.02-6.7c.5 0 .97-.13 1.4-.38.44-.27.8-.65 1.06-1.14.28-.5.42-1.09.42-1.78 0-.72-.14-1.33-.42-1.82a2.78 2.78 0 0 0-2.46-1.5c-.5 0-.98.13-1.42.4-.44.25-.8.63-1.06 1.12-.27.5-.4 1.1-.4 1.8s.13 1.3.4 1.8c.27.48.62.85 1.06 1.12.44.25.91.38 1.42.38Zm11.01 1.96c-1.2 0-2.12-.37-2.74-1.1a4.58 4.58 0 0 1-.92-3v-8.66h-2v-1.88h4.16v10.24c0 .83.2 1.44.58 1.84.4.39.87.58 1.44.58.54 0 1-.13 1.38-.4.4-.28.7-.64.9-1.08.22-.45.32-.95.32-1.48v-5.26h2.14V32h-2.02v-1.32h-.12c-.29.47-.72.86-1.28 1.18-.56.3-1.17.46-1.84.46Zm11.31 0c-1.17 0-2.07-.37-2.68-1.1-.6-.75-.9-1.75-.9-3V17.68h2.16v4.44h6.62V24h-6.62v3.92c0 .83.19 1.44.56 1.84.37.39.83.58 1.38.58.52 0 .97-.13 1.34-.4.37-.28.66-.64.86-1.08.21-.45.32-.95.32-1.48v-1.12h2.14V32h-2.02v-1.32h-.12c-.28.47-.7.86-1.24 1.18-.55.3-1.15.46-1.8.46Zm7.71 4.42V22.12h2.16v12.74h2.8v1.88h-4.96ZM177.4 32.32a7.54 7.54 0 0 1-5.28-2.12 7.6 7.6 0 0 1-1.64-2.38 7.6 7.6 0 0 1-.58-2.98 7.46 7.46 0 0 1 2.2-5.34 7.43 7.43 0 0 1 5.3-2.14c1.1 0 2.1.2 3.02.58.93.39 1.71.93 2.34 1.62l-1.52 1.5a4.74 4.74 0 0 0-1.68-1.2 5.34 5.34 0 0 0-2.16-.42 5.22 5.22 0 0 0-5.28 5.4c0 1.1.25 2.05.74 2.86.5.8 1.14 1.43 1.94 1.88a5.66 5.66 0 0 0 4.98.18 4.28 4.28 0 0 0 2.5-3.56h-4.9v-1.94h6.96c.08.36.12.74.12 1.14v.02c0 1.39-.3 2.6-.92 3.64a6.28 6.28 0 0 1-2.5 2.4 7.57 7.57 0 0 1-3.64.86Zm13.5 0a5.15 5.15 0 0 1-4.66-2.66 5.57 5.57 0 0 1-.68-2.76c0-1.01.23-1.93.68-2.74a5.1 5.1 0 0 1 4.66-2.68 5.1 5.1 0 0 1 4.64 2.68c.45.81.68 1.73.68 2.74 0 1.03-.23 1.95-.68 2.76a5.15 5.15 0 0 1-4.64 2.66Zm0-1.98c.56 0 1.08-.13 1.56-.4.48-.28.87-.67 1.16-1.18.3-.52.46-1.14.46-1.86 0-.72-.15-1.33-.46-1.84a3 3 0 0 0-1.16-1.18 3.15 3.15 0 0 0-4.32 1.18c-.3.5-.44 1.12-.44 1.84s.15 1.34.44 1.86c.3.5.7.9 1.18 1.18.5.27 1.02.4 1.58.4Zm12.1 1.98a5.15 5.15 0 0 1-4.66-2.66 5.57 5.57 0 0 1-.67-2.76c0-1.01.23-1.93.68-2.74a5.11 5.11 0 0 1 4.66-2.68 5.1 5.1 0 0 1 4.64 2.68c.45.81.68 1.73.68 2.74 0 1.03-.23 1.95-.68 2.76a5.15 5.15 0 0 1-4.64 2.66Zm0-1.98c.57 0 1.09-.13 1.57-.4.48-.28.87-.67 1.16-1.18.3-.52.46-1.14.46-1.86 0-.72-.15-1.33-.46-1.84a3 3 0 0 0-1.16-1.18 3.15 3.15 0 0 0-4.32 1.18c-.3.5-.44 1.12-.44 1.84s.15 1.34.44 1.86c.3.5.7.9 1.18 1.18.5.27 1.02.4 1.58.4Zm11.92 6.3c-.9 0-1.67-.15-2.32-.44a4.39 4.39 0 0 1-2.42-2.46l2-.84a2.88 2.88 0 0 0 2.74 1.82 2.9 2.9 0 0 0 2.2-.84c.54-.56.82-1.35.82-2.38v-.98h-.12c-.32.48-.77.87-1.34 1.16-.56.28-1.2.42-1.92.42-.87 0-1.66-.22-2.38-.66a4.92 4.92 0 0 1-1.74-1.84 5.72 5.72 0 0 1-.66-2.8c0-1.08.22-2.01.66-2.8a4.88 4.88 0 0 1 1.74-1.86 4.48 4.48 0 0 1 4.3-.22c.57.3 1.02.68 1.34 1.16h.12V21.8H220v9.66c0 1.1-.22 2.05-.66 2.82a4.27 4.27 0 0 1-1.78 1.76c-.76.4-1.64.6-2.64.6Zm.02-6.5c.53 0 1.03-.13 1.48-.38.45-.27.82-.65 1.1-1.14.28-.5.42-1.11.42-1.82 0-.73-.14-1.35-.42-1.84a2.84 2.84 0 0 0-2.58-1.52 2.97 2.97 0 0 0-2.6 1.52c-.28.5-.42 1.1-.42 1.84 0 .72.14 1.33.42 1.84a2.86 2.86 0 0 0 2.6 1.5Zm7.6 1.86V17.68h2.17V32h-2.16Zm9.28.32a5.04 5.04 0 0 1-4.54-2.62 5.75 5.75 0 0 1-.66-2.78c0-.97.2-1.87.63-2.7a5.1 5.1 0 0 1 1.78-1.98c.78-.5 1.66-.76 2.66-.76a5 5 0 0 1 2.69.68 4.41 4.41 0 0 1 1.7 1.86 5.96 5.96 0 0 1 .53 3.34h-7.88a3.3 3.3 0 0 0 1.06 2.28c.62.5 1.31.76 2.09.76a3 3 0 0 0 1.72-.46c.45-.32.8-.71 1.08-1.18l1.78.86a5.52 5.52 0 0 1-1.8 1.96c-.76.5-1.71.74-2.84.74Zm-.1-9a2.7 2.7 0 0 0-1.84.66c-.51.44-.85 1.03-1.03 1.76h5.66c-.02-.35-.13-.7-.33-1.08a2.73 2.73 0 0 0-2.46-1.34ZM245.44 32l-3.84-14.32h2.44l2.28 9.3.24 1.24h.12l.3-1.24 2.88-9.3h2.2l2.76 9.3.3 1.22h.12l.24-1.22 2.28-9.3h2.42L256.4 32h-2.32l-2.74-9.5-.32-1.34h-.12l-.34 1.34-2.86 9.5h-2.26Zm18.75.32c-.73 0-1.38-.14-1.96-.42a3.3 3.3 0 0 1-1.82-3c0-.72.19-1.33.56-1.84.39-.52.9-.91 1.54-1.18.64-.27 1.35-.4 2.12-.4a6.97 6.97 0 0 1 2.8.56v-.54c0-.67-.24-1.2-.72-1.6a2.8 2.8 0 0 0-1.86-.6 3.2 3.2 0 0 0-1.48.36c-.46.23-.84.54-1.12.94l-1.48-1.14a4.5 4.5 0 0 1 1.74-1.44 5.38 5.38 0 0 1 2.4-.54c1.48 0 2.62.37 3.42 1.1.8.72 1.2 1.73 1.2 3.04V32h-2.1v-1.26h-.12a3.66 3.66 0 0 1-3.12 1.58Zm.38-1.76c.56 0 1.06-.13 1.48-.4a2.87 2.87 0 0 0 1.38-2.46c-.3-.17-.66-.31-1.08-.42a4.71 4.71 0 0 0-1.32-.18c-.88 0-1.5.18-1.88.54-.37.35-.56.77-.56 1.28 0 .48.18.87.54 1.18.36.3.84.46 1.44.46Zm7.36 1.44V17.68h2.16V32h-2.16Zm4.73 0V17.68h2.16V32h-2.16Zm9.27.32a5.04 5.04 0 0 1-4.54-2.62 5.75 5.75 0 0 1-.66-2.78c0-.97.2-1.87.64-2.7a5.1 5.1 0 0 1 1.78-1.98c.77-.5 1.66-.76 2.66-.76a5 5 0 0 1 2.68.68 4.41 4.41 0 0 1 1.7 1.86 5.96 5.96 0 0 1 .54 3.34h-7.88a3.3 3.3 0 0 0 1.06 2.28c.6.5 1.3.76 2.08.76a3 3 0 0 0 1.72-.46c.45-.32.8-.71 1.08-1.18l1.78.86a5.52 5.52 0 0 1-1.8 1.96c-.76.5-1.71.74-2.84.74Zm-.1-9a2.7 2.7 0 0 0-1.84.66c-.51.44-.85 1.03-1.02 1.76h5.66c-.03-.35-.14-.7-.34-1.08a2.73 2.73 0 0 0-2.46-1.34Zm7.73 5.72v-5.36h-1.78V21.8h1.78v-2.88h2.16v2.88h2.5v1.88h-2.5v4.9c0 .5.1.9.3 1.16.21.27.56.4 1.06.4.25 0 .46-.03.64-.1s.37-.16.56-.28v2.1a4.13 4.13 0 0 1-1.62.3 3.1 3.1 0 0 1-2.26-.82 3.1 3.1 0 0 1-.84-2.3Z" fill="#fff"/>
  <rect x=".5" y=".5" width="320" height="49" rx="24.5" stroke="#747775"/>
</svg>
