<svg width="292" height="50" fill="none" xmlns="http://www.w3.org/2000/svg">
  <defs>
    <linearGradient id="a" x1="34.57" y1="30.79" x2="18.73" y2="48.91" gradientUnits="userSpaceOnUse">
      <stop stop-color="#4285F4"/>
      <stop offset="1" stop-color="#1B74E8"/>
    </linearGradient>
  </defs>
  <rect x=".5" y=".5" width="291" height="49" rx="24.5" fill="#1F1F1F"/>
  <path d="M51 22H21v-5c0-2.71 2.2-5 4.82-5h20.36A4.97 4.97 0 0 1 51 17v5Z" fill="#34A853"/>
  <path d="M51 26.05H21v-5c0-2.71 2.2-5 4.82-5h20.36a4.97 4.97 0 0 1 4.82 5v5Z" fill="#FBBC04"/>
  <path d="M51 30.25H21v-5c0-2.72 2.2-5 4.82-5h20.36a4.97 4.97 0 0 1 4.82 5v5Z" fill="#EA4335"/>
  <path d="m21 23.28 19.04 4.4c2.2.55 4.66 0 6.44-1.38L51 23v10.32c0 2.62-2.2 4.68-4.8 4.68H25.8c-2.6 0-4.8-2.06-4.8-4.68V23.28Z" fill="url(#a)"/>
  <path d="M64.62 32V17.68h5.36c.77 0 1.48.17 2.12.5.65.33 1.17.79 1.54 1.36.39.57.58 1.22.58 1.94 0 .73-.19 1.36-.56 1.88-.36.52-.82.91-1.38 1.18v.1c.72.25 1.3.67 1.76 1.26.45.57.68 1.27.68 2.08 0 .8-.2 1.5-.62 2.12-.4.6-.95 1.07-1.64 1.4-.68.33-1.43.5-2.24.5h-5.6Zm5.34-12.3h-3.14v4h3.06a2.04 2.04 0 0 0 2.2-2.02c0-.5-.19-.95-.56-1.36a2 2 0 0 0-1.56-.62Zm-3.14 10.26h3.4c.72 0 1.28-.21 1.68-.64a2.13 2.13 0 0 0 0-3c-.41-.44-1-.66-1.76-.66h-3.32v4.3Zm13.26 2.36c-.77 0-1.45-.14-2.04-.42-.57-.3-1.03-.7-1.36-1.22a3.33 3.33 0 0 1-.48-1.78c0-.72.19-1.33.56-1.84.39-.52.9-.91 1.54-1.18a6.73 6.73 0 0 1 3.78-.22c.48.12.85.25 1.12.4v-.5c0-.7-.23-1.24-.68-1.64a2.52 2.52 0 0 0-1.8-.62c-.52 0-.97.12-1.34.36-.37.24-.65.55-.84.94l-1.7-.8c.35-.75.87-1.32 1.58-1.72.7-.4 1.48-.6 2.32-.6.92 0 1.7.16 2.32.48.64.3 1.15.75 1.52 1.32.41-.56.93-1 1.54-1.3a4.55 4.55 0 0 1 2.1-.48 5 5 0 0 1 2.68.68 4.4 4.4 0 0 1 1.7 1.86 5.82 5.82 0 0 1 .54 3.32h-7.86c.08.75.27 1.34.58 1.78.32.44.7.76 1.16.96a3.43 3.43 0 0 0 3.1-.16c.45-.32.81-.71 1.08-1.18l1.78.86a5.52 5.52 0 0 1-1.8 1.96c-.76.5-1.7.74-2.82.74a4.74 4.74 0 0 1-4.22-2.36 5.42 5.42 0 0 1-1.82 1.8c-.65.37-1.4.56-2.24.56Zm8.16-8.98c-.63 0-1.22.19-1.78.56-.56.37-.93.99-1.12 1.84h5.68a2.74 2.74 0 0 0-1.24-2.02c-.4-.25-.91-.38-1.54-.38Zm-7.88 7.22c.56 0 1.05-.13 1.48-.4a2.87 2.87 0 0 0 1.36-2.46c-.7-.4-1.49-.6-2.38-.6-.88 0-1.5.18-1.88.54-.37.35-.56.77-.56 1.28 0 .48.18.87.54 1.18.36.3.84.46 1.44.46Zm15.6-1.52v-5.36H94.2V21.8h1.78v-2.88h2.16v2.88h2.5v1.88h-2.5v4.9c0 .5.1.9.3 1.16.2.27.56.4 1.05.4.26 0 .47-.03.64-.1.2-.07.38-.16.56-.28v2.1a4.13 4.13 0 0 1-1.62.3 3.1 3.1 0 0 1-2.25-.82 3.1 3.1 0 0 1-.84-2.3Zm9.74 3.28c-.73 0-1.38-.14-1.96-.42a3.3 3.3 0 0 1-1.82-3c0-.72.19-1.33.56-1.84.39-.52.9-.91 1.54-1.18.64-.27 1.35-.4 2.12-.4a6.97 6.97 0 0 1 2.8.56v-.54c0-.67-.24-1.2-.72-1.6a2.8 2.8 0 0 0-1.86-.6 3.2 3.2 0 0 0-1.48.36c-.46.23-.84.54-1.12.94l-1.48-1.14a4.5 4.5 0 0 1 1.74-1.44 5.38 5.38 0 0 1 2.4-.54c1.48 0 2.62.37 3.42 1.1.8.72 1.2 1.73 1.2 3.04V32h-2.1v-1.26h-.12a3.66 3.66 0 0 1-3.12 1.58Zm.38-1.76c.56 0 1.06-.13 1.48-.4a2.87 2.87 0 0 0 1.38-2.46c-.3-.17-.66-.31-1.08-.42a4.71 4.71 0 0 0-1.32-.18c-.88 0-1.5.18-1.88.54-.37.35-.56.77-.56 1.28 0 .48.18.87.54 1.18.36.3.84.46 1.44.46Zm15.1 1.44-4.21-10.2h2.4l2.86 7.42h.1l2.92-7.42h2.36L123.35 32h-2.16Zm9.07-11.7c-.4 0-.75-.14-1.04-.42-.28-.3-.42-.64-.42-1.04s.14-.74.42-1.02c.29-.28.64-.42 1.04-.42s.74.14 1.02.42a1.42 1.42 0 0 1 0 2.06c-.28.28-.62.42-1.02.42ZM129.17 32V21.8h2.16V32h-2.16Zm9.46.32c-.92 0-1.76-.23-2.5-.68a5.09 5.09 0 0 1-2.46-4.42 4.98 4.98 0 0 1 4.76-5.04c.58 0 1.09.1 1.52.32.42.2.74.4.96.62l.12-.08c-.15-.41-.4-.8-.72-1.18a6.2 6.2 0 0 0-1.14-1.06l-2.42 1.08-.6-1.42 1.44-.64c-.72-.36-1.41-.6-2.06-.72l.68-1.7a9.91 9.91 0 0 1 3.48 1.5l2.02-.9.6 1.4-1.28.58a8.97 8.97 0 0 1 1.92 2.86c.49 1.13.74 2.46.74 3.98 0 1.1-.22 2.07-.66 2.9a4.85 4.85 0 0 1-1.78 1.92c-.76.45-1.64.68-2.62.68Zm.02-1.98a2.8 2.8 0 0 0 1.46-.38 2.9 2.9 0 0 0 1.02-1.1c.26-.47.4-1.01.4-1.64a3.16 3.16 0 0 0-1.42-2.7c-.43-.27-.91-.4-1.44-.4-.54 0-1.02.13-1.46.4a2.9 2.9 0 0 0-1.04 1.08c-.26.47-.38 1-.38 1.62a3.06 3.06 0 0 0 1.42 2.74c.44.25.92.38 1.44.38ZM158.4 32.32a7.54 7.54 0 0 1-5.28-2.12 7.6 7.6 0 0 1-1.64-2.38 7.6 7.6 0 0 1-.58-2.98 7.46 7.46 0 0 1 2.2-5.34 7.43 7.43 0 0 1 5.3-2.14c1.1 0 2.1.2 3.02.58.93.39 1.71.93 2.34 1.62l-1.52 1.5a4.74 4.74 0 0 0-1.68-1.2 5.34 5.34 0 0 0-2.16-.42 5.22 5.22 0 0 0-5.28 5.4c0 1.1.25 2.05.74 2.86.5.8 1.14 1.43 1.94 1.88a5.66 5.66 0 0 0 4.98.18 4.28 4.28 0 0 0 2.5-3.56h-4.9v-1.94h6.96c.08.36.12.74.12 1.14v.02c0 1.39-.3 2.6-.92 3.64a6.28 6.28 0 0 1-2.5 2.4 7.57 7.57 0 0 1-3.64.86Zm13.5 0a5.15 5.15 0 0 1-4.66-2.66 5.57 5.57 0 0 1-.68-2.76c0-1.01.23-1.93.68-2.74a5.1 5.1 0 0 1 4.66-2.68 5.1 5.1 0 0 1 4.64 2.68c.45.81.68 1.73.68 2.74 0 1.03-.23 1.95-.68 2.76a5.15 5.15 0 0 1-4.64 2.66Zm0-1.98c.56 0 1.08-.13 1.56-.4.48-.28.87-.67 1.16-1.18.3-.52.46-1.14.46-1.86 0-.72-.15-1.33-.46-1.84a3 3 0 0 0-1.16-1.18 3.15 3.15 0 0 0-4.32 1.18c-.3.5-.44 1.12-.44 1.84s.15 1.34.44 1.86c.3.5.7.9 1.18 1.18.5.27 1.02.4 1.58.4Zm12.1 1.98a5.15 5.15 0 0 1-4.66-2.66 5.57 5.57 0 0 1-.67-2.76c0-1.01.23-1.93.68-2.74a5.11 5.11 0 0 1 4.66-2.68 5.1 5.1 0 0 1 4.64 2.68c.45.81.68 1.73.68 2.74 0 1.03-.23 1.95-.68 2.76a5.15 5.15 0 0 1-4.64 2.66Zm0-1.98c.57 0 1.09-.13 1.57-.4.48-.28.87-.67 1.16-1.18.3-.52.46-1.14.46-1.86 0-.72-.15-1.33-.46-1.84a3 3 0 0 0-1.16-1.18 3.15 3.15 0 0 0-4.32 1.18c-.3.5-.44 1.12-.44 1.84s.15 1.34.44 1.86c.3.5.7.9 1.18 1.18.5.27 1.02.4 1.58.4Zm11.92 6.3c-.9 0-1.67-.15-2.32-.44a4.39 4.39 0 0 1-2.42-2.46l2-.84a2.88 2.88 0 0 0 2.74 1.82 2.9 2.9 0 0 0 2.2-.84c.54-.56.82-1.35.82-2.38v-.98h-.12c-.32.48-.77.87-1.34 1.16-.56.28-1.2.42-1.92.42-.87 0-1.66-.22-2.38-.66a4.92 4.92 0 0 1-1.74-1.84 5.72 5.72 0 0 1-.66-2.8c0-1.08.22-2.01.66-2.8a4.88 4.88 0 0 1 1.74-1.86 4.48 4.48 0 0 1 4.3-.22c.57.3 1.02.68 1.34 1.16h.12V21.8H201v9.66c0 1.1-.22 2.05-.66 2.82a4.27 4.27 0 0 1-1.78 1.76c-.76.4-1.64.6-2.64.6Zm.02-6.5c.53 0 1.03-.13 1.48-.38.45-.27.82-.65 1.1-1.14.28-.5.42-1.11.42-1.82 0-.73-.14-1.35-.42-1.84a2.84 2.84 0 0 0-2.58-1.52 2.97 2.97 0 0 0-2.6 1.52c-.28.5-.42 1.1-.42 1.84 0 .72.14 1.33.42 1.84a2.86 2.86 0 0 0 2.6 1.5Zm7.6 1.86V17.68h2.17V32h-2.16Zm9.28.32a5.04 5.04 0 0 1-4.54-2.62 5.75 5.75 0 0 1-.66-2.78c0-.97.2-1.87.63-2.7a5.1 5.1 0 0 1 1.78-1.98c.78-.5 1.66-.76 2.66-.76a5 5 0 0 1 2.69.68 4.41 4.41 0 0 1 1.7 1.86 5.96 5.96 0 0 1 .53 3.34h-7.88a3.3 3.3 0 0 0 1.06 2.28c.62.5 1.31.76 2.09.76a3 3 0 0 0 1.72-.46c.45-.32.8-.71 1.08-1.18l1.78.86a5.52 5.52 0 0 1-1.8 1.96c-.76.5-1.71.74-2.84.74Zm-.1-9a2.7 2.7 0 0 0-1.84.66c-.51.44-.85 1.03-1.03 1.76h5.66c-.02-.35-.13-.7-.33-1.08a2.73 2.73 0 0 0-2.46-1.34Zm14.7 8.68-4.21-10.2h2.4l2.86 7.42h.1l2.92-7.42h2.36L229.59 32h-2.16Zm12.2.32a5.06 5.06 0 0 1-4.54-2.62 5.75 5.75 0 0 1-.67-2.78c0-.97.22-1.87.64-2.7a5.11 5.11 0 0 1 1.78-1.98c.77-.5 1.66-.76 2.66-.76a5 5 0 0 1 2.68.68 4.4 4.4 0 0 1 1.7 1.86 5.95 5.95 0 0 1 .54 3.34h-7.88a3.3 3.3 0 0 0 1.06 2.28c.62.5 1.3.76 2.08.76a3 3 0 0 0 1.72-.46c.46-.32.82-.71 1.08-1.18l1.78.86a5.52 5.52 0 0 1-1.8 1.96c-.76.5-1.7.74-2.84.74Zm-.1-9c-.73 0-1.34.22-1.85.66-.5.44-.84 1.03-1.02 1.76h5.66c-.03-.35-.14-.7-.34-1.08a2.72 2.72 0 0 0-2.46-1.34Zm10.75 9a4.9 4.9 0 0 1-2.94-.8 4.3 4.3 0 0 1-1.52-1.94l1.94-.84c.24.55.59.97 1.04 1.26.46.28.97.42 1.54.42.54 0 1-.1 1.38-.28a1 1 0 0 0 .58-.96 1 1 0 0 0-.58-.94c-.38-.2-.86-.37-1.44-.52l-1.22-.28c-.49-.12-.95-.3-1.38-.56a3.18 3.18 0 0 1-1.04-.98 2.6 2.6 0 0 1-.4-1.44c0-.6.18-1.12.54-1.56.36-.45.84-.8 1.42-1.04.6-.25 1.25-.38 1.94-.38.95 0 1.78.19 2.48.56.72.36 1.25.9 1.58 1.64l-1.86.84a2 2 0 0 0-.94-.94 2.73 2.73 0 0 0-1.24-.28c-.5 0-.93.1-1.28.32-.33.21-.5.48-.5.8 0 .35.15.62.44.82.31.2.68.36 1.12.48l1.48.36c1.02.25 1.78.64 2.28 1.16.51.5.76 1.13.76 1.86 0 .65-.18 1.23-.56 1.72-.37.48-.88.85-1.52 1.12-.62.25-1.32.38-2.1.38Zm6.07-.32V17.68h2.16v8.44l4.32-4.32h2.68v.12l-3.94 3.9 4.08 6.06V32h-2.56l-3.04-4.68-1.54 1.52V32h-2.16Zm11.88-11.7c-.4 0-.74-.14-1.04-.42-.28-.3-.42-.64-.42-1.04s.14-.74.42-1.02c.3-.28.64-.42 1.04-.42s.74.14 1.02.42c.3.28.44.62.44 1.02s-.14.75-.44 1.04c-.28.28-.62.42-1.02.42ZM267.14 32V21.8h2.16V32h-2.16Z" fill="#fff"/>
  <rect x=".5" y=".5" width="291" height="49" rx="24.5" stroke="#747775"/>
</svg>
