<svg width="363" height="50" fill="none" xmlns="http://www.w3.org/2000/svg">
  <defs>
    <linearGradient id="a" x1="34.57" y1="30.79" x2="18.73" y2="48.91" gradientUnits="userSpaceOnUse">
      <stop stop-color="#4285F4"/>
      <stop offset="1" stop-color="#1B74E8"/>
    </linearGradient>
  </defs>
  <rect x=".5" y=".5" width="362" height="49" rx="24.5" fill="#1F1F1F"/>
  <path d="M51 22H21v-5c0-2.71 2.2-5 4.82-5h20.36A4.97 4.97 0 0 1 51 17v5Z" fill="#34A853"/>
  <path d="M51 26.05H21v-5c0-2.71 2.2-5 4.82-5h20.36a4.97 4.97 0 0 1 4.82 5v5Z" fill="#FBBC04"/>
  <path d="M51 30.25H21v-5c0-2.72 2.2-5 4.82-5h20.36a4.97 4.97 0 0 1 4.82 5v5Z" fill="#EA4335"/>
  <path d="m21 23.28 19.04 4.4c2.2.55 4.66 0 6.44-1.38L51 23v10.32c0 2.62-2.2 4.68-4.8 4.68H25.8c-2.6 0-4.8-2.06-4.8-4.68V23.28Z" fill="url(#a)"/>
  <path d="M71.4 32.32a7.54 7.54 0 0 1-5.28-2.12 7.6 7.6 0 0 1-1.64-2.38 7.61 7.61 0 0 1-.58-2.98 7.47 7.47 0 0 1 2.2-5.34 7.44 7.44 0 0 1 5.3-2.14c1.1 0 2.1.2 3.02.58a6.4 6.4 0 0 1 2.34 1.62l-1.52 1.5a4.73 4.73 0 0 0-1.68-1.2 5.34 5.34 0 0 0-2.16-.42 5.22 5.22 0 0 0-5.28 5.4c0 1.1.25 2.05.74 2.86.5.8 1.14 1.43 1.94 1.88a5.66 5.66 0 0 0 4.98.18 4.28 4.28 0 0 0 2.5-3.56h-4.9v-1.94h6.96c.08.36.12.74.12 1.14v.02c0 1.39-.3 2.6-.92 3.64a6.28 6.28 0 0 1-2.5 2.4 7.57 7.57 0 0 1-3.64.86Zm13.5 0a5.15 5.15 0 0 1-4.66-2.66 5.57 5.57 0 0 1-.68-2.76c0-1.01.23-1.93.68-2.74a5.1 5.1 0 0 1 4.66-2.68 5.1 5.1 0 0 1 4.64 2.68c.45.81.68 1.73.68 2.74 0 1.03-.23 1.95-.68 2.76a5.15 5.15 0 0 1-4.64 2.66Zm0-1.98c.56 0 1.08-.13 1.56-.4.48-.28.87-.67 1.16-1.18.3-.52.46-1.14.46-1.86 0-.72-.15-1.33-.46-1.84a3 3 0 0 0-1.16-1.18 3.15 3.15 0 0 0-4.32 1.18c-.3.5-.44 1.12-.44 1.84s.15 1.34.44 1.86c.3.5.7.9 1.18 1.18.5.27 1.02.4 1.58.4ZM97 32.32a5.15 5.15 0 0 1-4.66-2.66 5.57 5.57 0 0 1-.67-2.76c0-1.01.23-1.93.68-2.74A5.1 5.1 0 0 1 97 21.48a5.1 5.1 0 0 1 4.64 2.68c.45.81.68 1.73.68 2.74 0 1.03-.23 1.95-.68 2.76A5.15 5.15 0 0 1 97 32.32Zm0-1.98c.57 0 1.09-.13 1.57-.4.48-.28.87-.67 1.16-1.18.3-.52.46-1.14.46-1.86 0-.72-.15-1.33-.46-1.84a3 3 0 0 0-1.16-1.18 3.15 3.15 0 0 0-4.32 1.18c-.3.5-.44 1.12-.44 1.84s.15 1.34.44 1.86c.3.5.7.9 1.18 1.18.5.27 1.02.4 1.58.4Zm11.92 6.3c-.9 0-1.67-.15-2.32-.44a4.39 4.39 0 0 1-2.42-2.46l2-.84a2.88 2.88 0 0 0 2.74 1.82 2.9 2.9 0 0 0 2.2-.84c.55-.56.82-1.35.82-2.38v-.98h-.12c-.32.48-.77.87-1.34 1.16-.56.28-1.2.42-1.92.42-.87 0-1.66-.22-2.38-.66a4.92 4.92 0 0 1-1.74-1.84 5.72 5.72 0 0 1-.66-2.8c0-1.08.22-2.01.66-2.8a4.88 4.88 0 0 1 1.74-1.86 4.48 4.48 0 0 1 4.3-.22c.57.3 1.02.68 1.34 1.16h.12V21.8H114v9.66c0 1.1-.22 2.05-.66 2.82a4.27 4.27 0 0 1-1.78 1.76c-.76.4-1.64.6-2.64.6Zm.02-6.5c.53 0 1.03-.13 1.48-.38.45-.27.82-.65 1.1-1.14.28-.5.42-1.11.42-1.82 0-.73-.14-1.35-.42-1.84a2.84 2.84 0 0 0-2.58-1.52 2.97 2.97 0 0 0-2.6 1.52c-.28.5-.42 1.1-.42 1.84 0 .72.14 1.33.42 1.84a2.86 2.86 0 0 0 2.6 1.5Zm7.6 1.86V17.68h2.17V32h-2.16Zm9.27.32a5.04 5.04 0 0 1-4.54-2.62 5.75 5.75 0 0 1-.66-2.78c0-.97.22-1.87.64-2.7a5.1 5.1 0 0 1 1.78-1.98c.78-.5 1.66-.76 2.66-.76a5 5 0 0 1 2.69.68 4.41 4.41 0 0 1 1.7 1.86 5.96 5.96 0 0 1 .53 3.34h-7.88a3.3 3.3 0 0 0 1.06 2.28c.62.5 1.31.76 2.08.76a3 3 0 0 0 1.72-.46c.46-.32.82-.71 1.09-1.18l1.78.86a5.52 5.52 0 0 1-1.8 1.96c-.77.5-1.71.74-2.84.74Zm-.1-9a2.7 2.7 0 0 0-1.83.66c-.51.44-.85 1.03-1.02 1.76h5.65c-.02-.35-.13-.7-.33-1.08a2.73 2.73 0 0 0-2.46-1.34ZM146.88 16h-1.9c.08.62.1 1.08.1 1.5v2.66h1.7V17.5c0-.42.02-.88.1-1.5Zm6.82 3.88-1.08-.68c-.26.08-.62.16-1.36.16h-10.6c-.7 0-1.3-.04-1.88-.08.08.42.08 1.1.08 1.52v3.52c0 .4-.02.94-.08 1.28h1.74c-.04-.3-.06-.84-.06-1.18v-3.58h11.16a14.7 14.7 0 0 1-1.88 5.82 10.75 10.75 0 0 1-5.44 4.04c-.64.24-1.4.44-2.06.56l1.3 1.48c3.66-1 6.42-3.04 7.9-5.66 1.12-1.9 1.7-4.4 1.98-6 .06-.38.18-.92.28-1.2Zm15.4-.1h-1.7c.08.44.12.96.12 1.36.08 1.76.18 7.76.18 10.12 0 .38-.18.6-.56.6-.58 0-1.62-.08-2.44-.2l.1 1.48c.78.04 2.1.1 2.88.1.88 0 1.52-.5 1.52-1.36-.04-2.9-.14-8.98-.18-10.74 0-.46 0-.94.08-1.36Zm-9.02 2.88v1.6c.48-.04 1-.06 1.52-.06h10.38c.38 0 .94.02 1.28.04v-1.58c-.28.06-.92.1-1.34.1h-10.34c-.48 0-1.02-.02-1.5-.1Zm-.52 7.66 1.1 1.22c3.06-1.6 6.34-4.62 7.4-6.58l-.02-1.2-.82-.02c-1.16 2.1-4.44 5.04-7.66 6.58Zm20.96 1.06 1.14.98c.32-.18.64-.28.84-.34 5-1.46 9.12-3.92 11.72-7.14l-.9-1.4c-2.5 3.22-7.12 5.84-10.96 6.82V18.94c0-.56.08-1.32.14-1.8h-1.96c.08.38.16 1.28.16 1.82V30.4c0 .38-.04.66-.18.98Zm25.22-10.88-1.48.5c.42.88 1.34 3.42 1.56 4.34l1.48-.54c-.24-.86-1.22-3.5-1.56-4.3Zm7.24 1.12-1.72-.56a13.97 13.97 0 0 1-2.76 6.86 13.66 13.66 0 0 1-6.5 4.24l1.32 1.34c2.22-.84 4.66-2.4 6.52-4.74 1.42-1.8 2.3-3.96 2.82-6.16l.32-.98Zm-11.9-.12-1.48.56c.4.7 1.48 3.48 1.8 4.52l1.5-.56a66.32 66.32 0 0 0-1.82-4.52Zm21.72 8.74c0 .74-.02 1.74-.12 2.38h1.94a24 24 0 0 1-.12-2.38l-.02-11.62c0-.62.06-1.48.14-2.1h-1.96c.1.64.14 1.52.14 2.1v11.62Zm1.32-8.46v1.76a56.4 56.4 0 0 1 8.2 3.32l.7-1.7a67.45 67.45 0 0 0-8.9-3.38ZM251.1 18.5l.02 1.62c2.18.24 6.06.24 8.2 0V18.5c-1.98.3-6.04.38-8.22 0Zm.78 8.16-1.44-.14a10.4 10.4 0 0 0-.32 2.34c0 1.88 1.5 3 4.84 3 2.08 0 3.76-.16 5-.42l-.04-1.68c-1.6.38-3.16.54-4.94.54-2.74 0-3.38-.9-3.38-1.82 0-.54.1-1.1.28-1.82Zm-4.58-9.7-1.78-.14c-.02.44-.08.94-.14 1.4-.24 1.66-.9 5.08-.9 8.02 0 2.72.34 5.02.74 6.44l1.42-.1-.06-.7c0-.24.04-.62.1-.9.18-.96.92-3.06 1.42-4.48l-.84-.66c-.34.82-.8 2.02-1.14 2.92-.12-.98-.18-1.82-.18-2.78 0-2.26.62-5.82 1-7.68.08-.36.24-1 .36-1.34Zm19.92 6.14h-4.26v1.4h2.8v5.68h1.46V23.1Zm0 6.42h-1.36c-1.02.86-2.2 1.74-3.16 2.38l.8 1.54c1.08-.88 2.1-1.74 3.06-2.6 1.28 1.58 3.08 2.28 5.68 2.38 2.22.08 6.36.04 8.56-.04.06-.46.32-1.18.48-1.54-2.36.16-6.86.22-9.04.14-2.3-.1-4.08-.78-5.02-2.26Zm-4.04-12.92c1.3.88 2.8 2.24 3.44 3.2l1.18-.98c-.7-.98-2.2-2.28-3.52-3.12l-1.1.9Zm7 .7v1.26h7.42v2.7h-7.42v1.28h8.88V17.3h-8.88Zm3.26-2.16c-.16.78-.52 1.9-.82 2.66l1.38.3c.34-.68.78-1.7 1.16-2.68l-1.72-.28Zm-3.98 2.16v12.84h1.46V17.3h-1.46Zm.8 7.14v1.28h8.12v3.12h-8.12v1.3h9.6v-5.7h-9.6Zm23.84 5.94v1.46h5.44v-1.46h-5.44ZM283.06 19v1.46h7.68V19h-7.68Zm10.36-1.3v15.6h1.46V19.14h3.86v14.02h1.52V17.7h-6.84Zm-3.08 1.3v.36c-.14 8.56-.32 11.52-.78 12.14-.18.26-.36.32-.66.3-.38 0-1.24 0-2.18-.08.26.42.42 1.08.44 1.52.9.06 1.82.06 2.38-.02.6-.06.96-.24 1.32-.76.64-.88.78-3.8.94-12.7V19h-1.46Zm-4.44-3.52c-.02 7 0 13.6-3.34 17.12.38.22.9.68 1.16 1.02 3.52-3.82 3.62-10.76 3.64-18.14h-1.46Zm28.64.68h-1.84c.04.18.1.74.14 1.28.06 1.1.08 5.08.08 5.96l1.52.78c-.02-1.6-.06-5.46 0-6.76 0-.24.06-1.02.1-1.26Zm-10.64 2.8.04 1.54a164.44 164.44 0 0 1 16.6-.26l.02-1.48c-.94-.02-3.42-.02-5.86-.02-3.08 0-8.08.18-10.8.22Zm10.5 5.8-1.1-.56c.32 2.14-.48 3.18-1.72 3.18-1.1 0-2.04-.72-2.04-1.98 0-1.3.98-2.12 2.04-2.12 1.08 0 1.96.76 1.96 2.56 0 3.3-2.12 5.08-5.76 5.94l1.34 1.3c4.64-1.38 5.96-4.38 5.96-7.1 0-2.3-1.18-4.02-3.5-4.02a3.5 3.5 0 0 0-3.54 3.46 3.22 3.22 0 0 0 3.3 3.36c1.82 0 3.06-1.34 3.06-4.02Zm12.36-7.48.04 1.64c.44-.06.88-.08 1.34-.12 1.04-.06 5.04-.22 6.1-.28-1 .9-3.52 3-4.64 3.92-1.14.98-3.72 3.14-5.38 4.5l1.16 1.16c2.52-2.58 4.32-3.98 7.64-3.98 2.62 0 4.5 1.46 4.5 3.44 0 2.5-2.14 3.9-5.54 3.9-1.58 0-2.68-.58-2.68-1.56 0-.7.7-1.26 1.62-1.26 1.6 0 2.58 1.22 2.7 2.92l1.44-.24c-.14-2.02-1.48-3.9-4.14-3.9-1.84 0-3.08 1.24-3.08 2.6 0 1.68 1.66 2.86 4.38 2.86 4.24 0 6.9-2.1 6.9-5.32 0-2.7-2.38-4.68-5.7-4.68a9 9 0 0 0-2.78.4c1.56-1.28 4.28-3.62 5.26-4.38.38-.3.78-.56 1.14-.8l-.92-1.18c-.22.08-.5.12-1.1.18-1.06.1-5.8.24-6.86.24-.4 0-.96-.02-1.4-.06Z" fill="#fff"/>
  <rect x=".5" y=".5" width="362" height="49" rx="24.5" stroke="#747775"/>
</svg>
