<svg width="367" height="50" fill="none" xmlns="http://www.w3.org/2000/svg">
  <defs>
    <linearGradient id="a" x1="34.57" y1="30.79" x2="18.73" y2="48.91" gradientUnits="userSpaceOnUse">
      <stop stop-color="#4285F4"/>
      <stop offset="1" stop-color="#1B74E8"/>
    </linearGradient>
  </defs>
  <rect x=".5" y=".5" width="366" height="49" rx="24.5" fill="#1F1F1F"/>
  <path d="M51 22H21v-5c0-2.71 2.2-5 4.82-5h20.36A4.97 4.97 0 0 1 51 17v5Z" fill="#34A853"/>
  <path d="M51 26.05H21v-5c0-2.71 2.2-5 4.82-5h20.36a4.97 4.97 0 0 1 4.82 5v5Z" fill="#FBBC04"/>
  <path d="M51 30.25H21v-5c0-2.72 2.2-5 4.82-5h20.36a4.97 4.97 0 0 1 4.82 5v5Z" fill="#EA4335"/>
  <path d="m21 23.28 19.04 4.4c2.2.55 4.66 0 6.44-1.38L51 23v10.32c0 2.62-2.2 4.68-4.8 4.68H25.8c-2.6 0-4.8-2.06-4.8-4.68V23.28Z" fill="url(#a)"/>
  <path d="M71.4 32.32a7.54 7.54 0 0 1-5.28-2.12 7.6 7.6 0 0 1-1.64-2.38 7.61 7.61 0 0 1-.58-2.98 7.47 7.47 0 0 1 2.2-5.34 7.44 7.44 0 0 1 5.3-2.14c1.1 0 2.1.2 3.02.58a6.4 6.4 0 0 1 2.34 1.62l-1.52 1.5a4.73 4.73 0 0 0-1.68-1.2 5.34 5.34 0 0 0-2.16-.42 5.22 5.22 0 0 0-5.28 5.4c0 1.1.25 2.05.74 2.86.5.8 1.14 1.43 1.94 1.88a5.66 5.66 0 0 0 4.98.18 4.28 4.28 0 0 0 2.5-3.56h-4.9v-1.94h6.96c.08.36.12.74.12 1.14v.02c0 1.39-.3 2.6-.92 3.64a6.28 6.28 0 0 1-2.5 2.4 7.57 7.57 0 0 1-3.64.86Zm13.5 0a5.15 5.15 0 0 1-4.66-2.66 5.57 5.57 0 0 1-.68-2.76c0-1.01.23-1.93.68-2.74a5.1 5.1 0 0 1 4.66-2.68 5.1 5.1 0 0 1 4.64 2.68c.45.81.68 1.73.68 2.74 0 1.03-.23 1.95-.68 2.76a5.15 5.15 0 0 1-4.64 2.66Zm0-1.98c.56 0 1.08-.13 1.56-.4.48-.28.87-.67 1.16-1.18.3-.52.46-1.14.46-1.86 0-.72-.15-1.33-.46-1.84a3 3 0 0 0-1.16-1.18 3.15 3.15 0 0 0-4.32 1.18c-.3.5-.44 1.12-.44 1.84s.15 1.34.44 1.86c.3.5.7.9 1.18 1.18.5.27 1.02.4 1.58.4ZM97 32.32a5.15 5.15 0 0 1-4.66-2.66 5.57 5.57 0 0 1-.67-2.76c0-1.01.23-1.93.68-2.74A5.1 5.1 0 0 1 97 21.48a5.1 5.1 0 0 1 4.64 2.68c.45.81.68 1.73.68 2.74 0 1.03-.23 1.95-.68 2.76A5.15 5.15 0 0 1 97 32.32Zm0-1.98c.57 0 1.09-.13 1.57-.4.48-.28.87-.67 1.16-1.18.3-.52.46-1.14.46-1.86 0-.72-.15-1.33-.46-1.84a3 3 0 0 0-1.16-1.18 3.15 3.15 0 0 0-4.32 1.18c-.3.5-.44 1.12-.44 1.84s.15 1.34.44 1.86c.3.5.7.9 1.18 1.18.5.27 1.02.4 1.58.4Zm11.92 6.3c-.9 0-1.67-.15-2.32-.44a4.39 4.39 0 0 1-2.42-2.46l2-.84a2.88 2.88 0 0 0 2.74 1.82 2.9 2.9 0 0 0 2.2-.84c.55-.56.82-1.35.82-2.38v-.98h-.12c-.32.48-.77.87-1.34 1.16-.56.28-1.2.42-1.92.42-.87 0-1.66-.22-2.38-.66a4.92 4.92 0 0 1-1.74-1.84 5.72 5.72 0 0 1-.66-2.8c0-1.08.22-2.01.66-2.8a4.88 4.88 0 0 1 1.74-1.86 4.48 4.48 0 0 1 4.3-.22c.57.3 1.02.68 1.34 1.16h.12V21.8H114v9.66c0 1.1-.22 2.05-.66 2.82a4.27 4.27 0 0 1-1.78 1.76c-.76.4-1.64.6-2.64.6Zm.02-6.5c.53 0 1.03-.13 1.48-.38.45-.27.82-.65 1.1-1.14.28-.5.42-1.11.42-1.82 0-.73-.14-1.35-.42-1.84a2.84 2.84 0 0 0-2.58-1.52 2.97 2.97 0 0 0-2.6 1.52c-.28.5-.42 1.1-.42 1.84 0 .72.14 1.33.42 1.84a2.86 2.86 0 0 0 2.6 1.5Zm7.6 1.86V17.68h2.17V32h-2.16Zm9.27.32a5.04 5.04 0 0 1-4.54-2.62 5.75 5.75 0 0 1-.66-2.78c0-.97.22-1.87.64-2.7a5.1 5.1 0 0 1 1.78-1.98c.78-.5 1.66-.76 2.66-.76a5 5 0 0 1 2.69.68 4.41 4.41 0 0 1 1.7 1.86 5.96 5.96 0 0 1 .53 3.34h-7.88a3.3 3.3 0 0 0 1.06 2.28c.62.5 1.31.76 2.08.76a3 3 0 0 0 1.72-.46c.46-.32.82-.71 1.09-1.18l1.78.86a5.52 5.52 0 0 1-1.8 1.96c-.77.5-1.71.74-2.84.74Zm-.1-9a2.7 2.7 0 0 0-1.83.66c-.51.44-.85 1.03-1.02 1.76h5.65c-.02-.35-.13-.7-.33-1.08a2.73 2.73 0 0 0-2.46-1.34Zm16.42 9a4.62 4.62 0 0 1-4.3-2.48 5.72 5.72 0 0 1-.62-2.7v-9.46h2.16v9.5c0 .96.26 1.73.8 2.32.53.57 1.18.86 1.94.86.56 0 1.05-.12 1.48-.36a2.55 2.55 0 0 0 1.36-2.3c0-.59-.18-1.15-.54-1.7l-.56-.86a4.64 4.64 0 0 1-.84-2.84h2.16a3.06 3.06 0 0 0 .56 1.88l.6.9a4.58 4.58 0 0 1 .76 2.58c0 .84-.21 1.61-.62 2.32-.4.7-.98 1.27-1.72 1.7-.75.43-1.62.64-2.62.64Zm10.84 0c-.86 0-1.64-.17-2.34-.52a4.25 4.25 0 0 1-1.66-1.44 4 4 0 0 1-.6-2.2c0-.21 0-.43.03-.64.04-.23.1-.44.16-.64l2.04.32c-.05.3-.07.57-.07.8 0 .76.23 1.35.7 1.76a2.5 2.5 0 0 0 1.72.62c.7 0 1.28-.2 1.74-.6.46-.41.7-.95.7-1.6a2.3 2.3 0 0 0-.72-1.66l-.48-.48-.84-.66c-.4-.3-.74-.7-1.04-1.18-.3-.5-.44-1.13-.44-1.9h2.16c0 .43.1.79.31 1.08.23.3.48.56.76.8l.87.72c.4.35.77.77 1.07 1.28.33.5.49 1.17.49 2.04 0 .8-.2 1.5-.6 2.12-.4.61-.95 1.1-1.65 1.46-.68.35-1.45.52-2.31.52Zm15.1 4.32c-1.09 0-2.06-.16-2.91-.48a4.32 4.32 0 0 1-1.96-1.4 3.16 3.16 0 0 1-.58-2.2l2.2.1c-.02.45.12.83.42 1.14.29.32.69.56 1.2.72.5.16 1.07.24 1.7.24.98 0 1.77-.23 2.36-.68.58-.45.88-1.01.88-1.68 0-.59-.2-1.07-.6-1.46-.4-.39-.9-.59-1.54-.6l-.26-.02V28.4h.58c.65 0 1.17-.19 1.56-.56.4-.39.6-.93.6-1.64 0-.73-.18-1.3-.54-1.68-.35-.39-.81-.58-1.38-.58-.56 0-1.02.19-1.36.56-.35.36-.52.9-.52 1.62v.78a4.2 4.2 0 0 1-2.16 3.72c-.68.37-1.46.56-2.34.56-.9 0-1.68-.2-2.36-.58a4.15 4.15 0 0 1-1.6-1.62 4.93 4.93 0 0 1-.56-2.38c0-.9.18-1.69.56-2.38.38-.7.9-1.25 1.58-1.64.68-.4 1.46-.6 2.34-.6.73 0 1.4.16 2 .48a3 3 0 0 1 1.36 1.3h.06c.26-.56.66-1 1.2-1.3.54-.32 1.19-.48 1.94-.48.74 0 1.4.16 2 .48.6.3 1.07.76 1.42 1.36.34.59.52 1.3.52 2.14 0 .99-.22 1.75-.66 2.3-.44.55-.96.92-1.56 1.12v.12c.6.21 1.06.59 1.38 1.12.32.52.48 1.13.48 1.82 0 .81-.22 1.53-.66 2.16a4.35 4.35 0 0 1-1.88 1.5c-.82.36-1.78.54-2.9.54Zm-4.65-7.38c.69 0 1.26-.24 1.72-.72.45-.48.68-1.13.68-1.94 0-.83-.23-1.48-.68-1.96a2.27 2.27 0 0 0-1.72-.72c-.71 0-1.3.24-1.74.72a2.74 2.74 0 0 0-.68 1.96c0 .81.22 1.46.68 1.94.46.48 1.04.72 1.74.72Zm16.74 7.38c-.93 0-1.76-.2-2.5-.6a4.55 4.55 0 0 1-2.34-4.04c0-.63.12-1.26.36-1.9l2 .44c-.15.47-.22.92-.22 1.36 0 .76.23 1.4.7 1.94.48.55 1.15.82 2 .82a2.7 2.7 0 0 0 1.96-.78c.53-.52.8-1.25.8-2.18v-6.3c0-.45-.13-.81-.38-1.08-.24-.28-.58-.42-1.04-.42-.45 0-.8.14-1.04.42-.22.27-.34.63-.34 1.08v2.46H178v-2.34c0-.48-.13-.83-.4-1.06-.25-.23-.6-.34-1.02-.34h-1.26V22.1h1.44a3 3 0 0 1 1.36.3c.4.2.7.5.9.92h.12a2.4 2.4 0 0 1 1.02-.98c.46-.24 1-.36 1.64-.36.61 0 1.16.13 1.64.4.5.25.88.63 1.16 1.12.3.5.44 1.08.44 1.76v6.36c0 .99-.2 1.85-.62 2.6-.4.76-.96 1.35-1.7 1.78a5 5 0 0 1-2.56.64Zm17.9-.32a1.92 1.92 0 0 0-.66-1.32c-.38-.35-.9-.61-1.53-.8a8.4 8.4 0 0 0-5.8.62l-.8-1.44c.6-.33 1.16-.56 1.7-.68v-.12a5.41 5.41 0 0 1-3.56-3.02 6.78 6.78 0 0 1-.56-2.76 5.85 5.85 0 0 1 .5-2.66c.36-.72.82-1.26 1.4-1.62a3.6 3.6 0 0 1 1.91-.54c.53 0 1.05.14 1.59.42.54.27.96.73 1.25 1.4h.13c.25-.64.62-1.1 1.1-1.38.49-.3 1.03-.44 1.64-.44.6 0 1.14.15 1.63.44.5.28.87.74 1.1 1.38h.13c.28-.64.67-1.1 1.18-1.38a3.5 3.5 0 0 1 3.56.1c.58.36 1.05.9 1.4 1.62.34.7.51 1.59.51 2.64 0 .88-.1 1.72-.34 2.52-.2.8-.48 1.5-.81 2.12l-2.04-.46c.33-.67.59-1.34.78-2.02.18-.68.28-1.39.28-2.12a3.6 3.6 0 0 0-.53-2.06c-.33-.52-.77-.78-1.31-.78-.53 0-.94.19-1.26.56-.31.37-.47.96-.47 1.76v2.84h-2.12V26.1c0-.7-.16-1.22-.5-1.58a1.54 1.54 0 0 0-1.2-.54c-.5 0-.92.18-1.26.54-.31.36-.47.89-.47 1.58v3.04h-2.14V26.3c0-.77-.17-1.35-.49-1.74-.3-.39-.7-.58-1.18-.58-.57 0-1.02.25-1.35.74a3.9 3.9 0 0 0-.48 2.12c0 2.73 1.56 4.39 4.66 4.96l2.13.4c1.28.24 2.31.71 3.09 1.42.77.7 1.22 1.6 1.34 2.7h-2.15Zm14.05.32c-.93 0-1.76-.2-2.5-.6-.73-.4-1.3-.95-1.72-1.66a4.56 4.56 0 0 1-.62-2.38c0-.63.12-1.26.36-1.9l2 .44c-.14.47-.22.92-.22 1.36 0 .76.24 1.4.7 1.94.48.55 1.15.82 2 .82a2.7 2.7 0 0 0 1.96-.78c.54-.52.8-1.25.8-2.18v-5.16c0-.8-.24-1.43-.74-1.88-.49-.47-1.12-.7-1.88-.7-.44 0-.86.1-1.26.28-.38.19-.7.45-.94.8-.24.35-.36.77-.36 1.26 0 .27.04.54.1.82l-2.08.26a5.2 5.2 0 0 1-.14-1.22 3.9 3.9 0 0 1 2.32-3.66c.71-.35 1.5-.52 2.36-.52.94 0 1.76.19 2.46.56.72.37 1.28.91 1.68 1.62.4.7.6 1.52.6 2.48v4.98c0 .99-.2 1.85-.62 2.6a4.5 4.5 0 0 1-1.72 1.78c-.72.43-1.56.64-2.54.64Zm11.85-4.32a5.13 5.13 0 0 1-2.68-.68 4.85 4.85 0 0 1-1.74-1.86 5.3 5.3 0 0 1-.62-2.54c0-.95.2-1.8.6-2.56a4.6 4.6 0 0 1 4.08-2.48c.72 0 1.33.16 1.84.48.52.32.93.69 1.24 1.1h.12l-.08-1.08v-1.9c0-.44-.12-.8-.36-1.08-.24-.3-.6-.44-1.08-.44-.46 0-.8.13-1.04.4-.23.25-.34.57-.34.96v.52h-2.12v-.48c0-.47-.13-.8-.4-1.02-.25-.21-.6-.32-1.02-.32a4.6 4.6 0 0 0-1.42.28v-2.04c.19-.05.41-.1.68-.14.26-.05.58-.08.94-.08.5 0 .95.11 1.34.34.4.21.72.54.96.98h.12c.24-.41.58-.73 1.02-.96.45-.24 1-.36 1.66-.36.59 0 1.12.13 1.6.4s.86.65 1.14 1.14c.3.5.44 1.08.44 1.76v6.46c0 .96-.2 1.83-.62 2.62a4.63 4.63 0 0 1-4.26 2.58Zm-.02-1.98a2.84 2.84 0 0 0 2.5-1.46c.27-.47.4-1.01.4-1.64 0-.63-.14-1.17-.42-1.62a2.85 2.85 0 0 0-3.9-1.08c-.44.25-.8.61-1.06 1.08-.27.45-.4 1-.4 1.62a3.04 3.04 0 0 0 1.46 2.72c.44.25.91.38 1.42.38ZM231.8 32c-.3-.61-.58-1.34-.82-2.18a10 10 0 0 1-.36-2.72c0-1.03.2-1.92.6-2.68a4.52 4.52 0 0 1 4.28-2.44 5 5 0 0 1 2.56.64 4.43 4.43 0 0 1 1.74 1.8c.42.76.62 1.65.62 2.68a10 10 0 0 1-.36 2.72c-.24.84-.5 1.57-.82 2.18h-2.22c.42-.81.73-1.61.94-2.4.23-.8.34-1.63.34-2.48 0-1.03-.27-1.81-.82-2.36a2.7 2.7 0 0 0-1.98-.82c-.76 0-1.4.27-1.92.82-.52.53-.78 1.32-.8 2.36a9.5 9.5 0 0 0 1.24 4.88h-2.22ZM257.04 36.32a1.9 1.9 0 0 0-1-1.48 4.2 4.2 0 0 0-2.14-.52 6.17 6.17 0 0 0-3.28.9l-.8-1.44a6.03 6.03 0 0 1 1.8-.68v-.12a5.8 5.8 0 0 1-1.96-1.28 6.58 6.58 0 0 1-1.9-4.7c0-1.07.18-1.97.54-2.72a4.1 4.1 0 0 1 1.48-1.72 3.75 3.75 0 0 1 3.88-.08c.55.32.96.8 1.24 1.42h.1c.33-.63.8-1.1 1.42-1.42.63-.33 1.34-.5 2.14-.5a4.48 4.48 0 0 1 4.02 2.36c.39.72.58 1.55.58 2.5s-.2 1.79-.58 2.52a4.42 4.42 0 0 1-4.06 2.34c-.92 0-1.73-.2-2.44-.62a4.46 4.46 0 0 1-1.66-1.68c-.4-.72-.6-1.53-.6-2.44v-.56c0-.81-.17-1.42-.52-1.82a1.65 1.65 0 0 0-1.32-.62 1.8 1.8 0 0 0-1.52.78 3.85 3.85 0 0 0-.56 2.26c0 1.37.4 2.53 1.18 3.46.8.93 1.87 1.57 3.22 1.92l1.3.34c1.1.28 1.95.73 2.54 1.34.6.61.95 1.37 1.04 2.26h-2.14Zm1.46-6.58c.7 0 1.3-.25 1.8-.76.5-.52.76-1.23.76-2.14 0-.9-.25-1.61-.76-2.12-.5-.52-1.1-.78-1.8-.78s-1.31.26-1.82.78c-.5.5-.76 1.21-.76 2.12 0 .9.25 1.62.76 2.14.5.5 1.11.76 1.82.76Zm10.54 2.58c-.86 0-1.64-.17-2.35-.52a4.25 4.25 0 0 1-1.65-1.44 4 4 0 0 1-.6-2.2c0-.21 0-.43.04-.64.03-.23.09-.44.15-.64l2.05.32c-.06.3-.08.57-.08.8 0 .76.23 1.35.7 1.76a2.5 2.5 0 0 0 1.71.62c.71 0 1.3-.2 1.75-.6.46-.41.7-.95.7-1.6 0-.37-.08-.7-.22-.96-.14-.28-.3-.51-.5-.7-.2-.2-.35-.36-.49-.48l-.83-.66c-.4-.3-.74-.7-1.05-1.18-.29-.5-.44-1.13-.44-1.9h2.17c0 .43.1.79.31 1.08.23.3.48.56.76.8l.87.72c.4.35.77.77 1.07 1.28.32.5.49 1.17.49 2.04 0 .8-.2 1.5-.6 2.12-.4.61-.95 1.1-1.64 1.46-.69.35-1.46.52-2.32.52Zm11.05 0a5.02 5.02 0 0 1-2.68-.7 4.85 4.85 0 0 1-1.74-1.86 5.55 5.55 0 0 1-.62-2.62c0-.97.2-1.85.6-2.62.4-.79.95-1.4 1.66-1.86.7-.45 1.5-.68 2.42-.68.72 0 1.33.16 1.84.48.5.32.9.69 1.2 1.1h.12l-.04-1.06v-.66c0-.8-.28-1.43-.82-1.88a2.9 2.9 0 0 0-1.94-.68c-.71 0-1.31.17-1.8.52-.48.33-.83.77-1.04 1.3l-1.96-.84c.16-.47.44-.92.86-1.36.42-.45.96-.82 1.62-1.1.65-.3 1.42-.44 2.32-.44.89 0 1.7.18 2.44.54.74.35 1.34.87 1.78 1.56.44.7.66 1.53.66 2.52v5.04c0 .99-.21 1.89-.62 2.7a4.63 4.63 0 0 1-4.26 2.6Zm-.02-1.98c.52 0 1-.13 1.44-.4.44-.27.79-.64 1.06-1.12.26-.48.4-1.04.4-1.68 0-.64-.14-1.2-.42-1.68a2.81 2.81 0 0 0-1.06-1.1 2.73 2.73 0 0 0-2.84 0c-.44.25-.8.62-1.06 1.1a3.4 3.4 0 0 0-.4 1.68c0 .64.13 1.2.4 1.68.26.48.62.85 1.06 1.12.44.27.9.4 1.42.4Zm11.13 1.98c-.85 0-1.63-.17-2.34-.52a4.25 4.25 0 0 1-1.66-1.44 4 4 0 0 1-.6-2.2c0-.21.02-.43.04-.64.04-.23.1-.44.16-.64l2.04.32c-.05.3-.08.57-.08.8 0 .76.24 1.35.7 1.76a2.5 2.5 0 0 0 1.72.62c.71 0 1.29-.2 1.74-.6.47-.41.7-.95.7-1.6 0-.37-.07-.7-.22-.96-.13-.28-.3-.51-.5-.7-.18-.2-.34-.36-.48-.48l-.84-.66c-.38-.3-.73-.7-1.04-1.18-.29-.5-.44-1.13-.44-1.9h2.16c0 .43.11.79.32 1.08.23.3.48.56.76.8l.86.72c.42.35.78.77 1.08 1.28.32.5.48 1.17.48 2.04 0 .8-.2 1.5-.6 2.12-.4.61-.94 1.1-1.64 1.46-.68.35-1.45.52-2.32.52Zm13 4.32a6.93 6.93 0 0 1-5.12-2.14 7.15 7.15 0 0 1-2.07-5.16 7.17 7.17 0 0 1 6.12-7.18v-2.32h2.12v2.32a7.03 7.03 0 0 1 5.34 3.8c.54 1.01.8 2.14.8 3.38a7.2 7.2 0 0 1-.56 2.84 7.15 7.15 0 0 1-6.64 4.46Zm-1.07-7.14v-3.88c0-.56.04-1.07.12-1.54a4.76 4.76 0 0 0-3.56 2.7 5.74 5.74 0 0 0-.54 2.56c0 1.08.23 2.01.68 2.8a4.88 4.88 0 0 0 4.36 2.52 4.94 4.94 0 0 0 4.36-2.52c.47-.79.7-1.72.7-2.8 0-.97-.18-1.83-.56-2.56a4.68 4.68 0 0 0-1.48-1.8 5.03 5.03 0 0 0-2.08-.9c.08.45.12.95.12 1.48v3.94h-2.12Zm14.37 7.14c-.93 0-1.77-.2-2.5-.6-.73-.4-1.3-.95-1.72-1.66a4.56 4.56 0 0 1-.62-2.38c0-.63.12-1.26.36-1.9l2 .44c-.15.47-.22.92-.22 1.36 0 .76.23 1.4.7 1.94.48.55 1.15.82 2 .82a2.7 2.7 0 0 0 1.96-.78c.53-.52.8-1.25.8-2.18v-5.16c0-.8-.25-1.43-.74-1.88-.5-.47-1.12-.7-1.88-.7-.44 0-.86.1-1.26.28-.39.19-.7.45-.94.8-.24.35-.36.77-.36 1.26 0 .27.03.54.1.82l-2.08.26a5.2 5.2 0 0 1-.14-1.22 3.9 3.9 0 0 1 2.32-3.66c.7-.35 1.5-.52 2.36-.52.93 0 1.75.19 2.46.56.72.37 1.28.91 1.68 1.62.4.7.6 1.52.6 2.48v4.98c0 .99-.2 1.85-.62 2.6a4.51 4.51 0 0 1-1.72 1.78 4.9 4.9 0 0 1-2.54.64Zm11.79-4.32c-1 0-1.9-.23-2.67-.68a5.07 5.07 0 0 1-2.45-4.48c0-.9.18-1.7.53-2.42a4.75 4.75 0 0 1 3.8-2.68v-.56c0-.3-.02-.53-.07-.72-.06-.19-.22-.37-.49-.56l-.54-.36a1.71 1.71 0 0 1-.73-.9c-.11-.37-.16-.8-.15-1.28h2.15c0 .25.03.47.1.64.08.16.25.34.52.54l.51.36c.35.24.58.52.69.84.1.32.15.7.15 1.14v.98c.76.19 1.43.52 1.99 1a4.64 4.64 0 0 1 1.31 1.72c.31.68.46 1.43.46 2.26 0 .96-.21 1.83-.65 2.62a4.9 4.9 0 0 1-4.46 2.54Zm.01-1.98a2.94 2.94 0 0 0 2.55-1.46c.27-.48.41-1.05.41-1.72 0-.68-.13-1.25-.41-1.72a2.76 2.76 0 0 0-1.09-1.1 2.99 2.99 0 0 0-4.04 1.08 3.4 3.4 0 0 0-.42 1.74c0 .67.14 1.24.43 1.72a2.95 2.95 0 0 0 2.57 1.46Zm10.99 1.98c-.86 0-1.64-.17-2.35-.52a4.25 4.25 0 0 1-1.65-1.44 4 4 0 0 1-.6-2.2c0-.21 0-.43.04-.64.03-.23.09-.44.15-.64l2.05.32c-.06.3-.08.57-.08.8 0 .76.23 1.35.7 1.76a2.5 2.5 0 0 0 1.71.62c.71 0 1.3-.2 1.75-.6.46-.41.7-.95.7-1.6 0-.37-.08-.7-.22-.96-.14-.28-.3-.51-.5-.7-.2-.2-.35-.36-.49-.48l-.83-.66c-.4-.3-.74-.7-1.05-1.18-.29-.5-.44-1.13-.44-1.9h2.17c0 .43.1.79.31 1.08.23.3.48.56.76.8l.87.72c.4.35.77.77 1.07 1.28.32.5.49 1.17.49 2.04 0 .8-.2 1.5-.6 2.12-.4.61-.95 1.1-1.64 1.46-.69.35-1.46.52-2.32.52Z" fill="#fff"/>
  <rect x=".5" y=".5" width="366" height="49" rx="24.5" stroke="#747775"/>
</svg>
