<svg width="420" height="50" fill="none" xmlns="http://www.w3.org/2000/svg">
  <defs>
    <linearGradient id="a" x1="34.57" y1="30.79" x2="18.73" y2="48.91" gradientUnits="userSpaceOnUse">
      <stop stop-color="#4285F4"/>
      <stop offset="1" stop-color="#1B74E8"/>
    </linearGradient>
  </defs>
  <rect x=".5" y=".5" width="419" height="49" rx="24.5" fill="#1F1F1F"/>
  <path d="M51 22H21v-5c0-2.71 2.2-5 4.82-5h20.36A4.97 4.97 0 0 1 51 17v5Z" fill="#34A853"/>
  <path d="M51 26.05H21v-5c0-2.71 2.2-5 4.82-5h20.36a4.97 4.97 0 0 1 4.82 5v5Z" fill="#FBBC04"/>
  <path d="M51 30.25H21v-5c0-2.72 2.2-5 4.82-5h20.36a4.97 4.97 0 0 1 4.82 5v5Z" fill="#EA4335"/>
  <path d="m21 23.28 19.04 4.4c2.2.55 4.66 0 6.44-1.38L51 23v10.32c0 2.62-2.2 4.68-4.8 4.68H25.8c-2.6 0-4.8-2.06-4.8-4.68V23.28Z" fill="url(#a)"/>
  <path d="M67.54 32V19.76h-4.02v-2.08h10.2v2.08h-4V32h-2.18Zm11.15.32a5.15 5.15 0 0 1-4.66-2.66 5.57 5.57 0 0 1-.68-2.76c0-1.01.23-1.93.68-2.74a5.1 5.1 0 0 1 4.66-2.68 5.1 5.1 0 0 1 4.64 2.68c.45.81.68 1.73.68 2.74 0 1.03-.23 1.95-.68 2.76a5.15 5.15 0 0 1-4.64 2.66Zm0-1.92c.56 0 1.09-.13 1.58-.4.5-.28.9-.68 1.2-1.2.3-.52.46-1.15.46-1.9 0-.73-.15-1.36-.46-1.88a3.1 3.1 0 0 0-2.78-1.62 3.24 3.24 0 0 0-2.82 1.62c-.3.52-.44 1.15-.44 1.88s.15 1.36.44 1.88a3.24 3.24 0 0 0 2.82 1.62Zm-4.3-2.68v-1.7h8.5v1.7h-8.5ZM85.8 32V21.8h2.56l3.14 6.24h.1l3.16-6.24h2.5V32H95.2v-4.96l.1-1.96h-.12l-2.94 5.62h-1.42l-2.94-5.62h-.12l.1 1.96V32H85.8Zm18.69.32a5.15 5.15 0 0 1-4.66-2.66 5.57 5.57 0 0 1-.68-2.76c0-1.01.23-1.93.68-2.74a5.1 5.1 0 0 1 4.66-2.68 5.11 5.11 0 0 1 4.64 2.68c.45.81.68 1.73.68 2.74 0 1.03-.23 1.95-.68 2.76a5.15 5.15 0 0 1-4.64 2.66Zm0-1.92c.56 0 1.09-.13 1.58-.4.5-.28.9-.68 1.2-1.2.3-.52.46-1.15.46-1.9 0-.73-.15-1.36-.46-1.88a3.1 3.1 0 0 0-2.78-1.62 3.23 3.23 0 0 0-2.82 1.62c-.3.52-.44 1.15-.44 1.88s.15 1.36.44 1.88a3.23 3.23 0 0 0 2.82 1.62Zm-4.3-2.68v-1.7h8.5v1.7h-8.5ZM111.6 32V21.8h2.16v4.1h4.84v-4.1h2.16V32h-2.16v-4.22h-4.84V32h-2.16Zm11.68 0V21.8h2.16v4.52h.12l4-4.52h2.48v.12l-4.26 4.66 4.42 5.3V32h-2.56l-4.08-5.02h-.12V32h-2.16Zm13.45 4.32V32l-4.12-10.2H135l2.84 7.62h.02l2.88-7.62h2.34L138.9 32v4.32h-2.16Zm7.3-4.16c-.3 0-.6-.03-.88-.1v-2c.19.1.4.14.62.14.45 0 .77-.17.96-.52.19-.36.3-.81.34-1.36.04-.55.06-1.11.06-1.7V21.8h7.8V32h-2.14v-8.32h-3.62v3.28c0 .7-.05 1.35-.14 1.98a5.72 5.72 0 0 1-.46 1.66c-.23.48-.55.86-.96 1.14-.4.28-.93.42-1.58.42Zm16.14.16a5.15 5.15 0 0 1-4.66-2.66 5.57 5.57 0 0 1-.68-2.76c0-1.01.23-1.93.68-2.74a5.11 5.11 0 0 1 4.66-2.68 5.1 5.1 0 0 1 4.64 2.68c.46.81.68 1.73.68 2.74 0 1.03-.22 1.95-.68 2.76a5.15 5.15 0 0 1-4.64 2.66Zm0-1.92c.56 0 1.09-.13 1.58-.4.5-.28.9-.68 1.2-1.2.31-.52.46-1.15.46-1.9 0-.73-.15-1.36-.46-1.88a3.18 3.18 0 0 0-2.78-1.62 3.24 3.24 0 0 0-2.82 1.62c-.29.52-.44 1.15-.44 1.88s.15 1.36.44 1.88a3.24 3.24 0 0 0 2.82 1.62Zm-4.3-2.68v-1.7h8.5v1.7h-8.5Zm11.5 8.6V21.8h2.01v1.38h.13c.26-.44.68-.83 1.24-1.18a4.56 4.56 0 0 1 4.54.18c.73.47 1.3 1.1 1.74 1.92.44.81.66 1.75.66 2.8 0 1.05-.22 2-.66 2.82a4.66 4.66 0 0 1-4.24 2.6 3.66 3.66 0 0 1-3.28-1.68h-.13l.13 1.42v4.26h-2.14Zm5.1-5.98c.53 0 1.03-.14 1.5-.42.46-.28.84-.67 1.13-1.18.3-.52.44-1.13.44-1.84 0-.7-.14-1.31-.44-1.82-.29-.52-.67-.92-1.13-1.2a2.87 2.87 0 0 0-3 0c-.47.28-.85.68-1.15 1.2-.29.5-.44 1.11-.44 1.82 0 .7.15 1.32.44 1.84.3.5.68.9 1.15 1.18.46.28.96.42 1.5.42Zm7.06 1.66V21.8h6.68v1.88h-4.52V32h-2.16Zm12.66.32a5.15 5.15 0 0 1-4.66-2.66 5.57 5.57 0 0 1-.69-2.76c0-1.01.23-1.93.69-2.74a5.1 5.1 0 0 1 4.66-2.68 5.1 5.1 0 0 1 4.64 2.68c.45.81.68 1.73.68 2.74 0 1.03-.23 1.95-.69 2.76a5.15 5.15 0 0 1-4.63 2.66Zm0-1.92c.56 0 1.08-.13 1.57-.4.5-.28.9-.68 1.2-1.2.31-.52.47-1.15.47-1.9 0-.73-.16-1.36-.47-1.88a3.1 3.1 0 0 0-2.78-1.62 3.24 3.24 0 0 0-2.82 1.62c-.29.52-.44 1.15-.44 1.88s.15 1.36.45 1.88a3.24 3.24 0 0 0 2.81 1.62Zm-4.3-2.68v-1.7h8.5v1.7h-8.5ZM204.16 32V21.8h2.16v4.52h.12l4-4.52h2.48v.12l-4.26 4.66 4.42 5.3V32h-2.56l-4.08-5.02h-.12V32h-2.16Zm14.86.32a5.15 5.15 0 0 1-4.66-2.66 5.57 5.57 0 0 1-.68-2.76c0-1.01.23-1.93.68-2.74a5.1 5.1 0 0 1 4.66-2.68 5.1 5.1 0 0 1 4.64 2.68c.45.81.68 1.73.68 2.74 0 1.03-.23 1.95-.68 2.76a5.15 5.15 0 0 1-4.64 2.66Zm0-1.98c.56 0 1.08-.13 1.56-.4.48-.28.87-.67 1.16-1.18.3-.52.46-1.14.46-1.86 0-.72-.15-1.33-.46-1.84a3 3 0 0 0-1.16-1.18 3.15 3.15 0 0 0-4.32 1.18c-.3.5-.44 1.12-.44 1.84s.15 1.34.44 1.86c.3.5.7.9 1.18 1.18.5.27 1.02.4 1.58.4Zm7.11 1.66V21.8h2.15v8.32h3.35V21.8h2.15v8.32h3.35V21.8h2.15V32h-13.15Zm19.17 3.82-.14.3-.08.2h-2.3l.28-.64a43.12 43.12 0 0 0 1.2-2.58l.76-1.66-4.26-9.64h2.4l2.92 6.96h.1L249 21.8h2.38l-5.28 12.16a79.17 79.17 0 0 0-.8 1.86Zm11.11 0-.14.3-.08.2h-2.3l.28-.64a43.12 43.12 0 0 0 1.2-2.58l.76-1.66-4.26-9.64h2.4l2.92 6.96h.1l2.82-6.96h2.38l-5.28 12.16a79.17 79.17 0 0 0-.8 1.86ZM276.4 32.32a7.54 7.54 0 0 1-5.28-2.12 7.6 7.6 0 0 1-1.64-2.38 7.6 7.6 0 0 1-.58-2.98 7.46 7.46 0 0 1 2.2-5.34 7.43 7.43 0 0 1 5.3-2.14c1.1 0 2.1.2 3.02.58.93.39 1.71.93 2.34 1.62l-1.52 1.5a4.74 4.74 0 0 0-1.68-1.2 5.34 5.34 0 0 0-2.16-.42 5.22 5.22 0 0 0-5.28 5.4c0 1.1.25 2.05.74 2.86.5.8 1.14 1.43 1.94 1.88a5.66 5.66 0 0 0 4.98.18 4.28 4.28 0 0 0 2.5-3.56h-4.9v-1.94h6.96c.08.36.12.74.12 1.14v.02c0 1.39-.3 2.6-.92 3.64a6.28 6.28 0 0 1-2.5 2.4 7.57 7.57 0 0 1-3.64.86Zm13.5 0a5.15 5.15 0 0 1-4.66-2.66 5.57 5.57 0 0 1-.68-2.76c0-1.01.23-1.93.68-2.74a5.1 5.1 0 0 1 4.66-2.68 5.1 5.1 0 0 1 4.64 2.68c.45.81.68 1.73.68 2.74 0 1.03-.23 1.95-.68 2.76a5.15 5.15 0 0 1-4.64 2.66Zm0-1.98c.56 0 1.08-.13 1.56-.4.48-.28.87-.67 1.16-1.18.3-.52.46-1.14.46-1.86 0-.72-.15-1.33-.46-1.84a3 3 0 0 0-1.16-1.18 3.15 3.15 0 0 0-4.32 1.18c-.3.5-.44 1.12-.44 1.84s.15 1.34.44 1.86c.3.5.7.9 1.18 1.18.5.27 1.02.4 1.58.4Zm12.1 1.98a5.15 5.15 0 0 1-4.66-2.66 5.57 5.57 0 0 1-.67-2.76c0-1.01.23-1.93.68-2.74a5.11 5.11 0 0 1 4.66-2.68 5.1 5.1 0 0 1 4.64 2.68c.45.81.68 1.73.68 2.74 0 1.03-.23 1.95-.68 2.76a5.15 5.15 0 0 1-4.64 2.66Zm0-1.98c.57 0 1.09-.13 1.57-.4.48-.28.87-.67 1.16-1.18.3-.52.46-1.14.46-1.86 0-.72-.15-1.33-.46-1.84a3 3 0 0 0-1.16-1.18 3.15 3.15 0 0 0-4.32 1.18c-.3.5-.44 1.12-.44 1.84s.15 1.34.44 1.86c.3.5.7.9 1.18 1.18.5.27 1.02.4 1.58.4Zm11.92 6.3c-.9 0-1.67-.15-2.32-.44a4.39 4.39 0 0 1-2.42-2.46l2-.84a2.88 2.88 0 0 0 2.74 1.82 2.9 2.9 0 0 0 2.2-.84c.55-.56.82-1.35.82-2.38v-.98h-.12c-.32.48-.77.87-1.34 1.16-.56.28-1.2.42-1.92.42-.87 0-1.66-.22-2.38-.66a4.92 4.92 0 0 1-1.74-1.84 5.72 5.72 0 0 1-.66-2.8c0-1.08.22-2.01.66-2.8a4.88 4.88 0 0 1 1.74-1.86 4.48 4.48 0 0 1 4.3-.22c.57.3 1.02.68 1.34 1.16h.12V21.8H319v9.66c0 1.1-.22 2.05-.66 2.82a4.27 4.27 0 0 1-1.78 1.76c-.76.4-1.64.6-2.64.6Zm.02-6.5c.53 0 1.02-.13 1.48-.38.45-.27.82-.65 1.1-1.14.28-.5.42-1.11.42-1.82 0-.73-.14-1.35-.42-1.84a2.84 2.84 0 0 0-2.58-1.52 2.97 2.97 0 0 0-2.6 1.52c-.28.5-.42 1.1-.42 1.84 0 .72.14 1.33.42 1.84a2.86 2.86 0 0 0 2.6 1.5Zm7.6 1.86V17.68h2.17V32h-2.16Zm9.27.32a5.04 5.04 0 0 1-4.54-2.62 5.75 5.75 0 0 1-.65-2.78c0-.97.2-1.87.63-2.7a5.1 5.1 0 0 1 1.79-1.98c.77-.5 1.65-.76 2.65-.76a5 5 0 0 1 2.69.68 4.41 4.41 0 0 1 1.7 1.86 5.96 5.96 0 0 1 .54 3.34h-7.88a3.3 3.3 0 0 0 1.06 2.28c.6.5 1.3.76 2.07.76a3 3 0 0 0 1.73-.46c.45-.32.8-.71 1.07-1.18l1.78.86a5.52 5.52 0 0 1-1.8 1.96c-.75.5-1.7.74-2.83.74Zm-.1-9a2.7 2.7 0 0 0-1.83.66c-.51.44-.85 1.03-1.02 1.76h5.65c-.02-.35-.13-.7-.33-1.08a2.73 2.73 0 0 0-2.46-1.34ZM344.45 32l-3.84-14.32h2.44l2.28 9.3.24 1.24h.12l.3-1.24 2.88-9.3h2.2l2.76 9.3.3 1.22h.12l.24-1.22 2.28-9.3h2.42L355.4 32h-2.32l-2.74-9.5-.32-1.34h-.12l-.34 1.34-2.86 9.5h-2.26Zm18.75.32c-.73 0-1.38-.14-1.96-.42a3.3 3.3 0 0 1-1.82-3c0-.72.19-1.33.56-1.84.39-.52.9-.91 1.54-1.18.64-.27 1.35-.4 2.12-.4a6.97 6.97 0 0 1 2.8.56v-.54c0-.67-.24-1.2-.72-1.6a2.8 2.8 0 0 0-1.86-.6 3.2 3.2 0 0 0-1.48.36c-.46.23-.84.54-1.12.94l-1.48-1.14a4.5 4.5 0 0 1 1.74-1.44 5.38 5.38 0 0 1 2.4-.54c1.48 0 2.62.37 3.42 1.1.8.72 1.2 1.73 1.2 3.04V32h-2.1v-1.26h-.12a3.66 3.66 0 0 1-3.12 1.58Zm.38-1.76c.56 0 1.06-.13 1.48-.4a2.87 2.87 0 0 0 1.38-2.46c-.3-.17-.66-.31-1.08-.42a4.71 4.71 0 0 0-1.32-.18c-.88 0-1.5.18-1.88.54-.37.35-.56.77-.56 1.28 0 .48.18.87.54 1.18.36.3.84.46 1.44.46Zm7.36 1.44V17.68h2.16V32h-2.16Zm4.73 0V17.68h2.16V32h-2.16Zm9.27.32a5.04 5.04 0 0 1-4.54-2.62 5.75 5.75 0 0 1-.66-2.78c0-.97.2-1.87.64-2.7a5.1 5.1 0 0 1 1.78-1.98c.77-.5 1.66-.76 2.66-.76a5 5 0 0 1 2.68.68 4.41 4.41 0 0 1 1.7 1.86 5.96 5.96 0 0 1 .54 3.34h-7.88a3.3 3.3 0 0 0 1.06 2.28c.6.5 1.3.76 2.08.76a3 3 0 0 0 1.72-.46c.45-.32.8-.71 1.08-1.18l1.78.86a5.52 5.52 0 0 1-1.8 1.96c-.76.5-1.71.74-2.84.74Zm-.1-9a2.7 2.7 0 0 0-1.84.66c-.51.44-.85 1.03-1.02 1.76h5.66c-.03-.35-.14-.7-.34-1.08a2.73 2.73 0 0 0-2.46-1.34Zm7.73 5.72v-5.36h-1.78V21.8h1.78v-2.88h2.16v2.88h2.5v1.88h-2.5v4.9c0 .5.1.9.3 1.16.21.27.56.4 1.06.4.25 0 .46-.03.64-.1s.37-.16.56-.28v2.1a4.13 4.13 0 0 1-1.62.3 3.1 3.1 0 0 1-2.26-.82 3.1 3.1 0 0 1-.84-2.3Z" fill="#fff"/>
  <rect x=".5" y=".5" width="419" height="49" rx="24.5" stroke="#747775"/>
</svg>
