<svg width="339" height="50" fill="none" xmlns="http://www.w3.org/2000/svg">
  <defs>
    <linearGradient id="a" x1="34.57" y1="30.79" x2="18.73" y2="48.91" gradientUnits="userSpaceOnUse">
      <stop stop-color="#4285F4"/>
      <stop offset="1" stop-color="#1B74E8"/>
    </linearGradient>
  </defs>
  <rect x=".5" y=".5" width="338" height="49" rx="24.5" fill="#1F1F1F"/>
  <path d="M51 22H21v-5c0-2.71 2.2-5 4.82-5h20.36A4.97 4.97 0 0 1 51 17v5Z" fill="#34A853"/>
  <path d="M51 26.05H21v-5c0-2.71 2.2-5 4.82-5h20.36a4.97 4.97 0 0 1 4.82 5v5Z" fill="#FBBC04"/>
  <path d="M51 30.25H21v-5c0-2.72 2.2-5 4.82-5h20.36a4.97 4.97 0 0 1 4.82 5v5Z" fill="#EA4335"/>
  <path d="m21 23.28 19.04 4.4c2.2.55 4.66 0 6.44-1.38L51 23v10.32c0 2.62-2.2 4.68-4.8 4.68H25.8c-2.6 0-4.8-2.06-4.8-4.68V23.28Z" fill="url(#a)"/>
  <path d="M64.62 32V17.68h4.92c.87 0 1.65.19 2.36.56.7.37 1.27.89 1.68 1.54.43.65.64 1.41.64 2.28a4.17 4.17 0 0 1-2.32 3.84c-.7.36-1.5.54-2.36.54h-2.72V32h-2.2Zm4.98-12.24h-2.78v4.6h2.78c.52 0 .96-.1 1.32-.32.36-.23.63-.51.82-.86a2.17 2.17 0 0 0 0-2.22 2.3 2.3 0 0 0-2.14-1.2ZM76.12 32V21.8h2.04v1.5h.12a2.8 2.8 0 0 1 1.16-1.28 3.36 3.36 0 0 1 2.5-.46c.2.04.38.09.54.14v2.24c-.26-.1-.52-.2-.78-.26-.26-.07-.52-.1-.8-.1-.51 0-.96.14-1.36.42-.4.27-.7.63-.92 1.1a3.3 3.3 0 0 0-.34 1.5V32h-2.16Zm9.26-11.7c-.4 0-.74-.14-1.04-.42-.28-.3-.42-.64-.42-1.04s.14-.74.42-1.02c.3-.28.64-.42 1.04-.42s.74.14 1.02.42c.3.28.44.62.44 1.02s-.14.75-.44 1.04c-.28.28-.62.42-1.02.42ZM84.3 32V21.8h2.16V32H84.3Zm9.1.32c-.91 0-1.75-.23-2.5-.68a5.1 5.1 0 0 1-1.75-1.92 6.06 6.06 0 0 1-.64-2.82c0-1.05.2-1.99.64-2.8a5.1 5.1 0 0 1 1.76-1.92c.74-.47 1.58-.7 2.5-.7.78 0 1.46.17 2.02.52.57.35.99.74 1.26 1.18h.12l-.12-1.42v-4.08h2.14V32H96.8v-1.36h-.12c-.27.44-.7.83-1.26 1.18-.56.33-1.24.5-2.02.5Zm.33-1.98a3.03 3.03 0 0 0 2.64-1.6c.29-.52.44-1.13.44-1.84 0-.7-.15-1.31-.44-1.82a3 3 0 0 0-2.64-1.62c-.54 0-1.04.14-1.5.42a3.2 3.2 0 0 0-1.14 1.2c-.3.5-.44 1.11-.44 1.82 0 .7.14 1.32.44 1.84.29.5.67.9 1.14 1.18.46.28.96.42 1.5.42Zm12.2 1.98a5.04 5.04 0 0 1-4.54-2.62 5.75 5.75 0 0 1-.66-2.78c0-.97.21-1.87.64-2.7a5.1 5.1 0 0 1 1.78-1.98c.77-.5 1.66-.76 2.66-.76a5 5 0 0 1 2.68.68 4.41 4.41 0 0 1 1.7 1.86 5.96 5.96 0 0 1 .54 3.34h-7.88a3.3 3.3 0 0 0 1.06 2.28c.62.5 1.3.76 2.08.76a3 3 0 0 0 1.72-.46c.46-.32.82-.71 1.08-1.18l1.78.86a5.52 5.52 0 0 1-1.8 1.96c-.76.5-1.7.74-2.84.74Zm-.1-9a2.7 2.7 0 0 0-1.84.66c-.5.44-.84 1.03-1.02 1.76h5.66c-.02-.35-.14-.7-.34-1.08a2.73 2.73 0 0 0-2.46-1.34Zm-.02-3.52c-.34 0-.64-.13-.9-.38a1.25 1.25 0 0 1-.38-.92c0-.36.13-.66.38-.9.26-.25.56-.38.9-.38.38 0 .68.13.92.38.24.24.36.54.36.9s-.12.67-.36.92-.55.38-.92.38Zm7.75 9.24v-5.36h-1.78V21.8h1.78v-2.88h2.16v2.88h2.5v1.88h-2.5v4.9c0 .5.1.9.3 1.16.22.27.57.4 1.06.4.26 0 .47-.03.64-.1.19-.07.38-.16.56-.28v2.1a4.13 4.13 0 0 1-1.62.3 3.1 3.1 0 0 1-2.26-.82 3.1 3.1 0 0 1-.84-2.3Zm8.07-8.74c-.4 0-.74-.14-1.04-.42-.28-.3-.42-.64-.42-1.04s.14-.74.42-1.02c.3-.28.64-.42 1.04-.42s.74.14 1.02.42c.3.28.44.62.44 1.02s-.14.75-.44 1.04c-.28.28-.62.42-1.02.42ZM120.55 32V21.8h2.16V32h-2.16Zm9.5 4.32V21.8h2.01v1.38h.12c.27-.44.68-.83 1.24-1.18a4.56 4.56 0 0 1 4.54.18c.73.47 1.31 1.1 1.74 1.92.44.81.66 1.75.66 2.8 0 1.05-.22 2-.66 2.82a4.66 4.66 0 0 1-4.24 2.6 3.65 3.65 0 0 1-3.28-1.68h-.12l.12 1.42v4.26h-2.14Zm5.1-5.98c.52 0 1.02-.14 1.5-.42.46-.28.84-.67 1.13-1.18.3-.52.44-1.13.44-1.84 0-.7-.15-1.31-.44-1.82a3.2 3.2 0 0 0-1.14-1.2 2.87 2.87 0 0 0-3 0c-.47.28-.85.68-1.14 1.2-.3.5-.44 1.11-.44 1.82 0 .7.15 1.32.44 1.84.3.5.67.9 1.14 1.18.47.28.97.42 1.5.42Zm7.1 1.66V21.8h2.04v1.5h.12c.22-.52.61-.95 1.16-1.28a3.36 3.36 0 0 1 2.5-.46c.2.04.38.09.54.14v2.24c-.26-.1-.52-.2-.78-.26-.26-.07-.52-.1-.8-.1-.5 0-.96.14-1.36.42-.39.27-.7.63-.92 1.1-.23.45-.34.95-.34 1.5V32h-2.16Zm9.27-11.7c-.4 0-.75-.14-1.04-.42-.28-.3-.42-.64-.42-1.04s.14-.74.42-1.02c.29-.28.64-.42 1.04-.42s.74.14 1.02.42a1.42 1.42 0 0 1 0 2.06c-.28.28-.62.42-1.02.42ZM150.44 32V21.8h2.16V32h-2.16Zm9.4.32a5.04 5.04 0 0 1-4.54-2.62 5.75 5.75 0 0 1-.66-2.78c0-.97.21-1.87.64-2.7a5.11 5.11 0 0 1 1.78-1.98c.77-.5 1.66-.76 2.66-.76a5 5 0 0 1 2.68.68 4.4 4.4 0 0 1 1.7 1.86 5.95 5.95 0 0 1 .54 3.34h-7.88a3.3 3.3 0 0 0 1.06 2.28c.61.5 1.3.76 2.08.76a3 3 0 0 0 1.72-.46c.45-.32.81-.71 1.08-1.18l1.78.86a5.52 5.52 0 0 1-1.8 1.96c-.76.5-1.7.74-2.84.74Zm-.1-9c-.72 0-1.34.22-1.84.66-.5.44-.85 1.03-1.02 1.76h5.66c-.03-.35-.14-.7-.34-1.08a2.72 2.72 0 0 0-2.46-1.34ZM179.4 32.32a7.54 7.54 0 0 1-5.28-2.12 7.6 7.6 0 0 1-1.64-2.38 7.6 7.6 0 0 1-.58-2.98 7.46 7.46 0 0 1 2.2-5.34 7.43 7.43 0 0 1 5.3-2.14c1.1 0 2.1.2 3.02.58.93.39 1.71.93 2.34 1.62l-1.52 1.5a4.74 4.74 0 0 0-1.68-1.2 5.34 5.34 0 0 0-2.16-.42 5.22 5.22 0 0 0-5.28 5.4c0 1.1.25 2.05.74 2.86.5.8 1.14 1.43 1.94 1.88a5.66 5.66 0 0 0 4.98.18 4.28 4.28 0 0 0 2.5-3.56h-4.9v-1.94h6.96c.08.36.12.74.12 1.14v.02c0 1.39-.3 2.6-.92 3.64a6.28 6.28 0 0 1-2.5 2.4 7.57 7.57 0 0 1-3.64.86Zm13.5 0a5.15 5.15 0 0 1-4.66-2.66 5.57 5.57 0 0 1-.68-2.76c0-1.01.23-1.93.68-2.74a5.1 5.1 0 0 1 4.66-2.68 5.1 5.1 0 0 1 4.64 2.68c.45.81.68 1.73.68 2.74 0 1.03-.23 1.95-.68 2.76a5.15 5.15 0 0 1-4.64 2.66Zm0-1.98c.56 0 1.08-.13 1.56-.4.48-.28.87-.67 1.16-1.18.3-.52.46-1.14.46-1.86 0-.72-.15-1.33-.46-1.84a3 3 0 0 0-1.16-1.18 3.15 3.15 0 0 0-4.32 1.18c-.3.5-.44 1.12-.44 1.84s.15 1.34.44 1.86c.3.5.7.9 1.18 1.18.5.27 1.02.4 1.58.4Zm12.1 1.98a5.15 5.15 0 0 1-4.66-2.66 5.57 5.57 0 0 1-.67-2.76c0-1.01.23-1.93.68-2.74a5.11 5.11 0 0 1 4.66-2.68 5.1 5.1 0 0 1 4.64 2.68c.45.81.68 1.73.68 2.74 0 1.03-.23 1.95-.68 2.76a5.15 5.15 0 0 1-4.64 2.66Zm0-1.98c.57 0 1.09-.13 1.57-.4.48-.28.87-.67 1.16-1.18.3-.52.46-1.14.46-1.86 0-.72-.15-1.33-.46-1.84a3 3 0 0 0-1.16-1.18 3.15 3.15 0 0 0-4.32 1.18c-.3.5-.44 1.12-.44 1.84s.15 1.34.44 1.86c.3.5.7.9 1.18 1.18.5.27 1.02.4 1.58.4Zm11.92 6.3c-.9 0-1.67-.15-2.32-.44a4.39 4.39 0 0 1-2.42-2.46l2-.84a2.88 2.88 0 0 0 2.74 1.82 2.9 2.9 0 0 0 2.2-.84c.54-.56.82-1.35.82-2.38v-.98h-.12c-.32.48-.77.87-1.34 1.16-.56.28-1.2.42-1.92.42-.87 0-1.66-.22-2.38-.66a4.92 4.92 0 0 1-1.74-1.84 5.72 5.72 0 0 1-.66-2.8c0-1.08.22-2.01.66-2.8a4.88 4.88 0 0 1 1.74-1.86 4.48 4.48 0 0 1 4.3-.22c.57.3 1.02.68 1.34 1.16h.12V21.8H222v9.66c0 1.1-.22 2.05-.66 2.82a4.27 4.27 0 0 1-1.78 1.76c-.76.4-1.64.6-2.64.6Zm.02-6.5c.53 0 1.03-.13 1.48-.38.45-.27.82-.65 1.1-1.14.28-.5.42-1.11.42-1.82 0-.73-.14-1.35-.42-1.84a2.84 2.84 0 0 0-2.58-1.52 2.97 2.97 0 0 0-2.6 1.52c-.28.5-.42 1.1-.42 1.84 0 .72.14 1.33.42 1.84a2.86 2.86 0 0 0 2.6 1.5Zm7.6 1.86V17.68h2.17V32h-2.16Zm9.28.32a5.04 5.04 0 0 1-4.54-2.62 5.75 5.75 0 0 1-.66-2.78c0-.97.2-1.87.63-2.7a5.1 5.1 0 0 1 1.78-1.98c.78-.5 1.66-.76 2.66-.76a5 5 0 0 1 2.69.68 4.41 4.41 0 0 1 1.7 1.86 5.96 5.96 0 0 1 .53 3.34h-7.88a3.3 3.3 0 0 0 1.06 2.28c.62.5 1.31.76 2.09.76a3 3 0 0 0 1.72-.46c.45-.32.8-.71 1.08-1.18l1.78.86a5.52 5.52 0 0 1-1.8 1.96c-.76.5-1.71.74-2.84.74Zm-.1-9a2.7 2.7 0 0 0-1.84.66c-.51.44-.85 1.03-1.03 1.76h5.66c-.02-.35-.13-.7-.33-1.08a2.73 2.73 0 0 0-2.46-1.34ZM245.69 32V17.68h4.92c.86 0 1.65.19 2.36.56.7.37 1.26.89 1.68 1.54.42.65.64 1.41.64 2.28 0 .87-.22 1.63-.64 2.3a4.35 4.35 0 0 1-1.68 1.54c-.71.36-1.5.54-2.36.54h-2.72V32h-2.2Zm4.98-12.24h-2.78v4.6h2.78c.52 0 .96-.1 1.32-.32.36-.23.63-.51.82-.86a2.17 2.17 0 0 0 0-2.22 2.3 2.3 0 0 0-2.14-1.2Zm7.75.54c-.4 0-.75-.14-1.04-.42-.28-.3-.42-.64-.42-1.04s.14-.74.42-1.02c.3-.28.64-.42 1.04-.42s.74.14 1.02.42c.3.28.44.62.44 1.02s-.14.75-.44 1.04c-.28.28-.62.42-1.02.42ZM257.34 32V21.8h2.16V32h-2.16Zm4.84 0V21.8h2.04v1.4h.12a3.82 3.82 0 0 1 3.22-1.72c1.25 0 2.2.37 2.82 1.12.63.75.94 1.73.94 2.96V32h-2.14v-6.16c0-.83-.2-1.43-.62-1.8a2.27 2.27 0 0 0-1.62-.58c-.52 0-.97.15-1.36.44-.38.28-.7.65-.92 1.12-.21.47-.32.97-.32 1.5V32h-2.16Zm12.84-11.7c-.4 0-.74-.14-1.04-.42-.28-.3-.42-.64-.42-1.04s.14-.74.42-1.02c.3-.28.64-.42 1.04-.42s.74.14 1.02.42c.3.28.44.62.44 1.02s-.14.75-.44 1.04c-.28.28-.62.42-1.02.42ZM273.94 32V21.8h2.16V32h-2.16Zm9.35 4.64c-.9 0-1.67-.15-2.32-.44a4.39 4.39 0 0 1-2.42-2.46l2-.84a2.88 2.88 0 0 0 2.74 1.82 2.9 2.9 0 0 0 2.2-.84c.54-.56.82-1.35.82-2.38v-.98h-.12c-.32.48-.77.87-1.34 1.16-.56.28-1.2.42-1.92.42-.87 0-1.66-.22-2.38-.66a4.92 4.92 0 0 1-1.74-1.84 5.72 5.72 0 0 1-.66-2.8c0-1.08.22-2.01.66-2.8a4.88 4.88 0 0 1 1.74-1.86 4.48 4.48 0 0 1 4.3-.22c.57.3 1.02.68 1.34 1.16h.12V21.8h2.06v9.66c0 1.1-.22 2.05-.66 2.82a4.27 4.27 0 0 1-1.78 1.76c-.76.4-1.64.6-2.64.6Zm.02-6.5c.53 0 1.02-.13 1.48-.38.45-.27.82-.65 1.1-1.14.28-.5.42-1.11.42-1.82 0-.73-.14-1.35-.42-1.84a2.84 2.84 0 0 0-2.58-1.52 2.97 2.97 0 0 0-2.6 1.52c-.28.5-.42 1.1-.42 1.84 0 .72.14 1.33.42 1.84a2.86 2.86 0 0 0 2.6 1.5Zm8.82-9.84c-.4 0-.74-.14-1.04-.42-.28-.3-.42-.64-.42-1.04s.14-.74.42-1.02c.3-.28.64-.42 1.04-.42s.74.14 1.02.42c.3.28.44.62.44 1.02s-.14.75-.44 1.04c-.28.28-.62.42-1.02.42ZM291.05 32V21.8h2.16V32h-2.16Zm4.84 0V21.8h2.04v1.4h.12a3.82 3.82 0 0 1 3.22-1.72c1.26 0 2.2.37 2.82 1.12.63.75.94 1.73.94 2.96V32h-2.14v-6.16c0-.83-.2-1.43-.62-1.8a2.28 2.28 0 0 0-1.62-.58c-.52 0-.97.15-1.36.44-.38.28-.7.65-.92 1.12-.21.47-.32.97-.32 1.5V32h-2.16Zm16.26.32a5.06 5.06 0 0 1-4.54-2.62 5.75 5.75 0 0 1-.66-2.78c0-.97.22-1.87.64-2.7a5.11 5.11 0 0 1 1.78-1.98c.78-.5 1.66-.76 2.66-.76a5 5 0 0 1 2.68.68 4.4 4.4 0 0 1 1.7 1.86 5.95 5.95 0 0 1 .54 3.34h-7.88a3.3 3.3 0 0 0 1.06 2.28c.62.5 1.31.76 2.08.76a3 3 0 0 0 1.72-.46c.46-.32.82-.71 1.08-1.18l1.78.86a5.52 5.52 0 0 1-1.8 1.96c-.76.5-1.7.74-2.84.74Zm-.1-9c-.72 0-1.33.22-1.84.66-.5.44-.84 1.03-1.02 1.76h5.66c-.02-.35-.14-.7-.34-1.08a2.72 2.72 0 0 0-2.46-1.34Zm-.02-3.52c-.34 0-.64-.13-.9-.38a1.25 1.25 0 0 1-.38-.92c0-.36.13-.66.38-.9.26-.25.56-.38.9-.38.38 0 .68.13.92.38.24.24.36.54.36.9s-.12.67-.36.92-.54.38-.92.38Z" fill="#fff"/>
  <rect x=".5" y=".5" width="338" height="49" rx="24.5" stroke="#747775"/>
</svg>
