<svg width="320" height="50" fill="none" xmlns="http://www.w3.org/2000/svg">
  <defs>
    <linearGradient id="a" x1="34.57" y1="30.79" x2="18.73" y2="48.91" gradientUnits="userSpaceOnUse">
      <stop stop-color="#4285F4"/>
      <stop offset="1" stop-color="#1B74E8"/>
    </linearGradient>
  </defs>
  <rect x=".5" y=".5" width="319" height="49" rx="24.5" fill="#1F1F1F"/>
  <path d="M51 22H21v-5c0-2.71 2.2-5 4.82-5h20.36A4.97 4.97 0 0 1 51 17v5Z" fill="#34A853"/>
  <path d="M51 26.05H21v-5c0-2.71 2.2-5 4.82-5h20.36a4.97 4.97 0 0 1 4.82 5v5Z" fill="#FBBC04"/>
  <path d="M51 30.25H21v-5c0-2.72 2.2-5 4.82-5h20.36a4.97 4.97 0 0 1 4.82 5v5Z" fill="#EA4335"/>
  <path d="m21 23.28 19.04 4.4c2.2.55 4.66 0 6.44-1.38L51 23v10.32c0 2.62-2.2 4.68-4.8 4.68H25.8c-2.6 0-4.8-2.06-4.8-4.68V23.28Z" fill="url(#a)"/>
  <path d="M64.62 32V17.68h4.58c1.5 0 2.8.3 3.88.92a6.2 6.2 0 0 1 2.52 2.52c.6 1.08.9 2.32.9 3.72 0 1.41-.3 2.66-.9 3.74a6.36 6.36 0 0 1-2.52 2.52c-1.08.6-2.37.9-3.88.9h-4.58Zm2.2-2.08h2.32c1.63 0 2.89-.45 3.78-1.36.9-.9 1.36-2.15 1.36-3.72 0-1.57-.45-2.81-1.36-3.72a5.07 5.07 0 0 0-3.78-1.36h-2.32v10.16Zm16.34 2.4a5.15 5.15 0 0 1-4.66-2.66 5.57 5.57 0 0 1-.68-2.76c0-1.01.23-1.93.68-2.74a5.1 5.1 0 0 1 4.66-2.68 5.1 5.1 0 0 1 4.64 2.68c.45.81.68 1.73.68 2.74 0 1.03-.23 1.95-.68 2.76a5.15 5.15 0 0 1-4.64 2.66Zm0-1.98c.56 0 1.08-.13 1.56-.4.48-.28.87-.67 1.16-1.18.3-.52.46-1.14.46-1.86 0-.72-.15-1.33-.46-1.84a3 3 0 0 0-1.16-1.18 3.15 3.15 0 0 0-4.32 1.18c-.3.5-.44 1.12-.44 1.84s.15 1.34.44 1.86c.3.5.7.9 1.18 1.18.5.27 1.02.4 1.58.4Zm11.67 1.98c-.92 0-1.75-.23-2.5-.68a5.1 5.1 0 0 1-1.76-1.92 6.06 6.06 0 0 1-.64-2.82c0-1.05.21-1.99.64-2.8a5.1 5.1 0 0 1 1.76-1.92c.75-.47 1.58-.7 2.5-.7.79 0 1.46.17 2.02.52.57.35 1 .74 1.26 1.18h.12l-.12-1.42v-4.08h2.14V32h-2.02v-1.36h-.12c-.27.44-.69.83-1.26 1.18-.56.33-1.23.5-2.02.5Zm.32-1.98a3.03 3.03 0 0 0 2.64-1.6c.3-.52.44-1.13.44-1.84 0-.7-.15-1.31-.44-1.82a3 3 0 0 0-2.64-1.62c-.53 0-1.03.14-1.5.42a3.2 3.2 0 0 0-1.14 1.2c-.3.5-.44 1.11-.44 1.82 0 .7.15 1.32.44 1.84.3.5.67.9 1.14 1.18.47.28.97.42 1.5.42Zm10.75 1.98a4.4 4.4 0 0 1-1.96-.42 3.3 3.3 0 0 1-1.82-3c0-.72.18-1.33.56-1.84.38-.52.9-.91 1.54-1.18.64-.27 1.34-.4 2.12-.4a6.97 6.97 0 0 1 2.8.56v-.54c0-.67-.24-1.2-.72-1.6a2.8 2.8 0 0 0-1.86-.6c-.52 0-1.02.12-1.48.36-.47.23-.84.54-1.12.94l-1.48-1.14a4.5 4.5 0 0 1 1.74-1.44 5.37 5.37 0 0 1 2.4-.54c1.48 0 2.62.37 3.42 1.1.8.72 1.2 1.73 1.2 3.04V32h-2.1v-1.26h-.12a3.67 3.67 0 0 1-3.12 1.58Zm.38-1.76c.56 0 1.05-.13 1.48-.4a2.88 2.88 0 0 0 1.38-2.46c-.3-.17-.67-.31-1.08-.42a4.72 4.72 0 0 0-1.32-.18c-.88 0-1.5.18-1.88.54-.38.35-.56.77-.56 1.28 0 .48.18.87.54 1.18.36.3.84.46 1.44.46Zm8.58-10.26c-.4 0-.75-.14-1.05-.42-.28-.3-.42-.64-.42-1.04s.14-.74.42-1.02c.3-.28.64-.42 1.05-.42.4 0 .73.14 1.02.42a1.42 1.42 0 0 1 0 2.06c-.28.28-.63.42-1.02.42Zm-1.94 16.22c-.42 0-.8-.05-1.13-.14V34.3c.14.08.3.14.46.18.17.05.33.08.48.08.4 0 .66-.12.8-.36.16-.23.25-.56.25-1V21.8h2.16v11.42c0 1.17-.3 2.01-.86 2.52a3.1 3.1 0 0 1-2.16.78Zm14.72-4.2c-.92 0-1.75-.23-2.5-.68a5.1 5.1 0 0 1-1.76-1.92 6.07 6.07 0 0 1-.64-2.82c0-1.05.22-1.99.64-2.8a5.1 5.1 0 0 1 1.76-1.92c.75-.47 1.58-.7 2.5-.7.79 0 1.46.17 2.02.52.58.35 1 .74 1.26 1.18h.12l-.12-1.42v-4.08h2.14V32h-2.02v-1.36h-.12a3.6 3.6 0 0 1-1.26 1.18c-.56.33-1.23.5-2.02.5Zm.32-1.98a3.03 3.03 0 0 0 2.64-1.6c.3-.52.44-1.13.44-1.84 0-.7-.14-1.31-.44-1.82a3 3 0 0 0-2.64-1.62c-.53 0-1.03.14-1.5.42a3.2 3.2 0 0 0-1.14 1.2c-.29.5-.44 1.11-.44 1.82 0 .7.15 1.32.44 1.84.3.5.68.9 1.14 1.18.47.28.97.42 1.5.42Zm12.35 1.98a5.15 5.15 0 0 1-4.66-2.66 5.57 5.57 0 0 1-.68-2.76c0-1.01.23-1.93.68-2.74a5.1 5.1 0 0 1 4.66-2.68 5.1 5.1 0 0 1 4.64 2.68c.45.81.68 1.73.68 2.74 0 1.03-.23 1.95-.68 2.76a5.15 5.15 0 0 1-4.64 2.66Zm0-1.98c.56 0 1.08-.13 1.56-.4.48-.28.87-.67 1.16-1.18.3-.52.46-1.14.46-1.86 0-.72-.15-1.33-.46-1.84a3 3 0 0 0-1.16-1.18 3.15 3.15 0 0 0-4.32 1.18c-.3.5-.44 1.12-.44 1.84s.15 1.34.44 1.86c.3.5.7.9 1.18 1.18.5.27 1.02.4 1.58.4ZM153.62 32V17.68h4.92c.87 0 1.65.19 2.36.56.7.37 1.27.89 1.68 1.54.43.65.64 1.41.64 2.28 0 .87-.21 1.63-.64 2.3a4.35 4.35 0 0 1-1.68 1.54c-.7.36-1.5.54-2.36.54h-2.72V32h-2.2Zm4.98-12.24h-2.78v4.6h2.78c.52 0 .96-.1 1.32-.32.36-.23.63-.51.82-.86a2.17 2.17 0 0 0 0-2.22 2.3 2.3 0 0 0-2.14-1.2Zm10.61 12.56a5.15 5.15 0 0 1-4.66-2.66 5.57 5.57 0 0 1-.68-2.76c0-1.01.23-1.93.68-2.74a5.11 5.11 0 0 1 4.66-2.68 5.1 5.1 0 0 1 4.64 2.68c.46.81.68 1.73.68 2.74 0 1.03-.22 1.95-.68 2.76a5.15 5.15 0 0 1-4.64 2.66Zm0-1.98c.56 0 1.08-.13 1.56-.4.48-.28.87-.67 1.16-1.18.3-.52.46-1.14.46-1.86 0-.72-.15-1.33-.46-1.84a3 3 0 0 0-1.16-1.18 3.15 3.15 0 0 0-4.32 1.18c-.3.5-.44 1.12-.44 1.84s.15 1.34.44 1.86c.3.5.7.9 1.18 1.18.5.27 1.02.4 1.58.4Zm16.3-1.3v-5.36h-1.78V21.8h1.78v-2.88h2.16v2.88h2.5v1.88h-2.5v4.9c0 .5.1.9.3 1.16.21.27.56.4 1.06.4.25 0 .46-.03.64-.1s.37-.16.56-.28v2.1a4.08 4.08 0 0 1-1.6.3c-.96 0-1.72-.27-2.28-.82a3.1 3.1 0 0 1-.84-2.3ZM176.33 32V21.8h2.04v1.5h.12c.26-.56.68-1 1.24-1.3a3.6 3.6 0 0 1 1.82-.48c.37 0 .65.03.84.08v2.16a3.6 3.6 0 0 0-1.08-.14c-.86 0-1.54.27-2.06.82-.51.55-.76 1.29-.76 2.22V32h-2.16Zm17.29 0v-8.32h-1.86V21.8h1.86v-.84c0-.72.15-1.33.46-1.84.3-.52.72-.91 1.24-1.18a4.54 4.54 0 0 1 3.38-.18v2.1a7.78 7.78 0 0 0-.6-.2 2.3 2.3 0 0 0-.8-.12c-.41 0-.77.14-1.08.42-.3.27-.46.66-.46 1.18v.66h2.56v1.88h-2.56V32h-2.14Zm10.8.32a5.04 5.04 0 0 1-4.54-2.62 5.75 5.75 0 0 1-.66-2.78c0-.97.22-1.87.64-2.7a5.11 5.11 0 0 1 1.78-1.98c.78-.5 1.66-.76 2.66-.76a5 5 0 0 1 2.68.68 4.4 4.4 0 0 1 1.7 1.86 5.95 5.95 0 0 1 .54 3.34h-7.88a3.3 3.3 0 0 0 1.06 2.28c.62.5 1.31.76 2.08.76a3 3 0 0 0 1.72-.46c.46-.32.82-.71 1.08-1.18l1.78.86a5.52 5.52 0 0 1-1.8 1.96c-.76.5-1.7.74-2.84.74Zm-.1-9c-.72 0-1.33.22-1.84.66-.5.44-.84 1.03-1.02 1.76h5.66c-.02-.35-.14-.7-.34-1.08a2.72 2.72 0 0 0-2.46-1.34ZM211.3 32V17.68h2.16V32h-2.16Zm7.8.32a4.4 4.4 0 0 1-1.95-.42 3.3 3.3 0 0 1-1.82-3c0-.72.18-1.33.56-1.84.38-.52.9-.91 1.54-1.18.64-.27 1.34-.4 2.12-.4a6.97 6.97 0 0 1 2.8.56v-.54c0-.67-.24-1.2-.72-1.6a2.8 2.8 0 0 0-1.86-.6c-.52 0-1.02.12-1.48.36-.47.23-.84.54-1.12.94l-1.48-1.14a4.5 4.5 0 0 1 1.74-1.44 5.37 5.37 0 0 1 2.4-.54c1.48 0 2.62.37 3.42 1.1.8.72 1.2 1.73 1.2 3.04V32h-2.1v-1.26h-.12a3.67 3.67 0 0 1-3.12 1.58Zm.39-1.76c.56 0 1.05-.13 1.48-.4a2.88 2.88 0 0 0 1.38-2.46c-.31-.17-.67-.31-1.08-.42a4.72 4.72 0 0 0-1.32-.18c-.88 0-1.51.18-1.88.54-.38.35-.56.77-.56 1.28 0 .48.18.87.54 1.18.36.3.84.46 1.44.46Zm18.75 1.76a7.54 7.54 0 0 1-5.28-2.12 7.6 7.6 0 0 1-1.64-2.38 7.6 7.6 0 0 1-.58-2.98 7.46 7.46 0 0 1 2.2-5.34 7.43 7.43 0 0 1 5.3-2.14c1.1 0 2.1.2 3.02.58.94.39 1.72.93 2.34 1.62l-1.52 1.5a4.74 4.74 0 0 0-1.68-1.2 5.34 5.34 0 0 0-2.16-.42 5.22 5.22 0 0 0-5.28 5.4c0 1.1.25 2.05.74 2.86.5.8 1.14 1.43 1.94 1.88a5.66 5.66 0 0 0 4.98.18 4.28 4.28 0 0 0 2.5-3.56h-4.9v-1.94h6.96c.08.36.12.74.12 1.14v.02c0 1.39-.3 2.6-.92 3.64a6.28 6.28 0 0 1-2.5 2.4 7.57 7.57 0 0 1-3.64.86Zm13.5 0a5.15 5.15 0 0 1-4.66-2.66 5.57 5.57 0 0 1-.68-2.76c0-1.01.23-1.93.68-2.74a5.1 5.1 0 0 1 4.66-2.68 5.1 5.1 0 0 1 4.64 2.68c.45.81.68 1.73.68 2.74 0 1.03-.23 1.95-.68 2.76a5.15 5.15 0 0 1-4.64 2.66Zm0-1.98c.56 0 1.08-.13 1.56-.4.48-.28.87-.67 1.16-1.18.3-.52.46-1.14.46-1.86 0-.72-.15-1.33-.46-1.84a3 3 0 0 0-1.16-1.18 3.15 3.15 0 0 0-4.32 1.18c-.3.5-.44 1.12-.44 1.84s.15 1.34.44 1.86c.3.5.7.9 1.18 1.18.5.27 1.02.4 1.58.4Zm12.11 1.98a5.15 5.15 0 0 1-4.66-2.66 5.57 5.57 0 0 1-.68-2.76c0-1.01.23-1.93.68-2.74a5.11 5.11 0 0 1 4.66-2.68 5.1 5.1 0 0 1 4.64 2.68c.45.81.68 1.73.68 2.74 0 1.03-.23 1.95-.68 2.76a5.15 5.15 0 0 1-4.64 2.66Zm0-1.98c.56 0 1.08-.13 1.56-.4.48-.28.87-.67 1.16-1.18.3-.52.46-1.14.46-1.86 0-.72-.15-1.33-.46-1.84a3 3 0 0 0-1.16-1.18 3.15 3.15 0 0 0-4.32 1.18c-.3.5-.44 1.12-.44 1.84s.15 1.34.44 1.86c.3.5.7.9 1.18 1.18.5.27 1.02.4 1.58.4Zm11.91 6.3c-.9 0-1.67-.15-2.32-.44a4.39 4.39 0 0 1-2.42-2.46l2-.84a2.88 2.88 0 0 0 2.74 1.82 2.9 2.9 0 0 0 2.2-.84c.55-.56.82-1.35.82-2.38v-.98h-.12c-.32.48-.77.87-1.34 1.16-.56.28-1.2.42-1.92.42-.87 0-1.66-.22-2.38-.66a4.92 4.92 0 0 1-1.74-1.84 5.72 5.72 0 0 1-.66-2.8c0-1.08.22-2.01.66-2.8a4.88 4.88 0 0 1 1.74-1.86 4.48 4.48 0 0 1 4.3-.22c.57.3 1.02.68 1.34 1.16h.12V21.8h2.06v9.66c0 1.1-.22 2.05-.66 2.82a4.27 4.27 0 0 1-1.78 1.76c-.76.4-1.64.6-2.64.6Zm.02-6.5c.53 0 1.03-.13 1.48-.38.45-.27.82-.65 1.1-1.14.28-.5.42-1.11.42-1.82 0-.73-.14-1.35-.42-1.84a2.84 2.84 0 0 0-2.58-1.52 2.97 2.97 0 0 0-2.6 1.52c-.28.5-.42 1.1-.42 1.84 0 .72.14 1.33.42 1.84a2.86 2.86 0 0 0 2.6 1.5Zm7.6 1.86V17.68h2.17V32h-2.16Zm9.28.32a5.04 5.04 0 0 1-4.54-2.62 5.75 5.75 0 0 1-.66-2.78c0-.97.21-1.87.64-2.7a5.1 5.1 0 0 1 1.78-1.98c.77-.5 1.66-.76 2.66-.76a5 5 0 0 1 2.68.68 4.41 4.41 0 0 1 1.7 1.86 5.96 5.96 0 0 1 .54 3.34h-7.88a3.3 3.3 0 0 0 1.06 2.28c.61.5 1.3.76 2.08.76a3 3 0 0 0 1.72-.46c.45-.32.81-.71 1.08-1.18l1.78.86a5.52 5.52 0 0 1-1.8 1.96c-.76.5-1.71.74-2.84.74Zm-.1-9a2.7 2.7 0 0 0-1.84.66c-.51.44-.85 1.03-1.02 1.76h5.66c-.03-.35-.14-.7-.34-1.08a2.73 2.73 0 0 0-2.46-1.34Z" fill="#fff"/>
  <rect x=".5" y=".5" width="319" height="49" rx="24.5" stroke="#747775"/>
</svg>
