<svg width="355" height="50" fill="none" xmlns="http://www.w3.org/2000/svg">
  <defs>
    <linearGradient id="a" x1="34.57" y1="30.79" x2="18.73" y2="48.91" gradientUnits="userSpaceOnUse">
      <stop stop-color="#4285F4"/>
      <stop offset="1" stop-color="#1B74E8"/>
    </linearGradient>
  </defs>
  <rect x=".5" y=".5" width="354" height="49" rx="24.5" fill="#1F1F1F"/>
  <path d="M51 22H21v-5c0-2.71 2.2-5 4.82-5h20.36A4.97 4.97 0 0 1 51 17v5Z" fill="#34A853"/>
  <path d="M51 26.05H21v-5c0-2.71 2.2-5 4.82-5h20.36a4.97 4.97 0 0 1 4.82 5v5Z" fill="#FBBC04"/>
  <path d="M51 30.25H21v-5c0-2.72 2.2-5 4.82-5h20.36a4.97 4.97 0 0 1 4.82 5v5Z" fill="#EA4335"/>
  <path d="m21 23.28 19.04 4.4c2.2.55 4.66 0 6.44-1.38L51 23v10.32c0 2.62-2.2 4.68-4.8 4.68H25.8c-2.6 0-4.8-2.06-4.8-4.68V23.28Z" fill="url(#a)"/>
  <path d="M63.74 35.04v-5.12H65c.3-.5.55-1.16.74-1.96.2-.81.34-1.7.42-2.68.1-.97.14-1.95.14-2.94v-4.66h9.18v12.24h1.68v5.12h-2.14V32h-9.14v3.04h-2.14Zm3.66-5.12h5.88V19.76h-4.84v2.9c0 1.45-.1 2.8-.28 4.02a14.06 14.06 0 0 1-.76 3.12v.12Zm16.35 2.4a5.15 5.15 0 0 1-4.66-2.66 5.57 5.57 0 0 1-.68-2.76c0-1.01.22-1.93.68-2.74a5.1 5.1 0 0 1 4.66-2.68 5.1 5.1 0 0 1 4.64 2.68c.45.81.68 1.73.68 2.74 0 1.03-.23 1.95-.68 2.76a5.15 5.15 0 0 1-4.64 2.66Zm0-1.98c.56 0 1.08-.13 1.56-.4.48-.28.86-.67 1.16-1.18.3-.52.46-1.14.46-1.86 0-.72-.16-1.33-.46-1.84a3 3 0 0 0-1.16-1.18 3.15 3.15 0 0 0-4.32 1.18c-.3.5-.44 1.12-.44 1.84s.14 1.34.44 1.86c.3.5.7.9 1.18 1.18.5.27 1.02.4 1.58.4Zm12.15 1.98c-1 0-1.89-.23-2.66-.68a4.76 4.76 0 0 1-1.8-2.1 8.44 8.44 0 0 1-.66-3.56c0-1.45.14-2.65.44-3.6.29-.96.78-1.73 1.46-2.32.42-.36.95-.66 1.58-.9a12.2 12.2 0 0 1 2.38-.58c.49-.08.85-.16 1.08-.24.22-.08.36-.17.42-.28a.7.7 0 0 0 .1-.38h1.96c0 .6-.1 1.08-.28 1.44-.18.35-.5.61-.96.8-.46.19-1.1.34-1.94.46-.88.13-1.56.3-2.02.48a3.47 3.47 0 0 0-2.32 2.92h.12c.3-.47.76-.85 1.36-1.16a4.52 4.52 0 0 1 2.12-.48 4.7 4.7 0 0 1 4.18 2.42c.41.75.62 1.6.62 2.54 0 .99-.22 1.88-.66 2.68a4.7 4.7 0 0 1-1.82 1.86c-.78.45-1.68.68-2.7.68Zm.02-1.94c.85 0 1.56-.3 2.14-.88.57-.59.86-1.4.86-2.44 0-.95-.29-1.69-.86-2.22a3.02 3.02 0 0 0-2.14-.8c-.83 0-1.54.27-2.12.8a2.88 2.88 0 0 0-.86 2.22c0 1.04.28 1.85.84 2.44.57.59 1.28.88 2.14.88Zm10.33 1.94c-.73 0-1.39-.14-1.96-.42a3.3 3.3 0 0 1-1.82-3c0-.72.19-1.33.56-1.84.39-.52.9-.91 1.54-1.18.64-.27 1.35-.4 2.12-.4a6.97 6.97 0 0 1 2.8.56v-.54c0-.67-.24-1.2-.72-1.6a2.8 2.8 0 0 0-1.86-.6 3.2 3.2 0 0 0-1.48.36c-.47.23-.84.54-1.12.94l-1.48-1.14a4.5 4.5 0 0 1 1.74-1.44 5.37 5.37 0 0 1 2.4-.54c1.48 0 2.62.37 3.42 1.1.8.72 1.2 1.73 1.2 3.04V32h-2.1v-1.26h-.12a3.66 3.66 0 0 1-3.12 1.58Zm.38-1.76c.56 0 1.05-.13 1.48-.4a2.87 2.87 0 0 0 1.38-2.46c-.3-.17-.67-.31-1.08-.42a4.71 4.71 0 0 0-1.32-.18c-.88 0-1.5.18-1.88.54-.37.35-.56.77-.56 1.28 0 .48.18.87.54 1.18.36.3.84.46 1.44.46Zm7.34 1.44V21.8h5.06c.6 0 1.13.12 1.6.36.48.23.85.54 1.12.94a2.56 2.56 0 0 1 .06 2.72c-.23.39-.53.67-.9.86v.12c.5.2.9.5 1.2.9.3.4.46.86.46 1.38 0 .6-.16 1.12-.48 1.56-.31.44-.71.78-1.2 1.02-.5.23-1.02.34-1.58.34h-5.34Zm2.16-8.44v2.4h2.64c.36 0 .66-.11.9-.34.24-.23.36-.51.36-.86 0-.36-.12-.65-.36-.86a1.26 1.26 0 0 0-.9-.34h-2.64Zm0 6.64h2.96c.38 0 .7-.12.96-.36.26-.25.4-.57.4-.96 0-.37-.14-.69-.4-.94a1.3 1.3 0 0 0-.96-.38h-2.96v2.64Zm8.44 1.8V21.8h2.16v5.22l-.12 1.92h.12l5.1-7.14h2.14V32h-2.14v-5.2l.12-1.92h-.12l-5.1 7.12h-2.16Zm14.54 0v-8.32h-3.36V21.8h8.86v1.88h-3.36V32h-2.14Zm9.42-10.2v3.4h2.34c.7 0 1.31.15 1.86.44a3.33 3.33 0 0 1 0 5.92c-.55.3-1.17.44-1.86.44h-4.5V21.8h2.16Zm0 8.4h2.16c.48 0 .88-.15 1.2-.46.32-.3.48-.69.48-1.14 0-.45-.16-.83-.48-1.14a1.63 1.63 0 0 0-1.2-.48h-2.16v3.22ZM161 32V21.8h5.06c.6 0 1.13.12 1.6.36.48.23.85.54 1.12.94a2.56 2.56 0 0 1 .06 2.72c-.23.39-.53.67-.9.86v.12c.5.2.9.5 1.2.9.3.4.46.86.46 1.38 0 .6-.16 1.12-.48 1.56-.3.44-.7.78-1.2 1.02-.5.23-1.02.34-1.58.34H161Zm2.16-8.44v2.4h2.64c.36 0 .66-.11.9-.34.24-.23.36-.51.36-.86 0-.36-.12-.65-.36-.86a1.26 1.26 0 0 0-.9-.34h-2.64Zm0 6.64h2.96c.38 0 .7-.12.96-.36.26-.25.4-.57.4-.96 0-.37-.13-.69-.4-.94a1.3 1.3 0 0 0-.96-.38h-2.96v2.64ZM184.4 32.32a7.54 7.54 0 0 1-5.28-2.12 7.6 7.6 0 0 1-1.64-2.38 7.6 7.6 0 0 1-.58-2.98 7.46 7.46 0 0 1 2.2-5.34 7.43 7.43 0 0 1 5.3-2.14c1.1 0 2.1.2 3.02.58.93.39 1.71.93 2.34 1.62l-1.52 1.5a4.74 4.74 0 0 0-1.68-1.2 5.34 5.34 0 0 0-2.16-.42 5.22 5.22 0 0 0-5.28 5.4c0 1.1.25 2.05.74 2.86.5.8 1.14 1.43 1.94 1.88a5.66 5.66 0 0 0 4.98.18 4.28 4.28 0 0 0 2.5-3.56h-4.9v-1.94h6.96c.08.36.12.74.12 1.14v.02c0 1.39-.3 2.6-.92 3.64a6.28 6.28 0 0 1-2.5 2.4 7.57 7.57 0 0 1-3.64.86Zm13.5 0a5.15 5.15 0 0 1-4.66-2.66 5.57 5.57 0 0 1-.68-2.76c0-1.01.23-1.93.68-2.74a5.1 5.1 0 0 1 4.66-2.68 5.1 5.1 0 0 1 4.64 2.68c.45.81.68 1.73.68 2.74 0 1.03-.23 1.95-.68 2.76a5.15 5.15 0 0 1-4.64 2.66Zm0-1.98c.56 0 1.08-.13 1.56-.4.48-.28.87-.67 1.16-1.18.3-.52.46-1.14.46-1.86 0-.72-.15-1.33-.46-1.84a3 3 0 0 0-1.16-1.18 3.15 3.15 0 0 0-4.32 1.18c-.3.5-.44 1.12-.44 1.84s.15 1.34.44 1.86c.3.5.7.9 1.18 1.18.5.27 1.02.4 1.58.4Zm12.1 1.98a5.15 5.15 0 0 1-4.66-2.66 5.57 5.57 0 0 1-.67-2.76c0-1.01.23-1.93.68-2.74a5.11 5.11 0 0 1 4.66-2.68 5.1 5.1 0 0 1 4.64 2.68c.45.81.68 1.73.68 2.74 0 1.03-.23 1.95-.68 2.76a5.15 5.15 0 0 1-4.64 2.66Zm0-1.98c.57 0 1.09-.13 1.57-.4.48-.28.87-.67 1.16-1.18.3-.52.46-1.14.46-1.86 0-.72-.15-1.33-.46-1.84a3 3 0 0 0-1.16-1.18 3.15 3.15 0 0 0-4.32 1.18c-.3.5-.44 1.12-.44 1.84s.15 1.34.44 1.86c.3.5.7.9 1.18 1.18.5.27 1.02.4 1.58.4Zm11.92 6.3c-.9 0-1.67-.15-2.32-.44a4.39 4.39 0 0 1-2.42-2.46l2-.84a2.88 2.88 0 0 0 2.74 1.82 2.9 2.9 0 0 0 2.2-.84c.54-.56.82-1.35.82-2.38v-.98h-.12c-.32.48-.77.87-1.34 1.16-.56.28-1.2.42-1.92.42-.87 0-1.66-.22-2.38-.66a4.92 4.92 0 0 1-1.74-1.84 5.72 5.72 0 0 1-.66-2.8c0-1.08.22-2.01.66-2.8a4.88 4.88 0 0 1 1.74-1.86 4.48 4.48 0 0 1 4.3-.22c.57.3 1.02.68 1.34 1.16h.12V21.8H227v9.66c0 1.1-.22 2.05-.66 2.82a4.27 4.27 0 0 1-1.78 1.76c-.76.4-1.64.6-2.64.6Zm.02-6.5c.53 0 1.03-.13 1.48-.38.45-.27.82-.65 1.1-1.14.28-.5.42-1.11.42-1.82 0-.73-.14-1.35-.42-1.84a2.84 2.84 0 0 0-2.58-1.52 2.97 2.97 0 0 0-2.6 1.52c-.28.5-.42 1.1-.42 1.84 0 .72.14 1.33.42 1.84a2.86 2.86 0 0 0 2.6 1.5Zm7.6 1.86V17.68h2.17V32h-2.16Zm9.28.32a5.04 5.04 0 0 1-4.54-2.62 5.75 5.75 0 0 1-.66-2.78c0-.97.2-1.87.63-2.7a5.1 5.1 0 0 1 1.78-1.98c.78-.5 1.66-.76 2.66-.76a5 5 0 0 1 2.69.68 4.41 4.41 0 0 1 1.7 1.86 5.96 5.96 0 0 1 .53 3.34h-7.88a3.3 3.3 0 0 0 1.06 2.28c.62.5 1.31.76 2.09.76a3 3 0 0 0 1.72-.46c.45-.32.8-.71 1.08-1.18l1.78.86a5.52 5.52 0 0 1-1.8 1.96c-.76.5-1.71.74-2.84.74Zm-.1-9a2.7 2.7 0 0 0-1.84.66c-.51.44-.85 1.03-1.03 1.76h5.66c-.02-.35-.13-.7-.33-1.08a2.73 2.73 0 0 0-2.46-1.34ZM250.69 32V17.68h2.2v6.94h.12l5.7-6.94h2.76v.12l-6.04 7.16 6.36 6.92V32h-2.88l-5.9-6.56h-.12V32h-2.2Zm16.58.32a5.15 5.15 0 0 1-4.66-2.66 5.57 5.57 0 0 1-.68-2.76c0-1.01.23-1.93.69-2.74a5.1 5.1 0 0 1 4.65-2.68 5.1 5.1 0 0 1 4.64 2.68c.46.81.69 1.73.69 2.74 0 1.03-.23 1.95-.69 2.76a5.15 5.15 0 0 1-4.64 2.66Zm0-1.98c.56 0 1.09-.13 1.56-.4.49-.28.87-.67 1.17-1.18.3-.52.45-1.14.45-1.86 0-.72-.15-1.33-.45-1.84a3 3 0 0 0-1.17-1.18 3.15 3.15 0 0 0-4.32 1.18c-.29.5-.44 1.12-.44 1.84s.15 1.34.44 1.86c.31.5.7.9 1.19 1.18.49.27 1.01.4 1.57.4ZM274.4 32V21.8h2.14v8.32h3.36V21.8h2.14v8.32h3.36V21.8h2.14V32h-13.14Zm20.25.32a5.04 5.04 0 0 1-4.54-2.62 5.75 5.75 0 0 1-.66-2.78c0-.97.2-1.87.63-2.7a5.11 5.11 0 0 1 1.79-1.98c.77-.5 1.65-.76 2.65-.76a5 5 0 0 1 2.69.68 4.4 4.4 0 0 1 1.7 1.86 5.95 5.95 0 0 1 .54 3.34h-7.88a3.3 3.3 0 0 0 1.06 2.28c.6.5 1.3.76 2.07.76a3 3 0 0 0 1.73-.46c.45-.32.8-.71 1.07-1.18l1.78.86a5.52 5.52 0 0 1-1.8 1.96c-.76.5-1.7.74-2.84.74Zm-.1-9c-.73 0-1.34.22-1.85.66-.5.44-.84 1.03-1.01 1.76h5.65c-.02-.35-.13-.7-.33-1.08a2.72 2.72 0 0 0-2.46-1.34Zm6.9 8.84c-.3 0-.6-.03-.88-.1v-2c.19.1.4.14.62.14.46 0 .78-.17.96-.52.19-.36.3-.81.34-1.36.04-.55.06-1.11.06-1.7V21.8h7.8V32h-2.14v-8.32h-3.62v3.28c0 .7-.04 1.35-.14 1.98a5.72 5.72 0 0 1-.46 1.66c-.22.48-.54.86-.96 1.14-.4.28-.92.42-1.58.42Zm16 .16a5.06 5.06 0 0 1-4.54-2.62 5.75 5.75 0 0 1-.65-2.78c0-.97.21-1.87.64-2.7a5.11 5.11 0 0 1 1.78-1.98c.77-.5 1.66-.76 2.66-.76a5 5 0 0 1 2.68.68 4.4 4.4 0 0 1 1.7 1.86 5.95 5.95 0 0 1 .54 3.34h-7.88a3.3 3.3 0 0 0 1.06 2.28c.61.5 1.3.76 2.08.76a3 3 0 0 0 1.72-.46c.45-.32.81-.71 1.08-1.18l1.78.86a5.52 5.52 0 0 1-1.8 1.96c-.76.5-1.7.74-2.84.74Zm-.1-9c-.71 0-1.33.22-1.83.66-.5.44-.85 1.03-1.02 1.76h5.66c-.03-.35-.14-.7-.34-1.08a2.72 2.72 0 0 0-2.46-1.34ZM324.3 32V21.8h2.16v4.52h.12l4-4.52h2.48v.12l-4.26 4.66 4.42 5.3V32h-2.56l-4.08-5.02h-.12V32h-2.16Z" fill="#fff"/>
  <rect x=".5" y=".5" width="354" height="49" rx="24.5" stroke="#747775"/>
</svg>
