<svg width="317" height="50" fill="none" xmlns="http://www.w3.org/2000/svg">
  <defs>
    <linearGradient id="a" x1="34.57" y1="30.79" x2="18.73" y2="48.91" gradientUnits="userSpaceOnUse">
      <stop stop-color="#4285F4"/>
      <stop offset="1" stop-color="#1B74E8"/>
    </linearGradient>
  </defs>
  <rect x=".5" y=".5" width="316" height="49" rx="24.5" fill="#1F1F1F"/>
  <path d="M51 22H21v-5c0-2.71 2.2-5 4.82-5h20.36A4.97 4.97 0 0 1 51 17v5Z" fill="#34A853"/>
  <path d="M51 26.05H21v-5c0-2.71 2.2-5 4.82-5h20.36a4.97 4.97 0 0 1 4.82 5v5Z" fill="#FBBC04"/>
  <path d="M51 30.25H21v-5c0-2.72 2.2-5 4.82-5h20.36a4.97 4.97 0 0 1 4.82 5v5Z" fill="#EA4335"/>
  <path d="m21 23.28 19.04 4.4c2.2.55 4.66 0 6.44-1.38L51 23v10.32c0 2.62-2.2 4.68-4.8 4.68H25.8c-2.6 0-4.8-2.06-4.8-4.68V23.28Z" fill="url(#a)"/>
  <path d="M68.78 32.32c-.76 0-1.49-.15-2.18-.44-.7-.3-1.3-.75-1.84-1.34a5.6 5.6 0 0 1-1.16-2.18l2.08-.84c.21.77.59 1.42 1.12 1.94.53.52 1.2.78 2 .78.45 0 .87-.08 1.26-.24.4-.16.72-.4.96-.7.24-.32.36-.7.36-1.16 0-.63-.23-1.13-.7-1.5a7.8 7.8 0 0 0-2.24-1.14l-.9-.32a8.97 8.97 0 0 1-1.58-.76 4.5 4.5 0 0 1-1.3-1.26 3.35 3.35 0 0 1-.52-1.9c0-.7.19-1.35.56-1.94.39-.6.91-1.07 1.58-1.42a4.97 4.97 0 0 1 2.36-.54c.92 0 1.69.17 2.3.5a4.1 4.1 0 0 1 1.46 1.18c.36.45.6.88.74 1.28l-1.98.84a2.4 2.4 0 0 0-.44-.8 2.5 2.5 0 0 0-2.06-.96c-.64 0-1.2.17-1.66.52-.45.33-.68.77-.68 1.32 0 .52.21.94.64 1.26a6.9 6.9 0 0 0 1.86.9l.92.32c.61.2 1.21.47 1.8.82.6.35 1.09.8 1.46 1.38.39.56.58 1.29.58 2.18A3.88 3.88 0 0 1 72 31.32c-.47.33-.99.58-1.56.74a5.6 5.6 0 0 1-1.66.26Zm6.98-.32V17.68h2.16v3.92l-.12 1.6h.12c.28-.5.71-.9 1.28-1.22.6-.33 1.24-.5 1.94-.5 1.27 0 2.22.38 2.86 1.14.64.75.96 1.73.96 2.94V32h-2.14v-6.16c0-.83-.22-1.43-.66-1.8a2.27 2.27 0 0 0-1.58-.58c-.52 0-.98.15-1.38.44a3.39 3.39 0 0 0-1.28 2.66V32h-2.16ZM88 29.04v-5.36h-1.78V21.8H88v-2.88h2.16v2.88h2.5v1.88h-2.5v4.9c0 .5.1.9.3 1.16.21.27.56.4 1.06.4.25 0 .46-.03.64-.1s.37-.16.56-.28v2.1a4.11 4.11 0 0 1-1.62.3 3.1 3.1 0 0 1-2.26-.82 3.1 3.1 0 0 1-.84-2.3Zm11.14 3.28a5.15 5.15 0 0 1-4.66-2.66 5.57 5.57 0 0 1-.68-2.76c0-1.01.22-1.93.68-2.74a5.1 5.1 0 0 1 4.66-2.68 5.1 5.1 0 0 1 4.64 2.68c.45.81.68 1.73.68 2.74 0 1.03-.23 1.95-.68 2.76a5.15 5.15 0 0 1-4.64 2.66Zm0-1.98c.56 0 1.08-.13 1.56-.4.48-.28.86-.67 1.16-1.18.3-.52.46-1.14.46-1.86 0-.72-.15-1.33-.46-1.84a3 3 0 0 0-1.16-1.18 3.15 3.15 0 0 0-4.32 1.18c-.3.5-.44 1.12-.44 1.84s.14 1.34.44 1.86c.3.5.7.9 1.18 1.18.5.27 1.02.4 1.58.4Zm13.05-1.3v-5.36h-1.77V21.8h1.77v-2.88h2.17v2.88h2.5v1.88h-2.5v4.9c0 .5.1.9.3 1.16.2.27.56.4 1.06.4.25 0 .46-.03.64-.1s.37-.16.56-.28v2.1a4.08 4.08 0 0 1-1.63.3 3.1 3.1 0 0 1-2.26-.82 3.1 3.1 0 0 1-.84-2.3Zm11 3.28a5.06 5.06 0 0 1-4.54-2.62 5.75 5.75 0 0 1-.65-2.78c0-.97.21-1.87.64-2.7a5.11 5.11 0 0 1 1.78-1.98c.77-.5 1.66-.76 2.66-.76a5 5 0 0 1 2.68.68 4.4 4.4 0 0 1 1.7 1.86 5.95 5.95 0 0 1 .54 3.34h-7.88a3.3 3.3 0 0 0 1.06 2.28c.61.5 1.3.76 2.08.76a3 3 0 0 0 1.72-.46c.45-.32.81-.71 1.08-1.18l1.78.86a5.52 5.52 0 0 1-1.8 1.96c-.76.5-1.7.74-2.84.74Zm-.1-9c-.71 0-1.33.22-1.83.66-.5.44-.85 1.03-1.02 1.76h5.66c-.03-.35-.14-.7-.34-1.08a2.72 2.72 0 0 0-2.46-1.34ZM135.62 32V17.68h4.92c.87 0 1.65.19 2.36.56.7.37 1.27.89 1.68 1.54.43.65.64 1.41.64 2.28 0 .87-.21 1.63-.64 2.3a4.35 4.35 0 0 1-1.68 1.54c-.7.36-1.5.54-2.36.54h-2.72V32h-2.2Zm4.98-12.24h-2.78v4.6h2.78c.52 0 .96-.1 1.32-.32.36-.23.63-.51.82-.86a2.17 2.17 0 0 0 0-2.22 2.3 2.3 0 0 0-2.14-1.2Zm10.61 12.56a5.15 5.15 0 0 1-4.66-2.66 5.57 5.57 0 0 1-.68-2.76c0-1.01.23-1.93.68-2.74a5.11 5.11 0 0 1 4.66-2.68 5.1 5.1 0 0 1 4.64 2.68c.46.81.68 1.73.68 2.74 0 1.03-.22 1.95-.68 2.76a5.15 5.15 0 0 1-4.64 2.66Zm0-1.98c.56 0 1.08-.13 1.56-.4.48-.28.87-.67 1.16-1.18.3-.52.46-1.14.46-1.86 0-.72-.15-1.33-.46-1.84a3 3 0 0 0-1.16-1.18 3.15 3.15 0 0 0-4.32 1.18c-.3.5-.44 1.12-.44 1.84s.15 1.34.44 1.86c.3.5.7.9 1.18 1.18.5.27 1.02.4 1.58.4Zm16.3-1.3v-5.36h-1.78V21.8h1.78v-2.88h2.16v2.88h2.5v1.88h-2.5v4.9c0 .5.1.9.3 1.16.21.27.56.4 1.06.4.25 0 .46-.03.64-.1s.37-.16.56-.28v2.1a4.08 4.08 0 0 1-1.6.3c-.96 0-1.72-.27-2.28-.82a3.1 3.1 0 0 1-.84-2.3ZM158.33 32V21.8h2.04v1.5h.12c.26-.56.68-1 1.24-1.3a3.6 3.6 0 0 1 1.82-.48c.37 0 .65.03.84.08v2.16a3.6 3.6 0 0 0-1.08-.14c-.86 0-1.54.27-2.06.82-.51.55-.76 1.29-.76 2.22V32h-2.16Zm20.34.32a5.15 5.15 0 0 1-4.66-2.66 5.57 5.57 0 0 1-.68-2.76c0-1.01.23-1.93.68-2.74a5.11 5.11 0 0 1 4.66-2.68 5.1 5.1 0 0 1 4.64 2.68c.46.81.68 1.73.68 2.74 0 1.03-.22 1.95-.68 2.76a5.15 5.15 0 0 1-4.64 2.66Zm0-1.98c.56 0 1.08-.13 1.56-.4.48-.28.87-.67 1.16-1.18.31-.52.46-1.14.46-1.86 0-.72-.15-1.33-.46-1.84a3 3 0 0 0-1.16-1.18 3.15 3.15 0 0 0-4.32 1.18c-.29.5-.44 1.12-.44 1.84s.15 1.34.44 1.86c.31.5.7.9 1.18 1.18.5.27 1.02.4 1.58.4Zm8.18 1.66v-8.32h-1.86V21.8h1.86v-.84c0-.72.15-1.33.46-1.84.3-.52.72-.91 1.24-1.18a4.55 4.55 0 0 1 3.38-.18v2.1a8.08 8.08 0 0 0-.6-.2 2.3 2.3 0 0 0-.8-.12c-.41 0-.77.14-1.08.42-.3.27-.46.66-.46 1.18v.66h2.56v1.88h-2.56V32h-2.14Zm10.94.32a5.15 5.15 0 0 1-4.66-2.66 5.57 5.57 0 0 1-.68-2.76c0-1.01.23-1.93.68-2.74a5.11 5.11 0 0 1 4.66-2.68 5.1 5.1 0 0 1 4.64 2.68c.46.81.68 1.73.68 2.74 0 1.03-.22 1.95-.68 2.76a5.15 5.15 0 0 1-4.64 2.66Zm0-1.98c.56 0 1.08-.13 1.56-.4.48-.28.87-.67 1.16-1.18.31-.52.46-1.14.46-1.86 0-.72-.15-1.33-.46-1.84a3 3 0 0 0-1.16-1.18 3.15 3.15 0 0 0-4.32 1.18c-.29.5-.44 1.12-.44 1.84s.15 1.34.44 1.86c.31.5.7.9 1.18 1.18.5.27 1.02.4 1.58.4Zm7.24 1.66V17.68h2.16V32h-2.16Zm5.94-11.7c-.4 0-.74-.14-1.04-.42-.28-.3-.42-.64-.42-1.04s.14-.74.42-1.02c.3-.28.64-.42 1.04-.42s.74.14 1.02.42c.3.28.44.62.44 1.02s-.14.75-.44 1.04c-.28.28-.62.42-1.02.42ZM209.9 32V21.8h2.16V32h-2.16Zm10.75-11.7c-.4 0-.75-.14-1.04-.42-.28-.3-.42-.64-.42-1.04s.14-.74.42-1.02c.3-.28.64-.42 1.04-.42s.74.14 1.02.42c.3.28.44.62.44 1.02s-.15.75-.44 1.04c-.28.28-.62.42-1.02.42ZM219.56 32V21.8h2.16V32h-2.16Zm16.26.32a7.54 7.54 0 0 1-5.28-2.12 7.6 7.6 0 0 1-1.64-2.38 7.6 7.6 0 0 1-.58-2.98 7.46 7.46 0 0 1 2.2-5.34 7.43 7.43 0 0 1 5.3-2.14c1.1 0 2.1.2 3.02.58.93.39 1.71.93 2.34 1.62l-1.52 1.5a4.74 4.74 0 0 0-1.68-1.2 5.34 5.34 0 0 0-2.16-.42 5.22 5.22 0 0 0-5.28 5.4c0 1.1.25 2.05.74 2.86.5.8 1.14 1.43 1.94 1.88a5.66 5.66 0 0 0 4.98.18 4.28 4.28 0 0 0 2.5-3.56h-4.9v-1.94h6.96c.08.36.12.74.12 1.14v.02c0 1.39-.3 2.6-.92 3.64a6.28 6.28 0 0 1-2.5 2.4 7.57 7.57 0 0 1-3.64.86Zm13.5 0a5.15 5.15 0 0 1-4.66-2.66 5.56 5.56 0 0 1-.68-2.76c0-1.01.22-1.93.68-2.74a5.1 5.1 0 0 1 4.66-2.68 5.11 5.11 0 0 1 4.64 2.68c.45.81.68 1.73.68 2.74 0 1.03-.23 1.95-.68 2.76a5.15 5.15 0 0 1-4.64 2.66Zm0-1.98c.56 0 1.08-.13 1.56-.4.48-.28.86-.67 1.16-1.18.3-.52.46-1.14.46-1.86a3.5 3.5 0 0 0-.46-1.84 3 3 0 0 0-1.16-1.18 3.15 3.15 0 0 0-4.32 1.18 3.6 3.6 0 0 0-.44 1.84c0 .72.14 1.34.44 1.86.3.5.7.9 1.18 1.18.5.27 1.02.4 1.58.4Zm12.1 1.98a5.15 5.15 0 0 1-4.66-2.66 5.57 5.57 0 0 1-.67-2.76c0-1.01.22-1.93.68-2.74a5.11 5.11 0 0 1 4.66-2.68 5.1 5.1 0 0 1 4.64 2.68c.45.81.68 1.73.68 2.74 0 1.03-.23 1.95-.68 2.76a5.15 5.15 0 0 1-4.64 2.66Zm0-1.98c.57 0 1.09-.13 1.57-.4.48-.28.86-.67 1.16-1.18.3-.52.46-1.14.46-1.86 0-.72-.16-1.33-.46-1.84a3 3 0 0 0-1.16-1.18 3.15 3.15 0 0 0-4.32 1.18c-.3.5-.44 1.12-.44 1.84s.14 1.34.44 1.86c.3.5.7.9 1.18 1.18.5.27 1.02.4 1.58.4Zm11.92 6.3c-.9 0-1.67-.15-2.32-.44a4.39 4.39 0 0 1-2.42-2.46l2-.84a2.88 2.88 0 0 0 2.74 1.82 2.9 2.9 0 0 0 2.2-.84c.54-.56.82-1.35.82-2.38v-.98h-.12c-.32.48-.77.87-1.34 1.16-.56.28-1.2.42-1.92.42-.87 0-1.66-.22-2.38-.66a4.92 4.92 0 0 1-1.74-1.84 5.72 5.72 0 0 1-.66-2.8c0-1.08.22-2.01.66-2.8a4.88 4.88 0 0 1 1.74-1.86 4.48 4.48 0 0 1 4.3-.22c.57.3 1.02.68 1.34 1.16h.12V21.8h2.06v9.66c0 1.1-.22 2.05-.66 2.82a4.27 4.27 0 0 1-1.78 1.76c-.76.4-1.64.6-2.64.6Zm.02-6.5c.53 0 1.02-.13 1.48-.38.45-.27.82-.65 1.1-1.14.28-.5.42-1.11.42-1.82 0-.73-.14-1.35-.42-1.84a2.84 2.84 0 0 0-2.58-1.52 2.97 2.97 0 0 0-2.6 1.52c-.28.5-.42 1.1-.42 1.84 0 .72.14 1.33.42 1.84a2.86 2.86 0 0 0 2.6 1.5Zm7.6 1.86V17.68h2.16V32h-2.16Zm9.27.32a5.04 5.04 0 0 1-4.54-2.62 5.75 5.75 0 0 1-.66-2.78c0-.97.22-1.87.64-2.7a5.1 5.1 0 0 1 1.78-1.98c.78-.5 1.66-.76 2.66-.76a5 5 0 0 1 2.68.68 4.41 4.41 0 0 1 1.7 1.86 5.96 5.96 0 0 1 .54 3.34h-7.88a3.3 3.3 0 0 0 1.06 2.28c.62.5 1.3.76 2.08.76a3 3 0 0 0 1.72-.46c.46-.32.82-.71 1.08-1.18l1.78.86a5.5 5.5 0 0 1-1.8 1.96c-.76.5-1.7.74-2.84.74Zm-.1-9a2.7 2.7 0 0 0-1.84.66c-.5.44-.84 1.03-1.02 1.76h5.66c-.02-.35-.14-.7-.34-1.08a2.73 2.73 0 0 0-2.46-1.34Z" fill="#fff"/>
  <rect x=".5" y=".5" width="316" height="49" rx="24.5" stroke="#747775"/>
</svg>
