<svg width="294" height="50" fill="none" xmlns="http://www.w3.org/2000/svg">
  <defs>
    <linearGradient id="a" x1="34.57" y1="30.79" x2="18.73" y2="48.91" gradientUnits="userSpaceOnUse">
      <stop stop-color="#4285F4"/>
      <stop offset="1" stop-color="#1B74E8"/>
    </linearGradient>
  </defs>
  <rect x=".5" y=".5" width="293" height="49" rx="24.5" fill="#1F1F1F"/>
  <path d="M51 22H21v-5c0-2.71 2.2-5 4.82-5h20.36A4.97 4.97 0 0 1 51 17v5Z" fill="#34A853"/>
  <path d="M51 26.05H21v-5c0-2.71 2.2-5 4.82-5h20.36a4.97 4.97 0 0 1 4.82 5v5Z" fill="#FBBC04"/>
  <path d="M51 30.25H21v-5c0-2.72 2.2-5 4.82-5h20.36a4.97 4.97 0 0 1 4.82 5v5Z" fill="#EA4335"/>
  <path d="m21 23.28 19.04 4.4c2.2.55 4.66 0 6.44-1.38L51 23v10.32c0 2.62-2.2 4.68-4.8 4.68H25.8c-2.6 0-4.8-2.06-4.8-4.68V23.28Z" fill="url(#a)"/>
  <path d="M66.76 32.24c-.68 0-1.23-.2-1.64-.62-.4-.41-.6-.96-.6-1.64V21.2h2.1v6.88a1.97 1.97 0 0 1 1.82.56 2 2 0 0 1 .58 1.48c0 .63-.21 1.14-.64 1.54-.43.39-.97.58-1.62.58Zm.02-1.3c.25 0 .45-.07.6-.22a.81.81 0 0 0 .24-.6.77.77 0 0 0-.24-.6.77.77 0 0 0-.6-.24.81.81 0 0 0-.6.24.81.81 0 0 0-.22.6c0 .24.07.44.22.6.16.15.36.22.6.22ZM71.66 32v-6.84l-.3.02a2.1 2.1 0 0 1-1.52-.58c-.4-.4-.6-.9-.6-1.5 0-.61.2-1.12.62-1.52.42-.4.96-.6 1.62-.6a2.12 2.12 0 0 1 2.22 2.24v3.32l-.06 2.14.58-1.6 1.76-4.34h1.1l1.76 4.34.56 1.54-.04-2.08V21.2h2.04V32h-2.22L77 26.66l-.46-1.26-.46 1.26L73.9 32h-2.24Zm-.22-8.06a.78.78 0 0 0 .82-.84.75.75 0 0 0-.24-.58.75.75 0 0 0-.58-.24.78.78 0 0 0-.82.82c0 .25.07.46.22.62.16.15.36.22.6.22Zm.77-4.1v-.14c.18-1.07.7-1.91 1.54-2.54a4.82 4.82 0 0 1 3.04-.96c1.2 0 2.24.32 3.08.96a3.91 3.91 0 0 1 1.52 2.54v.14H72.2Zm2.2-1.16h4.78a1.66 1.66 0 0 0-.84-.9 3.36 3.36 0 0 0-1.56-.34c-.6 0-1.1.11-1.52.34-.44.23-.73.53-.86.9Zm5-3.9-.2-2.96h2.06l-.2 2.96H79.4ZM86 32.22c-.68 0-1.24-.21-1.68-.64a2.2 2.2 0 0 1-.66-1.66c0-.67.2-1.21.64-1.64.44-.43.99-.64 1.66-.64h.1v-2.48l-.32.02a2.1 2.1 0 0 1-1.52-.58c-.4-.4-.6-.9-.6-1.5a2 2 0 0 1 .64-1.52c.42-.4.96-.6 1.62-.6.68 0 1.22.2 1.62.62.4.41.6.96.6 1.64V28l3.48 2v-8.8h2.1V32h-1.94l-3.4-1.96A2.2 2.2 0 0 1 86 32.22Zm-.16-8.28a.78.78 0 0 0 .82-.84.75.75 0 0 0-.24-.58.75.75 0 0 0-.58-.24.78.78 0 0 0-.82.82c0 .25.07.46.22.62.16.15.36.22.6.22Zm.16 6.92c.25 0 .46-.09.64-.26.17-.17.26-.4.26-.68s-.1-.5-.26-.68a.87.87 0 0 0-.64-.26.9.9 0 0 0-.66.26.96.96 0 0 0-.24.68c0 .28.08.5.24.68.17.17.39.26.66.26Zm13.7 1.38c-.68 0-1.23-.2-1.64-.62a2.22 2.22 0 0 1-.62-1.64v-7.9c0-.56.09-1.07.26-1.54.19-.48.41-.93.68-1.34.27-.41.53-.8.8-1.18.27-.37.49-.73.66-1.06.19-.35.28-.69.28-1.02 0-.3-.07-.52-.22-.68a.69.69 0 0 0-.5-.26l-1.96 2.52h-1.42l-2.1-3.92v-.2h1.94l1.08 2.26 1.66-2.26h.74c.84 0 1.48.25 1.92.74.45.48.68 1.08.68 1.8 0 .59-.12 1.13-.36 1.62-.24.48-.52.95-.84 1.42-.32.47-.6.95-.84 1.46-.24.5-.36 1.05-.36 1.66v5.98a1.9 1.9 0 0 1 1.82.56 2 2 0 0 1 .58 1.48c0 .63-.21 1.14-.64 1.54-.41.39-.95.58-1.6.58Zm.02-1.3c.24 0 .44-.07.6-.22a.81.81 0 0 0 .24-.6.77.77 0 0 0-.24-.6.81.81 0 0 0-.6-.24.81.81 0 0 0-.6.24.81.81 0 0 0-.22.6c0 .24.07.44.22.6.16.15.36.22.6.22ZM104.6 32v-6.84l-.28.02a2.1 2.1 0 0 1-1.52-.58c-.4-.4-.6-.9-.6-1.5a2 2 0 0 1 .64-1.52c.43-.4.97-.6 1.62-.6.68 0 1.22.2 1.62.62.4.41.6.96.6 1.64v7h4.42V17.6h2.1V32h-8.6Zm-.18-8.06c.24 0 .44-.07.58-.22a.84.84 0 0 0 .24-.62.75.75 0 0 0-.24-.58.75.75 0 0 0-.58-.24.79.79 0 0 0-.82.82c0 .25.08.46.22.62.16.15.36.22.6.22Zm11.8 8.06v-3.08c0-1.01.42-1.65 1.24-1.92v-.08a2.57 2.57 0 0 1-1.38-1.16 3.64 3.64 0 0 1-.54-1.94c0-.84.25-1.52.74-2.04.5-.52 1.16-.78 1.94-.78.68 0 1.23.2 1.64.58.43.39.64.88.64 1.48 0 .57-.18 1.05-.54 1.42-.36.36-.83.54-1.42.54-.36 0-.66-.09-.92-.26.12.43.33.73.62.92.3.17.74.26 1.3.26h1.48v1.54h-1.16c-1.04 0-1.56.51-1.56 1.54v1.22h4.7V21.2h2.1V32h-8.88Zm2.06-8.1a.78.78 0 0 0 .82-.84.75.75 0 0 0-.24-.58.75.75 0 0 0-.58-.24.78.78 0 0 0-.82.82c0 .25.08.46.22.62.16.15.36.22.6.22Zm5-3.92a4.7 4.7 0 0 1-2.6-.64c-.66-.43-.98-1-.98-1.72 0-.53.17-.97.52-1.3.34-.33.79-.5 1.34-.5.53 0 .97.16 1.32.48.34.3.52.7.52 1.18 0 .44-.15.79-.44 1.04l.3.02c1.4 0 2.36-.79 2.9-2.36l1.74.7c-.35 1-.92 1.77-1.7 2.3-.79.53-1.76.8-2.92.8Zm-1.72-1.72a.68.68 0 0 0 .68-.7c0-.2-.07-.36-.2-.48a.65.65 0 0 0-.48-.2c-.2 0-.37.07-.5.2a.62.62 0 0 0-.2.48.68.68 0 0 0 .7.7ZM129.9 32l-3.12-6.96 1.96-.76 2.56 5.96h1.72v-5.08a2.12 2.12 0 0 1-1.82-.56c-.4-.4-.6-.9-.6-1.5a2 2 0 0 1 .64-1.52c.42-.4.96-.6 1.62-.6.68 0 1.22.2 1.62.62.4.4.6.94.6 1.62V32h-5.18Zm2.92-8.06a.78.78 0 0 0 .82-.84.75.75 0 0 0-.24-.58.75.75 0 0 0-.58-.24.78.78 0 0 0-.82.82c0 .25.07.46.22.62.16.15.36.22.6.22ZM150.4 32.32a7.54 7.54 0 0 1-5.28-2.12 7.6 7.6 0 0 1-1.64-2.38 7.6 7.6 0 0 1-.58-2.98 7.46 7.46 0 0 1 2.2-5.34 7.43 7.43 0 0 1 5.3-2.14c1.1 0 2.1.2 3.02.58.93.39 1.71.93 2.34 1.62l-1.52 1.5a4.74 4.74 0 0 0-1.68-1.2 5.34 5.34 0 0 0-2.16-.42 5.22 5.22 0 0 0-5.28 5.4c0 1.1.25 2.05.74 2.86.5.8 1.14 1.43 1.94 1.88a5.66 5.66 0 0 0 4.98.18 4.28 4.28 0 0 0 2.5-3.56h-4.9v-1.94h6.96c.08.36.12.74.12 1.14v.02c0 1.39-.3 2.6-.92 3.64a6.28 6.28 0 0 1-2.5 2.4 7.57 7.57 0 0 1-3.64.86Zm13.5 0a5.15 5.15 0 0 1-4.66-2.66 5.57 5.57 0 0 1-.68-2.76c0-1.01.23-1.93.68-2.74a5.1 5.1 0 0 1 4.66-2.68 5.1 5.1 0 0 1 4.64 2.68c.45.81.68 1.73.68 2.74 0 1.03-.23 1.95-.68 2.76a5.15 5.15 0 0 1-4.64 2.66Zm0-1.98c.56 0 1.08-.13 1.56-.4.48-.28.87-.67 1.16-1.18.3-.52.46-1.14.46-1.86 0-.72-.15-1.33-.46-1.84a3 3 0 0 0-1.16-1.18 3.15 3.15 0 0 0-4.32 1.18c-.3.5-.44 1.12-.44 1.84s.15 1.34.44 1.86c.3.5.7.9 1.18 1.18.5.27 1.02.4 1.58.4Zm12.1 1.98a5.15 5.15 0 0 1-4.66-2.66 5.57 5.57 0 0 1-.67-2.76c0-1.01.23-1.93.68-2.74a5.11 5.11 0 0 1 4.66-2.68 5.1 5.1 0 0 1 4.64 2.68c.45.81.68 1.73.68 2.74 0 1.03-.23 1.95-.68 2.76a5.15 5.15 0 0 1-4.64 2.66Zm0-1.98c.57 0 1.09-.13 1.57-.4.48-.28.87-.67 1.16-1.18.3-.52.46-1.14.46-1.86 0-.72-.15-1.33-.46-1.84a3 3 0 0 0-1.16-1.18 3.15 3.15 0 0 0-4.32 1.18c-.3.5-.44 1.12-.44 1.84s.15 1.34.44 1.86c.3.5.7.9 1.18 1.18.5.27 1.02.4 1.58.4Zm11.92 6.3c-.9 0-1.67-.15-2.32-.44a4.39 4.39 0 0 1-2.42-2.46l2-.84a2.88 2.88 0 0 0 2.74 1.82 2.9 2.9 0 0 0 2.2-.84c.54-.56.82-1.35.82-2.38v-.98h-.12c-.32.48-.77.87-1.34 1.16-.56.28-1.2.42-1.92.42-.87 0-1.66-.22-2.38-.66a4.92 4.92 0 0 1-1.74-1.84 5.72 5.72 0 0 1-.66-2.8c0-1.08.22-2.01.66-2.8a4.88 4.88 0 0 1 1.74-1.86 4.48 4.48 0 0 1 4.3-.22c.57.3 1.02.68 1.34 1.16h.12V21.8H193v9.66c0 1.1-.22 2.05-.66 2.82a4.27 4.27 0 0 1-1.78 1.76c-.76.4-1.64.6-2.64.6Zm.02-6.5c.53 0 1.03-.13 1.48-.38.45-.27.82-.65 1.1-1.14.28-.5.42-1.11.42-1.82 0-.73-.14-1.35-.42-1.84a2.84 2.84 0 0 0-2.58-1.52 2.97 2.97 0 0 0-2.6 1.52c-.28.5-.42 1.1-.42 1.84 0 .72.14 1.33.42 1.84a2.86 2.86 0 0 0 2.6 1.5Zm7.6 1.86V17.68h2.17V32h-2.16Zm9.28.32a5.04 5.04 0 0 1-4.54-2.62 5.75 5.75 0 0 1-.66-2.78c0-.97.2-1.87.63-2.7a5.1 5.1 0 0 1 1.78-1.98c.78-.5 1.66-.76 2.66-.76a5 5 0 0 1 2.69.68 4.41 4.41 0 0 1 1.7 1.86 5.96 5.96 0 0 1 .53 3.34h-7.88a3.3 3.3 0 0 0 1.06 2.28c.62.5 1.31.76 2.09.76a3 3 0 0 0 1.72-.46c.45-.32.8-.71 1.08-1.18l1.78.86a5.52 5.52 0 0 1-1.8 1.96c-.76.5-1.71.74-2.84.74Zm-.1-9a2.7 2.7 0 0 0-1.84.66c-.51.44-.85 1.03-1.03 1.76h5.66c-.02-.35-.13-.7-.33-1.08a2.73 2.73 0 0 0-2.46-1.34ZM218.44 32l-3.84-14.32h2.44l2.28 9.3.24 1.24h.12l.3-1.24 2.88-9.3h2.2l2.76 9.3.3 1.22h.12l.24-1.22 2.28-9.3h2.42L229.4 32h-2.32l-2.74-9.5-.32-1.34h-.12l-.34 1.34-2.86 9.5h-2.26Zm18.75.32c-.73 0-1.38-.14-1.96-.42a3.3 3.3 0 0 1-1.82-3c0-.72.19-1.33.56-1.84.39-.52.9-.91 1.54-1.18.64-.27 1.35-.4 2.12-.4a6.97 6.97 0 0 1 2.8.56v-.54c0-.67-.24-1.2-.72-1.6a2.8 2.8 0 0 0-1.86-.6 3.2 3.2 0 0 0-1.48.36c-.46.23-.84.54-1.12.94l-1.48-1.14a4.5 4.5 0 0 1 1.74-1.44 5.38 5.38 0 0 1 2.4-.54c1.48 0 2.62.37 3.42 1.1.8.72 1.2 1.73 1.2 3.04V32h-2.1v-1.26h-.12a3.66 3.66 0 0 1-3.12 1.58Zm.38-1.76c.56 0 1.06-.13 1.48-.4a2.87 2.87 0 0 0 1.38-2.46c-.3-.17-.66-.31-1.08-.42a4.71 4.71 0 0 0-1.32-.18c-.88 0-1.5.18-1.88.54-.37.35-.56.77-.56 1.28 0 .48.18.87.54 1.18.36.3.84.46 1.44.46Zm7.36 1.44V17.68h2.16V32h-2.16Zm4.73 0V17.68h2.16V32h-2.16Zm9.27.32a5.04 5.04 0 0 1-4.54-2.62 5.75 5.75 0 0 1-.66-2.78c0-.97.2-1.87.64-2.7a5.1 5.1 0 0 1 1.78-1.98c.77-.5 1.66-.76 2.66-.76a5 5 0 0 1 2.68.68 4.41 4.41 0 0 1 1.7 1.86 5.96 5.96 0 0 1 .54 3.34h-7.88a3.3 3.3 0 0 0 1.06 2.28c.6.5 1.3.76 2.08.76a3 3 0 0 0 1.72-.46c.45-.32.8-.71 1.08-1.18l1.78.86a5.52 5.52 0 0 1-1.8 1.96c-.76.5-1.71.74-2.84.74Zm-.1-9a2.7 2.7 0 0 0-1.84.66c-.51.44-.85 1.03-1.02 1.76h5.66c-.03-.35-.14-.7-.34-1.08a2.73 2.73 0 0 0-2.46-1.34Zm7.73 5.72v-5.36h-1.78V21.8h1.78v-2.88h2.16v2.88h2.5v1.88h-2.5v4.9c0 .5.1.9.3 1.16.21.27.56.4 1.06.4.25 0 .46-.03.64-.1s.37-.16.56-.28v2.1a4.13 4.13 0 0 1-1.62.3 3.1 3.1 0 0 1-2.26-.82 3.1 3.1 0 0 1-.84-2.3Z" fill="#fff"/>
  <rect x=".5" y=".5" width="293" height="49" rx="24.5" stroke="#747775"/>
</svg>
