<svg width="283" height="50" fill="none" xmlns="http://www.w3.org/2000/svg">
  <defs>
    <linearGradient id="a" x1="34.57" y1="30.79" x2="18.73" y2="48.91" gradientUnits="userSpaceOnUse">
      <stop stop-color="#4285F4"/>
      <stop offset="1" stop-color="#1B74E8"/>
    </linearGradient>
  </defs>
  <rect x=".5" y=".5" width="282" height="49" rx="24.5" fill="#1F1F1F"/>
  <path d="M51 22H21v-5c0-2.71 2.2-5 4.82-5h20.36A4.97 4.97 0 0 1 51 17v5Z" fill="#34A853"/>
  <path d="M51 26.05H21v-5c0-2.71 2.2-5 4.82-5h20.36a4.97 4.97 0 0 1 4.82 5v5Z" fill="#FBBC04"/>
  <path d="M51 30.25H21v-5c0-2.72 2.2-5 4.82-5h20.36a4.97 4.97 0 0 1 4.82 5v5Z" fill="#EA4335"/>
  <path d="m21 23.28 19.04 4.4c2.2.55 4.66 0 6.44-1.38L51 23v10.32c0 2.62-2.2 4.68-4.8 4.68H25.8c-2.6 0-4.8-2.06-4.8-4.68V23.28Z" fill="url(#a)"/>
  <path d="M71.4 32.32a7.54 7.54 0 0 1-5.28-2.12 7.6 7.6 0 0 1-1.64-2.38 7.61 7.61 0 0 1-.58-2.98 7.47 7.47 0 0 1 2.2-5.34 7.44 7.44 0 0 1 5.3-2.14c1.1 0 2.1.2 3.02.58a6.4 6.4 0 0 1 2.34 1.62l-1.52 1.5a4.73 4.73 0 0 0-1.68-1.2 5.34 5.34 0 0 0-2.16-.42 5.22 5.22 0 0 0-5.28 5.4c0 1.1.25 2.05.74 2.86.5.8 1.14 1.43 1.94 1.88a5.66 5.66 0 0 0 4.98.18 4.28 4.28 0 0 0 2.5-3.56h-4.9v-1.94h6.96c.08.36.12.74.12 1.14v.02c0 1.39-.3 2.6-.92 3.64a6.28 6.28 0 0 1-2.5 2.4 7.57 7.57 0 0 1-3.64.86Zm13.5 0a5.15 5.15 0 0 1-4.66-2.66 5.57 5.57 0 0 1-.68-2.76c0-1.01.23-1.93.68-2.74a5.1 5.1 0 0 1 4.66-2.68 5.1 5.1 0 0 1 4.64 2.68c.45.81.68 1.73.68 2.74 0 1.03-.23 1.95-.68 2.76a5.15 5.15 0 0 1-4.64 2.66Zm0-1.98c.56 0 1.08-.13 1.56-.4.48-.28.87-.67 1.16-1.18.3-.52.46-1.14.46-1.86 0-.72-.15-1.33-.46-1.84a3 3 0 0 0-1.16-1.18 3.15 3.15 0 0 0-4.32 1.18c-.3.5-.44 1.12-.44 1.84s.15 1.34.44 1.86c.3.5.7.9 1.18 1.18.5.27 1.02.4 1.58.4ZM97 32.32a5.15 5.15 0 0 1-4.66-2.66 5.57 5.57 0 0 1-.67-2.76c0-1.01.23-1.93.68-2.74A5.1 5.1 0 0 1 97 21.48a5.1 5.1 0 0 1 4.64 2.68c.45.81.68 1.73.68 2.74 0 1.03-.23 1.95-.68 2.76A5.15 5.15 0 0 1 97 32.32Zm0-1.98c.57 0 1.09-.13 1.57-.4.48-.28.87-.67 1.16-1.18.3-.52.46-1.14.46-1.86 0-.72-.15-1.33-.46-1.84a3 3 0 0 0-1.16-1.18 3.15 3.15 0 0 0-4.32 1.18c-.3.5-.44 1.12-.44 1.84s.15 1.34.44 1.86c.3.5.7.9 1.18 1.18.5.27 1.02.4 1.58.4Zm11.92 6.3c-.9 0-1.67-.15-2.32-.44a4.39 4.39 0 0 1-2.42-2.46l2-.84a2.88 2.88 0 0 0 2.74 1.82 2.9 2.9 0 0 0 2.2-.84c.55-.56.82-1.35.82-2.38v-.98h-.12c-.32.48-.77.87-1.34 1.16-.56.28-1.2.42-1.92.42-.87 0-1.66-.22-2.38-.66a4.92 4.92 0 0 1-1.74-1.84 5.72 5.72 0 0 1-.66-2.8c0-1.08.22-2.01.66-2.8a4.88 4.88 0 0 1 1.74-1.86 4.48 4.48 0 0 1 4.3-.22c.57.3 1.02.68 1.34 1.16h.12V21.8H114v9.66c0 1.1-.22 2.05-.66 2.82a4.27 4.27 0 0 1-1.78 1.76c-.76.4-1.64.6-2.64.6Zm.02-6.5c.53 0 1.03-.13 1.48-.38.45-.27.82-.65 1.1-1.14.28-.5.42-1.11.42-1.82 0-.73-.14-1.35-.42-1.84a2.84 2.84 0 0 0-2.58-1.52 2.97 2.97 0 0 0-2.6 1.52c-.28.5-.42 1.1-.42 1.84 0 .72.14 1.33.42 1.84a2.86 2.86 0 0 0 2.6 1.5Zm7.6 1.86V17.68h2.17V32h-2.16Zm9.27.32a5.04 5.04 0 0 1-4.54-2.62 5.75 5.75 0 0 1-.66-2.78c0-.97.22-1.87.64-2.7a5.1 5.1 0 0 1 1.78-1.98c.78-.5 1.66-.76 2.66-.76a5 5 0 0 1 2.69.68 4.41 4.41 0 0 1 1.7 1.86 5.96 5.96 0 0 1 .53 3.34h-7.88a3.3 3.3 0 0 0 1.06 2.28c.62.5 1.31.76 2.08.76a3 3 0 0 0 1.72-.46c.46-.32.82-.71 1.09-1.18l1.78.86a5.52 5.52 0 0 1-1.8 1.96c-.77.5-1.71.74-2.84.74Zm-.1-9a2.7 2.7 0 0 0-1.83.66c-.51.44-.85 1.03-1.02 1.76h5.65c-.02-.35-.13-.7-.33-1.08a2.73 2.73 0 0 0-2.46-1.34Zm18.33 9a7.64 7.64 0 0 1-2.94-.56 7.48 7.48 0 0 1-3.96-3.98 7.63 7.63 0 0 1-.56-2.94c0-1.05.18-2.03.56-2.94a7.21 7.21 0 0 1 3.96-3.96c.9-.39 1.88-.58 2.94-.58a6.73 6.73 0 0 1 5.3 2.34l-1.54 1.5c-.48-.57-1.03-1-1.64-1.3a5.26 5.26 0 0 0-6.66 2.1c-.47.8-.7 1.75-.7 2.84 0 1.1.23 2.05.7 2.86a5.2 5.2 0 0 0 4.56 2.54c.86 0 1.63-.18 2.3-.54a5.94 5.94 0 0 0 1.8-1.48l1.58 1.52a7.34 7.34 0 0 1-5.7 2.58Zm11.2 0c-1.25 0-2.2-.37-2.84-1.12a4.7 4.7 0 0 1-.94-3.08V21.8h2.16v6.02c0 .87.2 1.5.6 1.92.42.4.93.6 1.54.6.55 0 1.03-.14 1.43-.42.4-.3.72-.67.94-1.12.22-.47.34-.97.34-1.52V21.8h2.13V32h-2.01v-1.38h-.13a3.83 3.83 0 0 1-3.22 1.7Zm2.56-12.6c-.33 0-.62-.12-.88-.36a1.26 1.26 0 0 1-.35-.9c0-.35.12-.63.36-.86.25-.24.54-.36.88-.36.35 0 .66.12.9.36.23.23.35.51.35.86s-.12.65-.35.9c-.25.24-.55.36-.9.36Zm-3.54 0c-.33 0-.62-.12-.88-.36a1.26 1.26 0 0 1-.35-.9c0-.35.12-.63.35-.86.26-.24.55-.36.88-.36.37 0 .66.12.89.36.23.23.35.51.35.86s-.12.65-.35.9c-.23.24-.53.36-.89.36ZM162.92 32v-1.8l5.68-6.52h-5.5V21.8h8.14v1.8l-5.66 6.52h5.82V32h-8.48Zm14.67.32c-.93 0-1.76-.23-2.5-.68a5.1 5.1 0 0 1-1.77-1.92 6.06 6.06 0 0 1-.63-2.82c0-1.05.2-1.99.63-2.8a5.1 5.1 0 0 1 1.77-1.92c.74-.47 1.57-.7 2.5-.7.78 0 1.45.17 2.01.52.58.35 1 .74 1.27 1.18h.12l-.13-1.42v-4.08H183V32H181v-1.36h-.13c-.26.44-.68.83-1.26 1.18-.56.33-1.23.5-2.01.5Zm.31-1.98a3.03 3.03 0 0 0 2.64-1.6c.3-.52.45-1.13.45-1.84 0-.7-.15-1.31-.45-1.82a3 3 0 0 0-2.63-1.62c-.54 0-1.04.14-1.5.42-.47.28-.85.68-1.15 1.2-.29.5-.44 1.11-.44 1.82 0 .7.15 1.32.44 1.84.3.5.68.9 1.15 1.18.46.28.96.42 1.5.42Zm10.75 1.98c-.73 0-1.39-.14-1.96-.42a3.3 3.3 0 0 1-1.82-3c0-.72.19-1.33.56-1.84.39-.52.9-.91 1.54-1.18.64-.27 1.35-.4 2.12-.4a6.97 6.97 0 0 1 2.8.56v-.54c0-.67-.24-1.2-.72-1.6a2.8 2.8 0 0 0-1.86-.6 3.2 3.2 0 0 0-1.48.36c-.47.23-.84.54-1.12.94l-1.48-1.14a4.5 4.5 0 0 1 1.74-1.44 5.38 5.38 0 0 1 2.4-.54c1.48 0 2.62.37 3.42 1.1.8.72 1.2 1.73 1.2 3.04V32h-2.1v-1.26h-.12a3.66 3.66 0 0 1-3.12 1.58Zm.38-1.76c.56 0 1.06-.13 1.48-.4a2.87 2.87 0 0 0 1.38-2.46c-.3-.17-.66-.31-1.08-.42a4.71 4.71 0 0 0-1.32-.18c-.88 0-1.5.18-1.88.54-.37.35-.56.77-.56 1.28 0 .48.18.87.54 1.18.36.3.84.46 1.44.46Zm7.34 1.44V21.8h2.04v1.4h.12a3.82 3.82 0 0 1 3.22-1.72c1.25 0 2.2.37 2.82 1.12.63.75.94 1.73.94 2.96V32h-2.14v-6.16c0-.83-.2-1.43-.62-1.8a2.27 2.27 0 0 0-1.62-.58c-.52 0-.97.15-1.36.44-.39.28-.7.65-.92 1.12-.21.47-.32.97-.32 1.5V32h-2.16Zm14.7.32c-.73 0-1.38-.14-1.96-.42a3.3 3.3 0 0 1-1.82-3c0-.72.19-1.33.56-1.84.39-.52.9-.91 1.54-1.18.64-.27 1.35-.4 2.12-.4a6.97 6.97 0 0 1 2.8.56v-.54c0-.67-.24-1.2-.72-1.6a2.8 2.8 0 0 0-1.86-.6 3.2 3.2 0 0 0-1.48.36c-.46.23-.84.54-1.12.94l-1.48-1.14a4.5 4.5 0 0 1 1.74-1.44 5.38 5.38 0 0 1 2.4-.54c1.48 0 2.62.37 3.42 1.1.8.72 1.2 1.73 1.2 3.04V32h-2.1v-1.26h-.12a3.66 3.66 0 0 1-3.12 1.58Zm.38-1.76c.56 0 1.06-.13 1.48-.4a2.87 2.87 0 0 0 1.38-2.46c-.3-.17-.66-.31-1.08-.42a4.71 4.71 0 0 0-1.32-.18c-.88 0-1.5.18-1.88.54-.37.35-.56.77-.56 1.28 0 .48.18.87.54 1.18.36.3.84.46 1.44.46ZM228.92 32.32a5.04 5.04 0 0 1-4.54-2.62 5.75 5.75 0 0 1-.66-2.78c0-.97.21-1.87.64-2.7a5.11 5.11 0 0 1 1.78-1.98c.77-.5 1.66-.76 2.66-.76a5 5 0 0 1 2.68.68 4.4 4.4 0 0 1 1.7 1.86 5.95 5.95 0 0 1 .54 3.34h-7.88a3.3 3.3 0 0 0 1.06 2.28c.61.5 1.3.76 2.08.76a3 3 0 0 0 1.72-.46c.45-.32.81-.71 1.08-1.18l1.78.86a5.52 5.52 0 0 1-1.8 1.96c-.76.5-1.7.74-2.84.74Zm-.1-9c-.72 0-1.33.22-1.84.66-.5.44-.85 1.03-1.02 1.76h5.66c-.03-.35-.14-.7-.34-1.08a2.72 2.72 0 0 0-2.46-1.34Zm6.94 8.68V17.68h2.16v8.44l4.32-4.32h2.68v.12l-3.94 3.9 4.08 6.06V32h-2.56l-3.04-4.68-1.54 1.52V32h-2.16Zm10.67 0V17.68h2.16V32h-2.16Zm9.27.32a5.06 5.06 0 0 1-4.54-2.62 5.75 5.75 0 0 1-.66-2.78c0-.97.21-1.87.64-2.7a5.11 5.11 0 0 1 1.78-1.98c.77-.5 1.66-.76 2.66-.76a5 5 0 0 1 2.68.68 4.4 4.4 0 0 1 1.7 1.86 5.95 5.95 0 0 1 .54 3.34h-7.88a3.3 3.3 0 0 0 1.06 2.28c.61.5 1.3.76 2.08.76a3 3 0 0 0 1.72-.46c.45-.32.81-.71 1.08-1.18l1.78.86a5.52 5.52 0 0 1-1.8 1.96c-.76.5-1.7.74-2.84.74Zm-.1-9c-.72 0-1.34.22-1.84.66-.5.44-.85 1.03-1.02 1.76h5.66c-.03-.35-.14-.7-.34-1.08a2.72 2.72 0 0 0-2.46-1.34Z" fill="#fff"/>
  <rect x=".5" y=".5" width="282" height="49" rx="24.5" stroke="#747775"/>
</svg>
