<svg width="271" height="50" fill="none" xmlns="http://www.w3.org/2000/svg">
  <defs>
    <linearGradient id="a" x1="34.57" y1="30.79" x2="18.73" y2="48.91" gradientUnits="userSpaceOnUse">
      <stop stop-color="#4285F4"/>
      <stop offset="1" stop-color="#1B74E8"/>
    </linearGradient>
  </defs>
  <rect x=".5" y=".5" width="270" height="49" rx="24.5" fill="#1F1F1F"/>
  <path d="M51 22H21v-5c0-2.71 2.2-5 4.82-5h20.36A4.97 4.97 0 0 1 51 17v5Z" fill="#34A853"/>
  <path d="M51 26.05H21v-5c0-2.71 2.2-5 4.82-5h20.36a4.97 4.97 0 0 1 4.82 5v5Z" fill="#FBBC04"/>
  <path d="M51 30.25H21v-5c0-2.72 2.2-5 4.82-5h20.36a4.97 4.97 0 0 1 4.82 5v5Z" fill="#EA4335"/>
  <path d="m21 23.28 19.04 4.4c2.2.55 4.66 0 6.44-1.38L51 23v10.32c0 2.62-2.2 4.68-4.8 4.68H25.8c-2.6 0-4.8-2.06-4.8-4.68V23.28Z" fill="url(#a)"/>
  <path d="M67.54 32V19.76h-4.02v-2.08h10.2v2.08h-4V32h-2.18Zm8.15 0V17.68h2.16v3.92l-.12 1.6h.12c.28-.5.7-.9 1.28-1.22.58-.33 1.23-.5 1.94-.5 1.26 0 2.22.38 2.86 1.14.64.75.96 1.73.96 2.94V32h-2.14v-6.16c0-.83-.22-1.43-.66-1.8a2.27 2.27 0 0 0-1.58-.58c-.52 0-.98.15-1.38.44a3.39 3.39 0 0 0-1.28 2.66V32h-2.16Zm16.32.32a5.05 5.05 0 0 1-4.54-2.62 5.75 5.75 0 0 1-.66-2.78c0-.97.2-1.87.64-2.7a5.1 5.1 0 0 1 1.78-1.98c.77-.5 1.66-.76 2.66-.76a5 5 0 0 1 2.68.68 4.4 4.4 0 0 1 1.7 1.86 5.95 5.95 0 0 1 .54 3.34h-7.88a3.3 3.3 0 0 0 1.06 2.28c.6.5 1.3.76 2.08.76a3 3 0 0 0 1.72-.46c.45-.32.8-.71 1.08-1.18l1.78.86a5.52 5.52 0 0 1-1.8 1.96c-.76.5-1.71.74-2.84.74Zm-.1-9c-.72 0-1.34.22-1.84.66-.51.44-.85 1.03-1.02 1.76h5.66c-.03-.35-.14-.7-.34-1.08a2.72 2.72 0 0 0-2.46-1.34Zm-3.1-3.48v-.14l2.14-2.42h1.9L95 19.7v.14h-2.08l-.94-1.24h-.2l-.92 1.24H88.8ZM98.85 32V21.8h2.04v1.4h.12c.3-.5.72-.9 1.28-1.22.56-.33 1.18-.5 1.86-.5.76 0 1.4.18 1.94.54.53.36.91.81 1.14 1.36.33-.53.79-.98 1.36-1.34a3.77 3.77 0 0 1 2.1-.56c1.2 0 2.1.37 2.68 1.1.59.72.88 1.68.88 2.88V32h-2.14v-6.18c0-.81-.18-1.4-.54-1.78a1.86 1.86 0 0 0-1.46-.58c-.5 0-.93.14-1.3.42a2.7 2.7 0 0 0-.88 1.1c-.2.47-.3.99-.3 1.56V32h-2.14v-6.18c0-.81-.18-1.4-.54-1.78a1.97 1.97 0 0 0-1.52-.58 2 2 0 0 0-1.26.42c-.36.28-.65.65-.86 1.12-.2.47-.3.99-.3 1.56V32h-2.16Zm25.6 0-4.22-10.2h2.4l2.86 7.42h.1l2.92-7.42h2.36L126.61 32h-2.16Zm10.82.32c-.73 0-1.38-.14-1.96-.42a3.3 3.3 0 0 1-1.82-3c0-.72.19-1.33.56-1.84.39-.52.9-.91 1.54-1.18.64-.27 1.35-.4 2.12-.4a6.97 6.97 0 0 1 2.8.56v-.54c0-.67-.24-1.2-.72-1.6a2.8 2.8 0 0 0-1.86-.6c-.52 0-1.01.12-1.48.36-.46.23-.84.54-1.12.94l-1.48-1.14a4.5 4.5 0 0 1 1.74-1.44 5.37 5.37 0 0 1 2.4-.54c1.48 0 2.62.37 3.42 1.1.8.72 1.2 1.73 1.2 3.04V32h-2.1v-1.26h-.12a3.67 3.67 0 0 1-3.12 1.58Zm.38-1.76c.56 0 1.06-.13 1.48-.4a2.88 2.88 0 0 0 1.38-2.46c-.3-.17-.66-.31-1.08-.42a4.72 4.72 0 0 0-1.32-.18c-.88 0-1.5.18-1.88.54-.37.35-.56.77-.56 1.28 0 .48.18.87.54 1.18.36.3.84.46 1.44.46Zm-.46-10.72-1.6-2.56h2.46l.94 2.56h-1.8Zm12.5 12.48a5.15 5.15 0 0 1-4.66-2.66 5.56 5.56 0 0 1-.68-2.76c0-1.01.23-1.93.68-2.74a5.1 5.1 0 0 1 4.66-2.68 5.11 5.11 0 0 1 4.64 2.68c.46.81.68 1.73.68 2.74 0 1.03-.22 1.95-.68 2.76a5.15 5.15 0 0 1-4.64 2.66Zm0-1.98c.56 0 1.08-.13 1.56-.4.48-.28.87-.67 1.16-1.18.3-.52.46-1.14.46-1.86a3.5 3.5 0 0 0-.46-1.84 3 3 0 0 0-1.16-1.18 3.15 3.15 0 0 0-4.32 1.18 3.6 3.6 0 0 0-.44 1.84c0 .72.15 1.34.44 1.86.3.5.7.9 1.18 1.18.5.27 1.02.4 1.58.4ZM164.36 32l-5.08-14.32h2.4l3.24 9.52.5 1.62h.12l.54-1.62 3.38-9.52h2.4L166.64 32h-2.28Zm8.81 0V21.8h2.16V32h-2.16Zm.2-12.16.94-2.56h2.44l-1.6 2.56h-1.78Zm16.06 12.48a7.55 7.55 0 0 1-5.28-2.12 7.6 7.6 0 0 1-1.64-2.38 7.62 7.62 0 0 1-.58-2.98 7.48 7.48 0 0 1 2.2-5.34 7.45 7.45 0 0 1 5.3-2.14c1.1 0 2.1.2 3.02.58a6.4 6.4 0 0 1 2.34 1.62l-1.52 1.5a4.72 4.72 0 0 0-1.68-1.2 5.34 5.34 0 0 0-2.16-.42 5.23 5.23 0 0 0-5.28 5.4c0 1.1.25 2.05.74 2.86.5.8 1.14 1.43 1.94 1.88.8.44 1.67.66 2.62.66.87 0 1.66-.16 2.36-.48a4.28 4.28 0 0 0 2.5-3.56h-4.9v-1.94h6.96c.08.36.12.74.12 1.14v.02c0 1.39-.3 2.6-.92 3.64a6.28 6.28 0 0 1-2.5 2.4 7.56 7.56 0 0 1-3.64.86Zm13.5 0a5.15 5.15 0 0 1-4.66-2.66 5.57 5.57 0 0 1-.68-2.76c0-1.01.23-1.93.68-2.74a5.1 5.1 0 0 1 4.66-2.68 5.1 5.1 0 0 1 4.64 2.68c.45.81.68 1.73.68 2.74 0 1.03-.23 1.95-.68 2.76a5.15 5.15 0 0 1-4.64 2.66Zm0-1.98c.56 0 1.08-.13 1.56-.4.48-.28.87-.67 1.16-1.18.3-.52.46-1.14.46-1.86 0-.72-.15-1.33-.46-1.84a3 3 0 0 0-1.16-1.18 3.15 3.15 0 0 0-4.32 1.18c-.3.5-.44 1.12-.44 1.84s.15 1.34.44 1.86c.3.5.7.9 1.18 1.18.5.27 1.02.4 1.58.4Zm12.11 1.98a5.15 5.15 0 0 1-4.66-2.66 5.57 5.57 0 0 1-.68-2.76c0-1.01.23-1.93.68-2.74a5.11 5.11 0 0 1 4.66-2.68 5.1 5.1 0 0 1 4.64 2.68c.45.81.68 1.73.68 2.74 0 1.03-.23 1.95-.68 2.76a5.15 5.15 0 0 1-4.64 2.66Zm0-1.98c.56 0 1.08-.13 1.56-.4.48-.28.87-.67 1.16-1.18.3-.52.46-1.14.46-1.86 0-.72-.15-1.33-.46-1.84a3 3 0 0 0-1.16-1.18 3.15 3.15 0 0 0-4.32 1.18c-.3.5-.44 1.12-.44 1.84s.15 1.34.44 1.86c.3.5.7.9 1.18 1.18.5.27 1.02.4 1.58.4Zm11.91 6.3c-.9 0-1.67-.15-2.32-.44a4.39 4.39 0 0 1-2.42-2.46l2-.84a2.88 2.88 0 0 0 2.74 1.82 2.9 2.9 0 0 0 2.2-.84c.55-.56.82-1.35.82-2.38v-.98h-.12c-.32.48-.77.87-1.34 1.16-.56.28-1.2.42-1.92.42-.87 0-1.66-.22-2.38-.66a4.92 4.92 0 0 1-1.74-1.84 5.72 5.72 0 0 1-.66-2.8c0-1.08.22-2.01.66-2.8a4.88 4.88 0 0 1 1.74-1.86 4.48 4.48 0 0 1 4.3-.22c.57.3 1.02.68 1.34 1.16h.12V21.8h2.06v9.66c0 1.1-.22 2.05-.66 2.82a4.27 4.27 0 0 1-1.78 1.76c-.76.4-1.64.6-2.64.6Zm.02-6.5c.53 0 1.03-.13 1.48-.38.45-.27.82-.65 1.1-1.14.28-.5.42-1.11.42-1.82 0-.73-.14-1.35-.42-1.84a2.84 2.84 0 0 0-2.58-1.52 2.98 2.98 0 0 0-2.6 1.52c-.28.5-.42 1.1-.42 1.84 0 .72.14 1.33.42 1.84a2.87 2.87 0 0 0 2.6 1.5Zm7.6 1.86V17.68h2.17V32h-2.16Zm9.28.32a5.04 5.04 0 0 1-4.54-2.62 5.75 5.75 0 0 1-.66-2.78c0-.97.2-1.87.64-2.7a5.1 5.1 0 0 1 1.78-1.98c.77-.5 1.66-.76 2.66-.76a5 5 0 0 1 2.68.68 4.41 4.41 0 0 1 1.7 1.86 5.96 5.96 0 0 1 .54 3.34h-7.88a3.3 3.3 0 0 0 1.06 2.28c.6.5 1.3.76 2.08.76a3 3 0 0 0 1.72-.46c.45-.32.8-.71 1.08-1.18l1.78.86a5.52 5.52 0 0 1-1.8 1.96c-.76.5-1.71.74-2.84.74Zm-.1-9a2.7 2.7 0 0 0-1.84.66c-.51.44-.85 1.03-1.02 1.76h5.66c-.03-.35-.14-.7-.34-1.08a2.73 2.73 0 0 0-2.46-1.34Z" fill="#fff"/>
  <rect x=".5" y=".5" width="270" height="49" rx="24.5" stroke="#747775"/>
</svg>
