<svg width="263" height="50" fill="none" xmlns="http://www.w3.org/2000/svg">
  <defs>
    <linearGradient id="a" x1="34.57" y1="30.79" x2="18.73" y2="48.91" gradientUnits="userSpaceOnUse">
      <stop stop-color="#4285F4"/>
      <stop offset="1" stop-color="#1B74E8"/>
    </linearGradient>
  </defs>
  <rect x=".5" y=".5" width="262" height="49" rx="24.5" fill="#1F1F1F"/>
  <path d="M51 22H21v-5c0-2.71 2.2-5 4.82-5h20.36A4.97 4.97 0 0 1 51 17v5Z" fill="#34A853"/>
  <path d="M51 26.05H21v-5c0-2.71 2.2-5 4.82-5h20.36a4.97 4.97 0 0 1 4.82 5v5Z" fill="#FBBC04"/>
  <path d="M51 30.25H21v-5c0-2.72 2.2-5 4.82-5h20.36a4.97 4.97 0 0 1 4.82 5v5Z" fill="#EA4335"/>
  <path d="m21 23.28 19.04 4.4c2.2.55 4.66 0 6.44-1.38L51 23v10.32c0 2.62-2.2 4.68-4.8 4.68H25.8c-2.6 0-4.8-2.06-4.8-4.68V23.28Z" fill="url(#a)"/>
  <path d="M74.74 21.96v1.4h7.44v-1.4h-7.44ZM64.22 17.3v1.28h8.82V17.3h-8.82ZM64 25.24v1.3h9.14v-1.3H64Zm-.06-3.36v1.28h9.34v-1.28h-9.34Zm14.52.64V33.5h1.46V22.52h-1.46Zm-10.54-7.24v2.68h1.46v-2.68h-1.46Zm0 7.64v10.66h1.46V22.92h-1.46Zm6.1-6.08v7c0 2.84-.28 6.3-2.84 8.82.36.2.9.7 1.08 1.04 2.82-2.78 3.18-6.84 3.18-9.84v-6.18c.28-.04.4-.12.42-.28l-1.84-.56Zm6.7-1.4c-1.46.72-4.1 1.42-6.34 1.9.18.3.38.82.46 1.14 2.4-.42 5.2-1.1 7.08-1.94l-1.2-1.1ZM69.24 26.92l-.82.68c.74.62 2.62 2.38 3.26 3.12l.88-1.12c-.5-.46-2.68-2.24-3.32-2.68Zm-3.82-7.98c.4.92.72 2.12.78 2.9l1.26-.34a10.7 10.7 0 0 0-.86-2.82l-1.18.26Zm5.12-.3c-.22.84-.64 2.08-1 2.88l1.2.28c.36-.74.78-1.86 1.16-2.86l-1.36-.3Zm-2.6 7.26a14.37 14.37 0 0 1-4.4 5.18c.34.24.78.72 1.02 1.06 1.6-1.24 3.44-3.6 4.46-5.82l-1.08-.42Zm15.92-5.8v1.42h5.36V20.1h-5.36ZM86 15.5v13.08h1.46V15.5H86Zm-2.44 13.42.52 1.5c1.7-.72 3.86-1.68 5.9-2.6l-.36-1.36c-2.22.94-4.54 1.9-6.06 2.46Zm7.78-2.6v7.3h1.44v-6.16h5.94v6.1h1.48v-7.24h-8.86Zm.76 5.36v1.18h7.56v-1.18H92.1Zm-.04-2.66v1.08h7.5v-1.08h-7.5Zm3.04-8.96v4.52h1.14v-4.52H95.1Zm-3.5.6h8.24v3.38H91.6v-3.38Zm-1.22-1.16v5.68h10.76V19.5H90.38Zm1.96 1.86c.36.74.72 1.72.84 2.32l.96-.32c-.12-.58-.48-1.54-.86-2.26l-.94.26Zm5.56-.28c-.18.66-.58 1.64-.9 2.3l.82.3c.36-.58.76-1.44 1.14-2.26l-1.06-.34Zm-3.84-5.34v1.3h4.06v-1.3h-4.06Zm-1.7.54a12.14 12.14 0 0 1-3.52 4.08c.32.24.82.78 1.02 1.04a15.48 15.48 0 0 0 3.84-4.72l-1.34-.4Zm4.54-.54v.76h.4a16.12 16.12 0 0 0 4.28 4.7c.24-.38.68-.9 1-1.16a13.24 13.24 0 0 1-4.18-4.3h-1.5Zm7.62.72v1.4h17.12v-1.4h-17.12Zm1.32 9.76v1.4h14.44v-1.4h-14.44Zm-1.76 5.16v1.4h17.88v-1.4h-17.88Zm8.06-7.64v8.62h1.56v-8.62h-1.56Zm-7.26-1.88.06 1.52c3.54-.12 9.1-.36 14.32-.6l.08-1.36c-5.38.2-11 .38-14.46.44Zm5.46-4.76a31.33 31.33 0 0 1-2.64 5.16l1.38.5c.92-1.3 2.08-3.36 2.98-5.12l-1.72-.54Zm4.48 2.18a33.22 33.22 0 0 1 5.54 5.02l1.34-.96c-1.18-1.44-3.68-3.5-5.66-4.88l-1.22.82ZM136.4 32.32a7.54 7.54 0 0 1-5.28-2.12 7.6 7.6 0 0 1-1.64-2.38 7.6 7.6 0 0 1-.58-2.98 7.46 7.46 0 0 1 2.2-5.34 7.43 7.43 0 0 1 5.3-2.14c1.1 0 2.1.2 3.02.58.93.39 1.71.93 2.34 1.62l-1.52 1.5a4.74 4.74 0 0 0-1.68-1.2 5.34 5.34 0 0 0-2.16-.42 5.22 5.22 0 0 0-5.28 5.4c0 1.1.25 2.05.74 2.86.5.8 1.14 1.43 1.94 1.88a5.66 5.66 0 0 0 4.98.18 4.28 4.28 0 0 0 2.5-3.56h-4.9v-1.94h6.96c.08.36.12.74.12 1.14v.02c0 1.39-.3 2.6-.92 3.64a6.28 6.28 0 0 1-2.5 2.4 7.57 7.57 0 0 1-3.64.86Zm13.5 0a5.15 5.15 0 0 1-4.66-2.66 5.57 5.57 0 0 1-.68-2.76c0-1.01.23-1.93.68-2.74a5.1 5.1 0 0 1 4.66-2.68 5.1 5.1 0 0 1 4.64 2.68c.45.81.68 1.73.68 2.74 0 1.03-.23 1.95-.68 2.76a5.15 5.15 0 0 1-4.64 2.66Zm0-1.98c.56 0 1.08-.13 1.56-.4.48-.28.87-.67 1.16-1.18.3-.52.46-1.14.46-1.86 0-.72-.15-1.33-.46-1.84a3 3 0 0 0-1.16-1.18 3.15 3.15 0 0 0-4.32 1.18c-.3.5-.44 1.12-.44 1.84s.15 1.34.44 1.86c.3.5.7.9 1.18 1.18.5.27 1.02.4 1.58.4Zm12.1 1.98a5.15 5.15 0 0 1-4.66-2.66 5.57 5.57 0 0 1-.67-2.76c0-1.01.23-1.93.68-2.74a5.11 5.11 0 0 1 4.66-2.68 5.1 5.1 0 0 1 4.64 2.68c.45.81.68 1.73.68 2.74 0 1.03-.23 1.95-.68 2.76a5.15 5.15 0 0 1-4.64 2.66Zm0-1.98c.57 0 1.09-.13 1.57-.4.48-.28.87-.67 1.16-1.18.3-.52.46-1.14.46-1.86 0-.72-.15-1.33-.46-1.84a3 3 0 0 0-1.16-1.18 3.15 3.15 0 0 0-4.32 1.18c-.3.5-.44 1.12-.44 1.84s.15 1.34.44 1.86c.3.5.7.9 1.18 1.18.5.27 1.02.4 1.58.4Zm11.92 6.3c-.9 0-1.67-.15-2.32-.44a4.39 4.39 0 0 1-2.42-2.46l2-.84a2.88 2.88 0 0 0 2.74 1.82 2.9 2.9 0 0 0 2.2-.84c.54-.56.82-1.35.82-2.38v-.98h-.12c-.32.48-.77.87-1.34 1.16-.56.28-1.2.42-1.92.42-.87 0-1.66-.22-2.38-.66a4.92 4.92 0 0 1-1.74-1.84 5.72 5.72 0 0 1-.66-2.8c0-1.08.22-2.01.66-2.8a4.88 4.88 0 0 1 1.74-1.86 4.48 4.48 0 0 1 4.3-.22c.57.3 1.02.68 1.34 1.16h.12V21.8H179v9.66c0 1.1-.22 2.05-.66 2.82a4.27 4.27 0 0 1-1.78 1.76c-.76.4-1.64.6-2.64.6Zm.02-6.5c.53 0 1.03-.13 1.48-.38.45-.27.82-.65 1.1-1.14.28-.5.42-1.11.42-1.82 0-.73-.14-1.35-.42-1.84a2.84 2.84 0 0 0-2.58-1.52 2.97 2.97 0 0 0-2.6 1.52c-.28.5-.42 1.1-.42 1.84 0 .72.14 1.33.42 1.84a2.86 2.86 0 0 0 2.6 1.5Zm7.6 1.86V17.68h2.17V32h-2.16Zm9.28.32a5.04 5.04 0 0 1-4.54-2.62 5.75 5.75 0 0 1-.66-2.78c0-.97.2-1.87.63-2.7a5.1 5.1 0 0 1 1.78-1.98c.78-.5 1.66-.76 2.66-.76a5 5 0 0 1 2.69.68 4.41 4.41 0 0 1 1.7 1.86 5.96 5.96 0 0 1 .53 3.34h-7.88a3.3 3.3 0 0 0 1.06 2.28c.62.5 1.31.76 2.09.76a3 3 0 0 0 1.72-.46c.45-.32.8-.71 1.08-1.18l1.78.86a5.52 5.52 0 0 1-1.8 1.96c-.76.5-1.71.74-2.84.74Zm-.1-9a2.7 2.7 0 0 0-1.84.66c-.51.44-.85 1.03-1.03 1.76h5.66c-.02-.35-.13-.7-.33-1.08a2.73 2.73 0 0 0-2.46-1.34Zm19.23-5.26.14 1.22 9.82-.96-.12-1.22-9.84.96Zm-.24 8.9.1 1.24 10.38-1-.14-1.22-10.34.98Zm2.34-11.76c.4 5.02 3.54 9 6.32 9 1.12 0 1.62-.52 1.86-2.42a3.39 3.39 0 0 1-1.08-.6c-.08 1.26-.22 1.7-.7 1.7-1.92.02-4.7-3.36-5.04-7.68h-1.36Zm.08 8.88c.34 5.34 3.16 9.52 6.26 9.52 1.2 0 1.7-.54 1.94-2.56-.36-.12-.8-.36-1.1-.64-.1 1.38-.24 1.86-.76 1.86-2.16.04-4.68-3.52-4.96-8.18h-1.38Zm5.22-5.16c-1.56 1.88-4.74 3.2-7.8 3.92.28.26.72.84.9 1.12 3.06-.9 6.4-2.38 8.16-4.56l-1.26-.48Zm.3 8.86c-1.68 2.24-5.2 3.7-8.72 4.48.28.28.72.92.88 1.22 3.54-.98 7.24-2.64 9.18-5.22l-1.34-.48Zm-2.46-11.74c.9.34 2.04.88 2.6 1.34l.7-.9c-.58-.42-1.72-.94-2.6-1.22l-.7.78Zm-.3 8.56c.92.38 2.04 1.02 2.6 1.5l.84-.86a11.24 11.24 0 0 0-2.64-1.42l-.8.78Zm-11.66-4.44v1.3h5.62v-1.3h-5.62Zm-1.08 3.42v1.32h7.32v-1.32h-7.32Zm.46 2.64c.38 1.22.7 2.78.72 3.82l1.12-.28c-.08-1.04-.4-2.58-.8-3.8l-1.04.26Zm-.64 5.38.3 1.4c2.08-.44 4.84-1.04 7.48-1.62l-.1-1.26c-2.82.58-5.74 1.16-7.68 1.48Zm6.2-5.82a34.13 34.13 0 0 1-.84 3.62l.98.28c.34-.94.68-2.38 1.02-3.6l-1.16-.3Zm-2.88-5.14v11.12l1.32-.22v-10.9h-1.32Zm-.06-5.42a14.22 14.22 0 0 1-3.78 5.16c.28.2.72.64.94.94a18.12 18.12 0 0 0 4.06-5.4v-.38H206v-.32h-.78Zm.24 0v1.06h.28c1.16 1 2.52 2.66 3.2 3.68l1-1.14c-.7-1-2.18-2.54-3.36-3.6h-1.12Zm21.24-.12a18.94 18.94 0 0 1-5.04 7.38c.4.24 1.04.78 1.34 1.06a23.5 23.5 0 0 0 5.26-8l-1.56-.44Zm-.24 2.4-.72 1.42h12V17.5h-11.28Zm10.8 0v.3c-.18 6.54-.38 8.84-.84 9.36-.16.22-.38.28-.7.28-.38 0-1.34-.02-2.36-.12.24.4.4 1 .42 1.44 1.08.04 2.08.06 2.64 0 .6-.06 1-.22 1.36-.68.58-.74.78-3.12.98-9.86v-.72h-1.5Zm-11.86 8.32v1.34h7.72v-6.1h-8.14v1.34h6.64v3.42h-6.22Zm-.72 0v5.14c0 1.98.94 2.42 4.14 2.42h7.48c2.84 0 3.42-.7 3.72-3.58a5.46 5.46 0 0 1-1.44-.54c-.18 2.3-.48 2.7-2.3 2.7h-7.54c-2.16 0-2.56-.18-2.56-1v-5.14h-1.5Z" fill="#fff"/>
  <rect x=".5" y=".5" width="262" height="49" rx="24.5" stroke="#747775"/>
</svg>
